<svg width="16" height="10" viewBox="0 0 16 10" fill="none" xmlns="http://www.w3.org/2000/svg">
<path fill-rule="evenodd" clip-rule="evenodd" d="M8.8644 9.61822C8.63904 9.86267 8.33343 10 8.01477 10C7.69611 10 7.3905 9.86267 7.16514 9.61822L0.366878 2.24185C0.252099 2.12156 0.160548 1.97768 0.0975657 1.81859C0.0345836 1.65951 0.00143196 1.4884 4.53735e-05 1.31527C-0.00134122 1.14213 0.0290652 0.970431 0.0894899 0.810182C0.149915 0.649933 0.239148 0.504345 0.351983 0.381914C0.464817 0.259484 0.598994 0.162663 0.746684 0.0970995C0.894373 0.0315363 1.05262 -0.00145527 1.21219 4.92329e-05C1.37175 0.00155374 1.52944 0.0375246 1.67606 0.105863C1.82268 0.174201 1.95529 0.273537 2.06614 0.398077L8.01477 6.85257L13.9634 0.398077C14.19 0.160554 14.4936 0.0291241 14.8087 0.0320951C15.1238 0.035066 15.4252 0.1722 15.648 0.41396C15.8708 0.655721 15.9972 0.982765 16 1.32465C16.0027 1.66654 15.8816 1.99592 15.6627 2.24185L8.8644 9.61822Z" fill="white" fill-opacity="0.7"/>
</svg>
