<svg width="15" height="15" viewBox="0 0 15 15" fill="none" xmlns="http://www.w3.org/2000/svg">
<path fill-rule="evenodd" clip-rule="evenodd" d="M5.25 0C4.85218 0 4.47064 0.158035 4.18934 0.43934C3.90804 0.720644 3.75 1.10218 3.75 1.5V3H5.25V1.5H13.5V9.75H12V11.25H13.5C13.8978 11.25 14.2794 11.092 14.5607 10.8107C14.842 10.5294 15 10.1478 15 9.75V1.5C15 1.10218 14.842 0.720644 14.5607 0.43934C14.2794 0.158035 13.8978 0 13.5 0H5.25ZM1.5 3.75C1.10218 3.75 0.720644 3.90804 0.43934 4.18934C0.158035 4.47064 0 4.85218 0 5.25V13.5C0 13.8978 0.158035 14.2794 0.43934 14.5607C0.720644 14.842 1.10218 15 1.5 15H9.75C10.1478 15 10.5294 14.842 10.8107 14.5607C11.092 14.2794 11.25 13.8978 11.25 13.5V5.25C11.25 4.85218 11.092 4.47064 10.8107 4.18934C10.5294 3.90804 10.1478 3.75 9.75 3.75H1.5ZM1.5 5.25H9.75V13.5H1.5V5.25Z" fill="white" fill-opacity="0.5"/>
</svg>
