<svg width="28" height="24" viewBox="0 0 28 24" fill="none" xmlns="http://www.w3.org/2000/svg">
<path fill-rule="evenodd" clip-rule="evenodd" d="M16.1907 24V18.541H11.8093V24H6.69752C6.31017 24 5.93869 23.8562 5.6648 23.6003C5.3909 23.3443 5.23703 22.9972 5.23703 22.6353V14.4468H1.46018C1.17137 14.4468 0.88906 14.3667 0.64894 14.2167C0.40882 14.0668 0.221673 13.8537 0.111157 13.6043C0.000641086 13.355 -0.0282812 13.0806 0.0280466 12.8159C0.0843744 12.5512 0.223423 12.3081 0.427614 12.1172L12.9674 0.399577C13.2413 0.143728 13.6127 0 14 0C14.3873 0 14.7587 0.143728 15.0326 0.399577L27.5724 12.1172C27.7766 12.3081 27.9156 12.5512 27.972 12.8159C28.0283 13.0806 27.9994 13.355 27.8888 13.6043C27.7783 13.8537 27.5912 14.0668 27.3511 14.2167C27.1109 14.3667 26.8286 14.4468 26.5398 14.4468H22.763V22.6353C22.763 22.9972 22.6091 23.3443 22.3352 23.6003C22.0613 23.8562 21.6898 24 21.3025 24H16.1907Z" fill="white"/>
</svg>
