<svg width="20" height="20" viewBox="0 0 20 20" fill="none" xmlns="http://www.w3.org/2000/svg">
<path d="M2.91973 20C2.72082 20 2.53005 19.921 2.3894 19.7803C2.24874 19.6397 2.16973 19.4489 2.16973 19.25V14.15C1.54685 13.983 0.996485 13.6151 0.603958 13.1034C0.211432 12.5918 -0.0013237 11.9649 -0.0013237 11.32C-0.0013237 10.6751 0.211432 10.0482 0.603958 9.53658C0.996485 9.02491 1.54685 8.65704 2.16973 8.49V0.75C2.16973 0.551088 2.24874 0.360322 2.3894 0.21967C2.53005 0.0790175 2.72082 0 2.91973 0C3.11864 0 3.3094 0.0790175 3.45006 0.21967C3.59071 0.360322 3.66973 0.551088 3.66973 0.75V8.49C4.2926 8.65704 4.84297 9.02491 5.2355 9.53658C5.62802 10.0482 5.84078 10.6751 5.84078 11.32C5.84078 11.9649 5.62802 12.5918 5.2355 13.1034C4.84297 13.6151 4.2926 13.983 3.66973 14.15V19.25C3.66973 19.4489 3.59071 19.6397 3.45006 19.7803C3.3094 19.921 3.11864 20 2.91973 20ZM16.1297 20C15.9308 20 15.74 19.921 15.5994 19.7803C15.4587 19.6397 15.3797 19.4489 15.3797 19.25V16.8C14.7569 16.633 14.2065 16.2651 13.814 15.7534C13.4214 15.2418 13.2087 14.6149 13.2087 13.97C13.2087 13.3251 13.4214 12.6982 13.814 12.1866C14.2065 11.6749 14.7569 11.307 15.3797 11.14V0.75C15.3797 0.651509 15.3991 0.553982 15.4368 0.462987C15.4745 0.371993 15.5298 0.289314 15.5994 0.21967C15.669 0.150026 15.7517 0.0947813 15.8427 0.0570903C15.9337 0.0193993 16.0312 0 16.1297 0C16.2282 0 16.3257 0.0193993 16.4167 0.0570903C16.5077 0.0947813 16.5904 0.150026 16.6601 0.21967C16.7297 0.289314 16.7849 0.371993 16.8226 0.462987C16.8603 0.553982 16.8797 0.651509 16.8797 0.75V11.14C17.5026 11.307 18.053 11.6749 18.4455 12.1866C18.838 12.6982 19.0508 13.3251 19.0508 13.97C19.0508 14.6149 18.838 15.2418 18.4455 15.7534C18.053 16.2651 17.5026 16.633 16.8797 16.8V19.25C16.8811 19.3489 16.8626 19.447 16.8254 19.5386C16.7882 19.6302 16.733 19.7134 16.6631 19.7833C16.5931 19.8532 16.5099 19.9084 16.4183 19.9457C16.3267 19.9829 16.2286 20.0013 16.1297 20ZM9.52973 20C9.43086 20.0013 9.33273 19.9829 9.24113 19.9457C9.14953 19.9084 9.06631 19.8532 8.9964 19.7833C8.92649 19.7134 8.87129 19.6302 8.83408 19.5386C8.79686 19.447 8.77838 19.3489 8.77973 19.25V7.55C8.15685 7.38296 7.60648 7.01509 7.21396 6.50342C6.82143 5.99176 6.60867 5.36489 6.60867 4.72C6.60867 4.07511 6.82143 3.44824 7.21396 2.93658C7.60648 2.42491 8.15685 2.05704 8.77973 1.89V0.75C8.77973 0.551088 8.85874 0.360322 8.9994 0.21967C9.14005 0.0790175 9.33082 0 9.52973 0C9.72864 0 9.9194 0.0790175 10.0601 0.21967C10.2007 0.360322 10.2797 0.551088 10.2797 0.75V1.89C10.9026 2.05704 11.453 2.42491 11.8455 2.93658C12.238 3.44824 12.4508 4.07511 12.4508 4.72C12.4508 5.36489 12.238 5.99176 11.8455 6.50342C11.453 7.01509 10.9026 7.38296 10.2797 7.55V19.25C10.2797 19.4489 10.2007 19.6397 10.0601 19.7803C9.9194 19.921 9.72864 20 9.52973 20Z" fill="black"/>
</svg>
