<svg width="13" height="19" viewBox="0 0 13 19" fill="none" xmlns="http://www.w3.org/2000/svg">
<path d="M11.91 7.13395L12.97 6.07295L7.193 0.29395C7.10043 0.200796 6.99036 0.126867 6.86911 0.0764193C6.74786 0.0259713 6.61783 0 6.4865 0C6.35517 0 6.22514 0.0259713 6.10389 0.0764193C5.98264 0.126867 5.87257 0.200796 5.78 0.29395L0 6.07295L1.06 7.13295L6.485 1.70895L11.91 7.13395Z" fill="white"/>
<path d="M11.91 11.1336L12.97 12.1946L7.193 17.9736C7.10043 18.0668 6.99036 18.1407 6.86911 18.1912C6.74786 18.2416 6.61783 18.2676 6.4865 18.2676C6.35517 18.2676 6.22514 18.2416 6.10389 18.1912C5.98264 18.1407 5.87257 18.0668 5.78 17.9736L0 12.1946L1.06 11.1346L6.485 16.5586L11.91 11.1336Z" fill="white"/>
</svg>
