<svg width="7" height="7" viewBox="0 0 7 7" fill="none" xmlns="http://www.w3.org/2000/svg">
<path d="M1.75 3.85039L2.4379 3.16249C2.49416 3.10625 2.57045 3.07465 2.65 3.07465C2.72955 3.07465 2.80584 3.10625 2.8621 3.16249L3.3379 3.63829C3.39416 3.69453 3.47045 3.72613 3.55 3.72613C3.62955 3.72613 3.70584 3.69453 3.7621 3.63829L4.75 2.65039M4.75 2.65039V3.40039M4.75 2.65039H4" stroke="black" stroke-width="0.5" stroke-linecap="round" stroke-linejoin="round"/>
<path d="M6.25 3.25C6.25 4.6642 6.25 5.3713 5.8105 5.8105C5.3716 6.25 4.6642 6.25 3.25 6.25C1.8358 6.25 1.1287 6.25 0.6892 5.8105C0.25 5.3716 0.25 4.6642 0.25 3.25C0.25 1.8358 0.25 1.1287 0.6892 0.6892C1.129 0.25 1.8358 0.25 3.25 0.25C4.6642 0.25 5.3713 0.25 5.8105 0.6892C6.1027 0.9814 6.2005 1.3921 6.2335 2.05" stroke="black" stroke-width="0.5" stroke-linecap="round"/>
</svg>
