<svg width="28" height="28" viewBox="0 0 28 28" fill="none" xmlns="http://www.w3.org/2000/svg">
<mask id="mask0_1458_10020" style="mask-type:luminance" maskUnits="userSpaceOnUse" x="0" y="0" width="28" height="28">
<path d="M24.8333 1H3.16667C2.59203 1 2.04093 1.22827 1.6346 1.6346C1.22827 2.04093 1 2.59203 1 3.16667V24.8333C1 25.408 1.22827 25.9591 1.6346 26.3654C2.04093 26.7717 2.59203 27 3.16667 27H24.8333C25.408 27 25.9591 26.7717 26.3654 26.3654C26.7717 25.9591 27 25.408 27 24.8333V3.16667C27 2.59203 26.7717 2.04093 26.3654 1.6346C25.9591 1.22827 25.408 1 24.8333 1Z" fill="white" stroke="white" stroke-width="2" stroke-linejoin="round"/>
<path d="M14.0013 17.3407V14.4518C14.8584 14.4518 15.6962 14.1977 16.4088 13.7215C17.1214 13.2454 17.6768 12.5686 18.0048 11.7768C18.3328 10.985 18.4186 10.1137 18.2514 9.2731C18.0842 8.43252 17.6715 7.66039 17.0654 7.05436C16.4594 6.44833 15.6873 6.03562 14.8467 5.86842C14.0061 5.70122 13.1348 5.78703 12.343 6.11501C11.5512 6.44299 10.8744 6.99841 10.3983 7.71102C9.92211 8.42363 9.66797 9.26144 9.66797 10.1185" stroke="black" stroke-width="2" stroke-linecap="round" stroke-linejoin="round"/>
<path fill-rule="evenodd" clip-rule="evenodd" d="M14.0009 23.8406C14.4797 23.8406 14.939 23.6504 15.2776 23.3118C15.6162 22.9732 15.8064 22.5139 15.8064 22.035C15.8064 21.5562 15.6162 21.0969 15.2776 20.7583C14.939 20.4197 14.4797 20.2295 14.0009 20.2295C13.522 20.2295 13.0628 20.4197 12.7241 20.7583C12.3855 21.0969 12.1953 21.5562 12.1953 22.035C12.1953 22.5139 12.3855 22.9732 12.7241 23.3118C13.0628 23.6504 13.522 23.8406 14.0009 23.8406Z" fill="black"/>
</mask>
<g mask="url(#mask0_1458_10020)">
<path d="M-3.33203 -3.33301H31.3346V31.3337H-3.33203V-3.33301Z" fill="white"/>
</g>
</svg>
