<svg width="20" height="17" viewBox="0 0 20 17" fill="none" xmlns="http://www.w3.org/2000/svg">
<path d="M18.7612 4.99737L19.3806 4.37828L20 4.99737L19.3806 5.61646L18.7612 4.99737ZM5.61941 5.87303C5.38705 5.87303 5.16421 5.78077 4.99991 5.61655C4.8356 5.45234 4.7433 5.22961 4.7433 4.99737C4.7433 4.76513 4.8356 4.54241 4.99991 4.37819C5.16421 4.21397 5.38705 4.12172 5.61941 4.12172V5.87303ZM15 0L19.3806 4.37828L18.1418 5.61646L13.7612 1.23818L15 0ZM19.3806 5.61646L15 9.99475L13.7612 8.75657L18.1418 4.37828L19.3806 5.61646ZM18.7612 5.87303H5.61941V4.12172H18.7612V5.87303ZM1.23883 12.0026L0.619413 11.3835L0 12.0026L0.619413 12.6217L1.23883 12.0026ZM14.3806 12.8783C14.6129 12.8783 14.8358 12.786 15.0001 12.6218C15.1644 12.4576 15.2567 12.2349 15.2567 12.0026C15.2567 11.7704 15.1644 11.5477 15.0001 11.3834C14.8358 11.2192 14.6129 11.127 14.3806 11.127V12.8783ZM5 7.00525L0.619413 11.3835L1.85824 12.6217L6.23883 8.24343L5 7.00525ZM0.619413 12.6217L5 17L6.23883 15.7618L1.85824 11.3835L0.619413 12.6217ZM1.23883 12.8783H14.3806V11.127H1.23883V12.8783Z" fill="white"/>
</svg>
