<svg width="156" height="37" viewBox="0 0 156 37" fill="none" xmlns="http://www.w3.org/2000/svg">
<g style="mix-blend-mode:hard-light">
<ellipse cx="18.4997" cy="18.4999" rx="18.4997" ry="18.4999" fill="url(#paint0_linear_1885_6302)"/>
<ellipse cx="18.4997" cy="18.4999" rx="18.4997" ry="18.4999" fill="#82E60A" fill-opacity="0.4"/>
</g>
<path d="M36.9994 18.4999C36.9994 13.5934 35.0503 8.88791 31.5809 5.4185C28.1116 1.94909 23.4061 3.70429e-07 18.4997 0C13.5933 -3.70429e-07 8.8878 1.94909 5.41843 5.4185C1.94907 8.88791 7.40849e-07 13.5934 0 18.4999H3.69994C3.69994 14.5747 5.25919 10.8103 8.03468 8.03479C10.8102 5.25926 14.5745 3.69999 18.4997 3.69999C22.4248 3.69999 26.1892 5.25926 28.9647 8.03479C31.7402 10.8103 33.2994 14.5747 33.2994 18.4999H36.9994Z" fill="#060B01" fill-opacity="0.53"/>
<path d="M0.000631622 18.5001C0.000632051 23.4066 1.9497 28.1121 5.41907 31.5815C8.88843 35.0509 13.5939 37 18.5003 37C23.4067 37 28.1122 35.0509 31.5816 31.5815C35.0509 28.1121 37 23.4066 37 18.5001L33.3001 18.5001C33.3001 22.4253 31.7408 26.1897 28.9653 28.9652C26.1898 31.7407 22.4255 33.3 18.5003 33.3C14.5752 33.3 10.8108 31.7407 8.03531 28.9652C5.25982 26.1897 3.70057 22.4253 3.70057 18.5001L0.000631622 18.5001Z" fill="#82E60A"/>
<path d="M3.69531 18.4993C15.9791 14.2074 9.61521 7.84339 19.087 16.8714C30.9268 31.6713 32.0615 18.1047 33.2948 18.4993" stroke="white"/>
<path d="M57.78 13.66H50.9V17.38H57.28V19.54H50.9V25.5H48.64V11.5H57.78V13.66ZM60.7681 9.54C61.1948 9.54 61.5481 9.67333 61.8281 9.94C62.1081 10.1933 62.2481 10.52 62.2481 10.92C62.2481 11.3333 62.1081 11.6733 61.8281 11.94C61.5481 12.2067 61.1948 12.34 60.7681 12.34C60.3548 12.34 60.0081 12.2067 59.7281 11.94C59.4481 11.6733 59.3081 11.3333 59.3081 10.92C59.3081 10.52 59.4481 10.1933 59.7281 9.94C60.0081 9.67333 60.3548 9.54 60.7681 9.54ZM59.6481 25.5V14.5H61.9081V25.5H59.6481ZM70.4709 14.26C71.7109 14.26 72.6776 14.64 73.3709 15.4C74.0776 16.16 74.4309 17.2133 74.4309 18.56V25.5H72.1709V19.02C72.1709 17.2867 71.3709 16.42 69.7709 16.42C68.8109 16.42 68.0709 16.72 67.5509 17.32C67.0443 17.9067 66.7909 18.7333 66.7909 19.8V25.5H64.5309V14.5H66.7909V16.32C67.6309 14.9467 68.8576 14.26 70.4709 14.26ZM89.0284 11.5C90.5484 11.5 91.7484 11.92 92.6284 12.76C93.5084 13.6 93.9484 14.7133 93.9484 16.1C93.9484 17.4867 93.5018 18.6133 92.6084 19.48C91.7284 20.3333 90.5351 20.76 89.0284 20.76H85.5484V25.5H83.2884V11.5H89.0284ZM88.9484 18.6C89.8284 18.6 90.4951 18.3733 90.9484 17.92C91.4151 17.4667 91.6484 16.8667 91.6484 16.12C91.6484 15.3733 91.4218 14.78 90.9684 14.34C90.5151 13.8867 89.8418 13.66 88.9484 13.66H85.5484V18.6H88.9484ZM101.14 14.26C102.74 14.26 104.087 14.8067 105.18 15.9C106.287 16.9933 106.84 18.36 106.84 20C106.84 21.64 106.294 23.0067 105.2 24.1C104.107 25.1933 102.754 25.74 101.14 25.74C99.5405 25.74 98.1871 25.1933 97.0805 24.1C95.9871 22.9933 95.4405 21.6267 95.4405 20C95.4405 18.36 95.9938 16.9933 97.1005 15.9C98.2071 14.8067 99.5538 14.26 101.14 14.26ZM103.56 17.44C102.907 16.76 102.1 16.42 101.14 16.42C100.18 16.42 99.3671 16.76 98.7005 17.44C98.0471 18.1067 97.7205 18.96 97.7205 20C97.7205 21.0533 98.0471 21.9133 98.7005 22.58C99.3538 23.2467 100.167 23.58 101.14 23.58C102.114 23.58 102.927 23.2467 103.58 22.58C104.234 21.9133 104.56 21.0533 104.56 20C104.56 18.96 104.227 18.1067 103.56 17.44ZM114.441 25.74C112.815 25.74 111.455 25.1933 110.361 24.1C109.281 23.0067 108.741 21.64 108.741 20C108.741 18.36 109.281 16.9933 110.361 15.9C111.455 14.8067 112.821 14.26 114.461 14.26C115.795 14.26 116.968 14.6467 117.981 15.42C118.995 16.18 119.621 17.2067 119.861 18.5H117.521C117.321 17.82 116.941 17.2933 116.381 16.92C115.821 16.5467 115.181 16.36 114.461 16.36C113.448 16.36 112.621 16.7 111.981 17.38C111.341 18.06 111.021 18.9333 111.021 20C111.021 21.0667 111.341 21.94 111.981 22.62C112.621 23.3 113.441 23.64 114.441 23.64C115.175 23.64 115.815 23.4467 116.361 23.06C116.921 22.6733 117.308 22.1467 117.521 21.48H119.861C119.608 22.8 118.975 23.84 117.961 24.6C116.948 25.36 115.775 25.74 114.441 25.74ZM132.393 25.5H129.473L124.293 20.42V25.5H122.033V10.1H124.293V19.26L129.053 14.5H131.953L126.573 19.72L132.393 25.5ZM138.347 14.26C140.094 14.26 141.48 14.8667 142.507 16.08C143.547 17.28 144.014 18.7933 143.907 20.62H134.967C135.06 21.6067 135.42 22.38 136.047 22.94C136.674 23.4867 137.46 23.76 138.407 23.76C139.074 23.76 139.667 23.62 140.187 23.34C140.707 23.06 141.094 22.6533 141.347 22.12H143.687C143.274 23.3067 142.594 24.2067 141.647 24.82C140.7 25.4333 139.614 25.74 138.387 25.74C136.72 25.74 135.347 25.2067 134.267 24.14C133.2 23.06 132.667 21.6867 132.667 20.02C132.667 18.3533 133.2 16.98 134.267 15.9C135.334 14.8067 136.694 14.26 138.347 14.26ZM138.347 16.22C137.507 16.22 136.8 16.46 136.227 16.94C135.667 17.4067 135.287 18.02 135.087 18.78H141.487C141.314 18.0067 140.947 17.3867 140.387 16.92C139.84 16.4533 139.16 16.22 138.347 16.22ZM154.073 23.1L154.473 24.94C153.58 25.4733 152.533 25.74 151.333 25.74C150.146 25.74 149.18 25.36 148.433 24.6C147.686 23.84 147.313 22.7333 147.313 21.28V16.62H145.273V14.5H147.313V12L149.573 11.5V14.5H154.093V16.62H149.573V21.16C149.573 22.8133 150.293 23.64 151.733 23.64C152.266 23.64 153.046 23.46 154.073 23.1Z" fill="white"/>
<defs>
<linearGradient id="paint0_linear_1885_6302" x1="18.4997" y1="0" x2="18.4997" y2="36.9999" gradientUnits="userSpaceOnUse">
<stop stop-color="#82E60A"/>
<stop offset="1" stop-color="#427900"/>
</linearGradient>
</defs>
</svg>
