<svg width="36" height="27" viewBox="0 0 36 27" fill="none" xmlns="http://www.w3.org/2000/svg">
<path d="M4.5 12C4.5 11.6022 4.65804 11.2206 4.93934 10.9393C5.22064 10.658 5.60218 10.5 6 10.5H12C12.3978 10.5 12.7794 10.658 13.0607 10.9393C13.342 11.2206 13.5 11.6022 13.5 12C13.5 12.3978 13.342 12.7794 13.0607 13.0607C12.7794 13.342 12.3978 13.5 12 13.5H6C5.60218 13.5 5.22064 13.342 4.93934 13.0607C4.65804 12.7794 4.5 12.3978 4.5 12Z" fill="#B9FB6A"/>
<path fill-rule="evenodd" clip-rule="evenodd" d="M6 0C4.4087 0 2.88258 0.632141 1.75736 1.75736C0.632141 2.88258 0 4.4087 0 6L0 21C0 22.5913 0.632141 24.1174 1.75736 25.2426C2.88258 26.3679 4.4087 27 6 27H30C31.5913 27 33.1174 26.3679 34.2426 25.2426C35.3679 24.1174 36 22.5913 36 21V6C36 4.4087 35.3679 2.88258 34.2426 1.75736C33.1174 0.632141 31.5913 0 30 0H6ZM30 3H6C5.20435 3 4.44129 3.31607 3.87868 3.87868C3.31607 4.44129 3 5.20435 3 6V16.5H33V6C33 5.20435 32.6839 4.44129 32.1213 3.87868C31.5587 3.31607 30.7956 3 30 3ZM33 19.5H3V21C3 21.7956 3.31607 22.5587 3.87868 23.1213C4.44129 23.6839 5.20435 24 6 24H30C30.7956 24 31.5587 23.6839 32.1213 23.1213C32.6839 22.5587 33 21.7956 33 21V19.5Z" fill="#B9FB6A"/>
</svg>
