<svg width="24" height="23" viewBox="0 0 24 23" fill="none" xmlns="http://www.w3.org/2000/svg">
<path d="M12 0C18.6276 0 24 5.13078 24 11.4603C24 17.7898 18.6276 22.9206 12 22.9206C9.81381 22.9239 7.66865 22.3538 5.79841 21.2726L2.16001 22.2949C1.95111 22.3536 1.72951 22.3574 1.51851 22.3061C1.30751 22.2547 1.11489 22.15 0.960921 22.0029C0.806947 21.8559 0.697298 21.6719 0.643503 21.4704C0.589707 21.2689 0.593751 21.0573 0.655209 20.8578L1.72561 17.383C0.594074 15.5966 -0.00277493 13.5481 9.69941e-06 11.4603C9.69941e-06 5.13078 5.37241 0 12 0ZM12 2.29206C10.2812 2.29176 8.59375 2.7322 7.114 3.56738C5.63425 4.40256 4.41643 5.60185 3.58772 7.04C2.75901 8.47815 2.34981 10.1024 2.40284 11.7432C2.45587 13.3839 2.9692 14.981 3.88921 16.3676C4.16161 16.7767 4.25521 17.2925 4.10161 17.7887L3.57241 19.5089L5.37361 19.0035C5.89321 18.8568 6.43321 18.9462 6.86161 19.2063C8.1196 19.9671 9.54563 20.4379 11.027 20.5816C12.5083 20.7253 14.0044 20.538 15.3969 20.0344C16.7893 19.5309 18.0401 18.7249 19.0502 17.6801C20.0603 16.6354 20.8022 15.3806 21.2171 14.0149C21.6319 12.6492 21.7085 11.2101 21.4407 9.81129C21.1729 8.41247 20.568 7.09233 19.674 5.95521C18.7799 4.81809 17.6212 3.89517 16.2893 3.2594C14.9574 2.62364 13.489 2.29247 12 2.29206ZM7.80001 9.74126C8.2774 9.74126 8.73523 9.92237 9.0728 10.2448C9.41036 10.5671 9.60001 11.0044 9.60001 11.4603C9.60001 11.9162 9.41036 12.3535 9.0728 12.6759C8.73523 12.9982 8.2774 13.1794 7.80001 13.1794C7.32262 13.1794 6.86478 12.9982 6.52722 12.6759C6.18965 12.3535 6.00001 11.9162 6.00001 11.4603C6.00001 11.0044 6.18965 10.5671 6.52722 10.2448C6.86478 9.92237 7.32262 9.74126 7.80001 9.74126ZM16.2 9.74126C16.6774 9.74126 17.1352 9.92237 17.4728 10.2448C17.8104 10.5671 18 11.0044 18 11.4603C18 11.9162 17.8104 12.3535 17.4728 12.6759C17.1352 12.9982 16.6774 13.1794 16.2 13.1794C15.7226 13.1794 15.2648 12.9982 14.9272 12.6759C14.5896 12.3535 14.4 11.9162 14.4 11.4603C14.4 11.0044 14.5896 10.5671 14.9272 10.2448C15.2648 9.92237 15.7226 9.74126 16.2 9.74126Z" fill="black"/>
</svg>
