<svg width="28" height="26" viewBox="0 0 28 26" fill="none" xmlns="http://www.w3.org/2000/svg">
<path d="M24.1699 24.7503H3.67748C2.90107 24.7503 2.15645 24.4419 1.60744 23.8929C1.05843 23.3439 0.75 22.5992 0.75 21.8228V8.64916C0.75 7.87274 1.05843 7.12813 1.60744 6.57912C2.15645 6.03011 2.90107 5.72168 3.67748 5.72168H24.1699C24.9463 5.72168 25.6909 6.03011 26.2399 6.57912C26.7889 7.12813 27.0973 7.87274 27.0973 8.64916V21.8228C27.0973 22.5992 26.7889 23.3439 26.2399 23.8929C25.6909 24.4419 24.9463 24.7503 24.1699 24.7503Z" stroke="white" stroke-width="1.5"/>
<path d="M20.5092 15.9686C20.3151 15.9686 20.129 15.8915 19.9917 15.7543C19.8545 15.617 19.7773 15.4309 19.7773 15.2368C19.7773 15.0426 19.8545 14.8565 19.9917 14.7192C20.129 14.582 20.3151 14.5049 20.5092 14.5049C20.7033 14.5049 20.8895 14.582 21.0267 14.7192C21.164 14.8565 21.2411 15.0426 21.2411 15.2368C21.2411 15.4309 21.164 15.617 21.0267 15.7543C20.8895 15.8915 20.7033 15.9686 20.5092 15.9686Z" fill="white" stroke="white" stroke-width="1.5" stroke-linecap="round" stroke-linejoin="round"/>
<path d="M22.7061 5.72151V3.67667C22.706 3.22803 22.6028 2.78543 22.4044 2.38304C22.206 1.98065 21.9178 1.62923 21.562 1.35592C21.2063 1.08262 20.7924 0.894741 20.3525 0.806797C19.9126 0.718853 19.4583 0.733197 19.0248 0.84872L2.92366 5.14187C2.30018 5.30802 1.74906 5.67549 1.35597 6.18717C0.962887 6.69884 0.749857 7.32605 0.75 7.97128V8.649" stroke="white" stroke-width="1.5"/>
</svg>
