<svg width="28" height="29" viewBox="0 0 28 29" fill="none" xmlns="http://www.w3.org/2000/svg">
<path d="M25.2 5.8H2.8V2.9H25.2M25.2 20.3H2.8V11.6H25.2M25.2 0H2.8C1.246 0 0 1.2905 0 2.9V20.3C0 21.0691 0.294999 21.8068 0.820101 22.3506C1.3452 22.8945 2.05739 23.2 2.8 23.2H25.2C25.9426 23.2 26.6548 22.8945 27.1799 22.3506C27.705 21.8068 28 21.0691 28 20.3V2.9C28 2.13087 27.705 1.39325 27.1799 0.84939C26.6548 0.305535 25.9426 0 25.2 0ZM7 26.1H9.8V29H7V26.1ZM12.6 26.1H15.4V29H12.6V26.1ZM18.2 26.1H21V29H18.2V26.1Z" fill="white"/>
</svg>
