<svg width="30" height="30" viewBox="0 0 30 30" fill="none" xmlns="http://www.w3.org/2000/svg">
<path d="M13.1944 18.6383C13.1944 20.7849 16.6773 22.5271 20.9722 22.5271C25.2671 22.5271 28.75 20.7849 28.75 18.6383M0.75 10.8606C0.75 13.0073 4.23289 14.7495 8.52778 14.7495C10.2793 14.7495 11.8956 14.4601 13.1944 13.9717M0.75 16.305C0.75 18.4516 4.23289 20.1938 8.52778 20.1938C10.2793 20.1938 11.894 19.9045 13.1944 19.416M20.9722 16.305C16.6773 16.305 13.1944 14.5628 13.1944 12.4162C13.1944 10.2695 16.6773 8.52734 20.9722 8.52734C25.2671 8.52734 28.75 10.2695 28.75 12.4162C28.75 14.5628 25.2671 16.305 20.9722 16.305Z" stroke="white" stroke-width="1.5" stroke-linecap="round" stroke-linejoin="round"/>
<path d="M0.75 4.63965V21.7505C0.75 23.8971 4.23289 25.6393 8.52778 25.6393C10.2793 25.6393 11.894 25.35 13.1944 24.8615M13.1944 24.8615V12.4173M13.1944 24.8615C13.1944 27.0081 16.6773 28.7503 20.9722 28.7503C25.2671 28.7503 28.75 27.0081 28.75 24.8615V12.4173M16.3056 9.30623V4.63965" stroke="white" stroke-width="1.5" stroke-linecap="round" stroke-linejoin="round"/>
<path d="M8.52778 8.52764C4.23289 8.52764 0.75 6.78545 0.75 4.63882C0.75 2.49219 4.23289 0.75 8.52778 0.75C12.8227 0.75 16.3056 2.49219 16.3056 4.63882C16.3056 6.78545 12.8227 8.52764 8.52778 8.52764Z" stroke="white" stroke-width="1.5" stroke-linecap="round" stroke-linejoin="round"/>
</svg>
