<svg width="28" height="29" viewBox="0 0 28 29" fill="none" xmlns="http://www.w3.org/2000/svg">
<path d="M14 0.5C14.6986 0.5 15.1989 0.500176 15.5928 0.526367C15.9821 0.552273 16.232 0.601759 16.4346 0.683594L16.4355 0.68457C16.7348 0.804907 17.0068 0.981652 17.2354 1.20508C17.4638 1.42843 17.6443 1.69388 17.7676 1.98535L17.7686 1.9873C17.8444 2.16441 17.8927 2.37845 17.9209 2.70117L17.9424 3.0625C17.9562 3.54401 18.0933 4.01428 18.3408 4.42871C18.5895 4.84511 18.9415 5.19176 19.3623 5.43652L19.374 5.44238C19.8027 5.67697 20.2839 5.8012 20.7734 5.80371C21.2608 5.80614 21.7413 5.68722 22.1709 5.45898L22.1719 5.45996C22.6553 5.20945 22.9543 5.09937 23.2227 5.06445L23.2217 5.06348C23.873 4.97994 24.5311 5.15317 25.0527 5.54199V5.54297C25.2259 5.67317 25.3938 5.85808 25.6104 6.17285C25.8298 6.49192 26.0798 6.91374 26.4297 7.50488C26.7793 8.09551 27.0282 8.51737 27.2012 8.8623C27.372 9.20309 27.451 9.43632 27.4795 9.64453C27.5205 9.95571 27.4991 10.2721 27.416 10.5752C27.3329 10.8781 27.1902 11.1626 26.9951 11.4121C26.8729 11.5671 26.7041 11.7162 26.4307 11.9023L26.1211 12.1016C25.2873 12.6118 24.7295 13.4989 24.7295 14.5C24.7295 15.439 25.2202 16.2772 25.9697 16.7998L26.1221 16.8994C26.5869 17.1854 26.8312 17.3814 26.9922 17.5869C27.188 17.8366 27.3315 18.1213 27.415 18.4248C27.4983 18.7278 27.5202 19.0443 27.4795 19.3555C27.451 19.5643 27.3719 19.7973 27.2012 20.1377C27.0282 20.4825 26.7794 20.9043 26.4297 21.4951V21.4961C26.0807 22.087 25.8308 22.5081 25.6113 22.8271C25.3945 23.1423 25.2265 23.3277 25.0537 23.457C24.5339 23.8466 23.8749 24.0202 23.2227 23.9355C22.9543 23.9006 22.6553 23.7906 22.1719 23.54C21.7423 23.3119 21.2616 23.1939 20.7744 23.1963C20.285 23.1988 19.8036 23.3232 19.375 23.5576L19.3691 23.5605C18.4916 24.0554 17.9785 24.9663 17.9424 25.9375C17.9208 26.4749 17.8697 26.7767 17.7686 27.0127L17.7676 27.0146C17.6443 27.3061 17.4638 27.5716 17.2354 27.7949C17.0068 28.0183 16.7348 28.1951 16.4355 28.3154L16.4346 28.3164C16.232 28.3982 15.9821 28.4477 15.5928 28.4736C15.1989 28.4998 14.6986 28.5 14 28.5C13.3017 28.5 12.802 28.4998 12.4082 28.4736C12.0188 28.4477 11.769 28.3982 11.5664 28.3164C10.9595 28.071 10.4815 27.6006 10.2334 27.0146L10.2324 27.0127L10.165 26.8203C10.1264 26.6806 10.0989 26.5139 10.0801 26.2988L10.0586 25.9375C10.021 24.9668 9.50948 24.058 8.63379 23.5615V23.5605L8.62695 23.5576L8.46387 23.4746C8.07772 23.2936 7.65507 23.1984 7.22656 23.1963C6.79824 23.1942 6.37512 23.2849 5.9873 23.4619L5.8291 23.54C5.46669 23.7278 5.20802 23.8373 4.98828 23.8945L4.77832 23.9355C4.20682 24.0085 3.63114 23.8852 3.14844 23.5928L2.94727 23.457C2.77415 23.3268 2.60616 23.1419 2.38965 22.8271C2.1702 22.5081 1.92119 22.0863 1.57129 21.4951C1.22167 20.9045 0.972741 20.4826 0.799805 20.1377C0.629437 19.7979 0.549261 19.5652 0.520508 19.3574H0.521484C0.480227 19.0457 0.501704 18.7285 0.584961 18.4248C0.668187 18.1214 0.811345 17.8367 1.00684 17.5869L1.00586 17.5859C1.16868 17.3799 1.41412 17.1841 1.87891 16.8975L1.87988 16.8984C2.71364 16.3882 3.27051 15.5011 3.27051 14.5C3.27051 13.4986 2.71289 12.6121 1.87793 12.1006H1.87891C1.41405 11.8145 1.1698 11.6186 1.00879 11.4131L1.00781 11.4121C0.610324 10.9069 0.435717 10.2705 0.520508 9.64355C0.549137 9.43492 0.62932 9.20225 0.799805 8.8623C0.972744 8.51752 1.22158 8.09569 1.57129 7.50488V7.50391C1.9203 6.91302 2.17018 6.49187 2.38965 6.17285C2.60617 5.85812 2.77373 5.6733 2.94629 5.54395C3.46804 5.15427 4.12644 4.98009 4.77832 5.06348V5.06445C4.97952 5.09063 5.19776 5.15892 5.49805 5.29688L5.8291 5.45996C6.2586 5.68802 6.73937 5.80614 7.22656 5.80371C7.71589 5.80122 8.19742 5.67677 8.62598 5.44238L8.63672 5.43652C9.05788 5.19193 9.41014 4.84522 9.65918 4.42871C9.90698 4.01424 10.0446 3.5442 10.0586 3.0625C10.0802 2.52637 10.1313 2.22326 10.2324 1.9873L10.2334 1.98535C10.3567 1.69389 10.5372 1.42842 10.7656 1.20508C10.9371 1.03743 11.1332 0.896247 11.3467 0.785156L11.5654 0.68457C11.7691 0.602454 12.0199 0.552269 12.4092 0.526367C12.8027 0.500203 13.3018 0.5 14 0.5ZM14 9.65039C11.2759 9.65061 9.0459 11.8101 9.0459 14.5C9.0459 17.1899 11.2759 19.3494 14 19.3496C16.7259 19.3496 18.9551 17.1899 18.9551 14.5C18.9551 11.81 16.7243 9.65039 14 9.65039Z" stroke="white"/>
</svg>
