<svg width="28" height="24" viewBox="0 0 28 24" fill="none" xmlns="http://www.w3.org/2000/svg">
<path d="M26.2656 7.05511L27.1328 6.18111L28 7.05511L27.1328 7.92912L26.2656 7.05511ZM7.86718 8.29134C7.54187 8.29134 7.22989 8.16109 6.99987 7.92925C6.76984 7.69742 6.64062 7.38298 6.64062 7.05511C6.64062 6.72725 6.76984 6.41281 6.99987 6.18097C7.22989 5.94914 7.54187 5.81889 7.86718 5.81889V8.29134ZM21 0L27.1328 6.18111L25.3985 7.92912L19.2656 1.74802L21 0ZM27.1328 7.92912L21 14.1102L19.2656 12.3622L25.3985 6.18111L27.1328 7.92912ZM26.2656 8.29134H7.86718V5.81889H26.2656V8.29134ZM1.73436 16.9449L0.86718 16.0709L0 16.9449L0.86718 17.8189L1.73436 16.9449ZM20.1328 18.1811C20.4581 18.1811 20.7701 18.0509 21.0001 17.819C21.2302 17.5872 21.3594 17.2727 21.3594 16.9449C21.3594 16.617 21.2302 16.3026 21.0001 16.0707C20.7701 15.8389 20.4581 15.7087 20.1328 15.7087V18.1811ZM7 9.88977L0.86718 16.0709L2.60154 17.8189L8.73436 11.6378L7 9.88977ZM0.86718 17.8189L7 24L8.73436 22.252L2.60154 16.0709L0.86718 17.8189ZM1.73436 18.1811H20.1328V15.7087H1.73436V18.1811Z" fill="white"/>
</svg>
