<svg width="25" height="25" viewBox="0 0 25 25" fill="none" xmlns="http://www.w3.org/2000/svg">
<path fill-rule="evenodd" clip-rule="evenodd" d="M1.83 1.83C0 3.6625 0 6.6075 0 12.5C0 18.3925 0 21.3388 1.83 23.1688C3.6625 25 6.6075 25 12.5 25C18.3925 25 21.3388 25 23.1688 23.1688C25 21.34 25 18.3925 25 12.5C25 6.6075 25 3.66125 23.1688 1.83C21.34 0 18.3925 0 12.5 0C6.6075 0 3.66125 0 1.83 1.83ZM12.5 13.75C12.8315 13.75 13.1495 13.6183 13.3839 13.3839C13.6183 13.1495 13.75 12.8315 13.75 12.5C13.75 12.1685 13.6183 11.8505 13.3839 11.6161C13.1495 11.3817 12.8315 11.25 12.5 11.25C12.1685 11.25 11.8505 11.3817 11.6161 11.6161C11.3817 11.8505 11.25 12.1685 11.25 12.5C11.25 12.8315 11.3817 13.1495 11.6161 13.3839C11.8505 13.6183 12.1685 13.75 12.5 13.75ZM8.75 12.5C8.75 12.8315 8.6183 13.1495 8.38388 13.3839C8.14946 13.6183 7.83152 13.75 7.5 13.75C7.16848 13.75 6.85054 13.6183 6.61612 13.3839C6.3817 13.1495 6.25 12.8315 6.25 12.5C6.25 12.1685 6.3817 11.8505 6.61612 11.6161C6.85054 11.3817 7.16848 11.25 7.5 11.25C7.83152 11.25 8.14946 11.3817 8.38388 11.6161C8.6183 11.8505 8.75 12.1685 8.75 12.5ZM17.5 13.75C17.8315 13.75 18.1495 13.6183 18.3839 13.3839C18.6183 13.1495 18.75 12.8315 18.75 12.5C18.75 12.1685 18.6183 11.8505 18.3839 11.6161C18.1495 11.3817 17.8315 11.25 17.5 11.25C17.1685 11.25 16.8505 11.3817 16.6161 11.6161C16.3817 11.8505 16.25 12.1685 16.25 12.5C16.25 12.8315 16.3817 13.1495 16.6161 13.3839C16.8505 13.6183 17.1685 13.75 17.5 13.75Z" fill="#B9FB6A"/>
</svg>
