<svg width="36" height="29" viewBox="0 0 36 29" fill="none" xmlns="http://www.w3.org/2000/svg">
<path d="M29.43 12.4156L28.17 15.8956H30.186C29.916 14.6994 29.664 13.5575 29.43 12.4156ZM29.43 12.4156L28.17 15.8956H30.186C29.916 14.6994 29.664 13.5575 29.43 12.4156ZM30.6 0H5.4C3.96783 0 2.59432 0.572878 1.58162 1.59261C0.568927 2.61234 0 3.99539 0 5.4375V23.5625C0 25.0046 0.568927 26.3877 1.58162 27.4074C2.59432 28.4271 3.96783 29 5.4 29H30.6C32.0322 29 33.4057 28.4271 34.4184 27.4074C35.4311 26.3877 36 25.0046 36 23.5625V5.4375C36 3.99539 35.4311 2.61234 34.4184 1.59261C33.4057 0.572878 32.0322 0 30.6 0ZM9.918 19.285H7.83C7.65 19.285 7.578 19.285 7.542 19.0494C6.858 16.4394 6.192 13.8113 5.508 11.2013C5.49797 11.1319 5.47146 11.066 5.43072 11.0092C5.38998 10.9524 5.33621 10.9064 5.274 10.875C4.58377 10.4876 3.8534 10.1776 3.096 9.95062L2.898 9.80562C2.97592 9.80051 3.05408 9.80051 3.132 9.80562H6.732C6.88335 9.78534 7.03724 9.79705 7.18384 9.84003C7.33044 9.88301 7.46653 9.95631 7.58341 10.0552C7.70029 10.1542 7.79539 10.2766 7.86265 10.4146C7.9299 10.5526 7.96783 10.7033 7.974 10.8569L9 16.0769V16.2037L9.09 15.9862L11.25 9.95062C11.2632 9.88156 11.3024 9.82032 11.3595 9.77976C11.4165 9.7392 11.487 9.72249 11.556 9.73312H13.968C13.968 9.82375 13.968 9.89625 13.878 9.96875L10.152 19.0312C10.1406 19.0914 10.1126 19.1471 10.0712 19.192C10.0298 19.2368 9.97672 19.2691 9.918 19.285ZM13.518 19.285C14.022 16.095 14.544 12.9231 15.048 9.76938H17.514C16.9874 12.9385 16.4774 16.1104 15.984 19.285H13.518ZM23.4 18.3969C22.68 18.9587 21.8214 19.3031 20.916 19.3937C19.7416 19.5185 18.5547 19.3504 17.46 18.9044C17.586 18.1975 17.712 17.4906 17.82 16.7838L18.09 16.9288C19.0048 17.4022 20.0539 17.5431 21.06 17.3275C21.456 17.2369 21.816 17.0737 21.888 16.6206C21.9063 16.4312 21.8637 16.241 21.7664 16.0778C21.6692 15.9147 21.5225 15.7873 21.348 15.7144C20.988 15.4788 20.61 15.3156 20.25 15.08C19.8125 14.8219 19.4076 14.5115 19.044 14.1556C18.6686 13.7102 18.4625 13.1449 18.4625 12.5606C18.4625 11.9764 18.6686 11.4111 19.044 10.9656C19.584 10.3584 20.304 9.93975 21.096 9.76938C22.2852 9.44799 23.5446 9.5114 24.696 9.95062H24.804C24.678 10.6212 24.57 11.2919 24.462 11.9081C23.9997 11.7759 23.5311 11.667 23.058 11.5819C22.5911 11.5358 22.1209 11.5358 21.654 11.5819C21.4847 11.6154 21.3285 11.6971 21.204 11.8175C21.1435 11.8685 21.0948 11.9323 21.0614 12.0043C21.028 12.0764 21.0107 12.1549 21.0107 12.2344C21.0107 12.3139 21.028 12.3924 21.0614 12.4644C21.0948 12.5364 21.1435 12.6002 21.204 12.6512C21.42 12.8482 21.654 13.0174 21.906 13.1588C22.374 13.4488 22.86 13.7025 23.31 14.0106C23.683 14.2363 23.9931 14.5536 24.2113 14.9328C24.4295 15.3119 24.5487 15.7406 24.5577 16.1787C24.5667 16.6169 24.4652 17.0501 24.2627 17.438C24.0603 17.826 23.7635 18.1558 23.4 18.3969ZM30.798 19.2669C30.798 18.85 30.636 18.4513 30.564 18.0525C30.492 17.6537 30.474 17.8531 30.33 17.8531H27.594C27.5373 17.8472 27.4804 17.8624 27.434 17.8958C27.3876 17.9291 27.3549 17.9784 27.342 18.0344C27.216 18.3969 27.09 18.7594 26.946 19.1219C26.9296 19.1587 26.9047 19.1911 26.8734 19.2163C26.8421 19.2415 26.8053 19.2589 26.766 19.2669H24.336L24.426 19.0494L28.026 10.4581C28.0919 10.2583 28.2168 10.0835 28.3841 9.95718C28.5514 9.83084 28.753 9.75899 28.962 9.75125H31.14C31.806 12.9231 32.454 16.095 33.12 19.2669H30.798ZM29.358 12.3975L28.098 15.8775H30.114C29.88 14.6994 29.628 13.5575 29.394 12.4156L29.358 12.3975Z" fill="#B9FB6A"/>
</svg>
