<svg width="38" height="38" viewBox="0 0 38 38" fill="none" xmlns="http://www.w3.org/2000/svg">
<g clip-path="url(#clip0_1236_7808)">
<path d="M16.8887 29.5439C16.9423 29.9985 17.1412 30.4261 17.46 30.7607C17.8364 31.1559 18.3504 31.3916 18.8955 31.418C19.4407 31.4444 19.9748 31.2593 20.3877 30.9023C20.7902 30.5544 21.0449 30.0685 21.1064 29.541L16.8887 29.5439ZM18.998 5.78516C13.8794 5.78531 9.74805 9.90733 9.74805 15.0352V22.0693L9.72754 22.1172L7.75195 26.666H30.2578L28.2695 22.1191L28.248 22.0713V15.0605L28.2422 14.708L28.2158 14.2598C28.0319 12.03 27.0437 9.93696 25.4268 8.37598C23.7018 6.71084 21.3966 5.78147 18.999 5.78516H18.998ZM4.74805 12.8125C5.11224 12.8126 5.46337 12.9506 5.72949 13.1992C5.99551 13.4478 6.15769 13.7882 6.18262 14.1514C6.20744 14.5147 6.09312 14.8747 5.86328 15.1572C5.63353 15.4396 5.30496 15.6241 4.94434 15.6738L4.92676 15.6758L4.76562 15.6865L4.75684 15.6875H1.58203C1.21782 15.6874 0.866716 15.5484 0.600586 15.2998C0.334601 15.0512 0.172278 14.7109 0.147461 14.3477C0.122691 13.9844 0.237059 13.6252 0.466797 13.3428C0.696553 13.0603 1.02509 12.8759 1.38574 12.8262L1.39453 12.8242H1.40332L1.56445 12.8125H4.74805ZM36.415 12.8125L36.5508 12.8184C36.8656 12.8483 37.1636 12.9816 37.3965 13.1992C37.6624 13.4477 37.8237 13.7883 37.8486 14.1514C37.8735 14.5147 37.7591 14.8747 37.5293 15.1572C37.2995 15.4395 36.971 15.6242 36.6104 15.6738L36.6025 15.6748L36.5938 15.6758L36.4316 15.6865L36.4238 15.6875H33.248C32.8839 15.6873 32.5337 15.5484 32.2676 15.2998C32.0015 15.0512 31.8393 14.711 31.8145 14.3477C31.7897 13.9843 31.904 13.6253 32.1338 13.3428C32.3636 13.0603 32.692 12.8758 33.0527 12.8262L33.0615 12.8242H33.0693L33.2314 12.8125H36.415ZM35.0352 3.32715C35.4125 3.38112 35.7527 3.58276 35.9814 3.8877C36.188 4.16306 36.2897 4.50321 36.2666 4.84668C36.2434 5.19027 36.0973 5.5146 35.8555 5.75977L35.8486 5.7666L35.8408 5.77246L35.708 5.88867L35.7012 5.89453L35.6943 5.89941L32.5273 8.27344L32.5283 8.27441C32.2381 8.49312 31.8751 8.59422 31.5137 8.55664C31.1525 8.51899 30.819 8.34574 30.5801 8.07227C30.3411 7.79857 30.2141 7.44421 30.2256 7.08105C30.2371 6.71792 30.3858 6.37228 30.6416 6.11426L30.6484 6.10742L30.6553 6.10156L30.7881 5.98633L30.7949 5.98047L30.8027 5.97461L33.9688 3.59961C34.2737 3.37086 34.6577 3.27323 35.0352 3.32715ZM2.96191 3.32715C3.14866 3.30049 3.33874 3.31063 3.52148 3.35742C3.70427 3.40425 3.87637 3.48643 4.02734 3.59961L7.19434 5.97461C7.34536 6.08787 7.47218 6.23014 7.56836 6.39258C7.66454 6.55501 7.72819 6.735 7.75488 6.92188C7.78151 7.10856 7.77138 7.29876 7.72461 7.48145C7.67776 7.66431 7.59471 7.83629 7.48145 7.9873C7.3683 8.13814 7.22666 8.2652 7.06445 8.36133C6.90207 8.45747 6.72197 8.52114 6.53516 8.54785C6.34828 8.57455 6.15748 8.56443 5.97461 8.51758C5.79183 8.47072 5.61971 8.38763 5.46875 8.27441L2.30273 5.89941C2.15174 5.78616 2.0239 5.64484 1.92773 5.48242C1.83156 5.32 1.76889 5.13999 1.74219 4.95312C1.71551 4.7664 1.72571 4.57628 1.77246 4.39355C1.81927 4.21085 1.90154 4.03862 2.01465 3.8877C2.12791 3.73668 2.27018 3.60888 2.43262 3.5127C2.59503 3.41655 2.77507 3.35384 2.96191 3.32715ZM31.123 21.4688L33.2871 26.4189L33.3389 26.5479C33.4493 26.851 33.493 27.1755 33.4658 27.498C33.4347 27.8666 33.3119 28.2217 33.1094 28.5312C32.9068 28.8407 32.6309 29.0954 32.3057 29.2715C31.9802 29.4476 31.6152 29.5399 31.2451 29.54L23.9922 29.5439C23.9333 30.755 23.4359 31.9067 22.5879 32.7812C21.6818 33.7157 20.4466 34.2604 19.1455 34.2988C17.8446 34.3371 16.5797 33.8666 15.6201 32.9873C14.6605 32.1079 14.0819 30.8883 14.0068 29.5889L14.0059 29.582V29.54H6.7666V29.5391C6.39712 29.539 6.03316 29.4479 5.70801 29.2725C5.3828 29.0969 5.10615 28.8431 4.90332 28.5342C4.70049 28.2252 4.57766 27.8702 4.5459 27.502C4.51421 27.1339 4.57484 26.7638 4.72168 26.4248V26.4238L6.87305 21.4707V15.0352C6.87305 8.31828 12.2926 2.91031 18.998 2.91016L19.5869 2.92383C22.5205 3.0627 25.3119 4.26435 27.4326 6.31543C29.5533 8.36667 30.8475 11.1164 31.084 14.0439L31.1172 14.6309V14.6357L31.123 15.0312V21.4688Z" fill="#76D208" stroke="#76D208" stroke-width="0.5"/>
</g>
<defs>
<clipPath id="clip0_1236_7808">
<rect width="38" height="38" fill="white"/>
</clipPath>
</defs>
</svg>
