<svg width="40" height="40" viewBox="0 0 40 40" fill="none" xmlns="http://www.w3.org/2000/svg">
<mask id="path-1-outside-1_1236_7815" maskUnits="userSpaceOnUse" x="4.39453" y="0.996094" width="32" height="39" fill="black">
<rect fill="white" x="4.39453" y="0.996094" width="32" height="39"/>
<path d="M26.4495 24.7542C26.4482 25.0239 26.3407 25.2822 26.1502 25.4731C25.9598 25.6641 25.7017 25.7722 25.432 25.7742H14.5645C14.294 25.7742 14.0346 25.6667 13.8433 25.4755C13.652 25.2842 13.5445 25.0247 13.5445 24.7542C13.5445 24.4837 13.652 24.2242 13.8433 24.033C14.0346 23.8417 14.294 23.7342 14.5645 23.7342H25.432C25.7022 23.7355 25.9608 23.8434 26.1518 24.0344C26.3428 24.2254 26.4507 24.4841 26.452 24.7542M25.4345 18.3017H14.5645C14.3031 18.3147 14.0566 18.4276 13.8761 18.6173C13.6957 18.8069 13.595 19.0587 13.595 19.3205C13.595 19.5822 13.6957 19.834 13.8761 20.0236C14.0566 20.2133 14.3031 20.3262 14.5645 20.3392H25.432C25.6935 20.3262 25.94 20.2133 26.1204 20.0236C26.3009 19.834 26.4016 19.5822 26.4016 19.3205C26.4016 19.0587 26.3009 18.8069 26.1204 18.6173C25.94 18.4276 25.696 18.3147 25.4345 18.3017ZM34.602 7.09421V35.6217C34.6024 35.9338 34.5412 36.2429 34.422 36.5313C34.3028 36.8198 34.1279 37.0819 33.9073 37.3027C33.6867 37.5235 33.4248 37.6987 33.1365 37.8182C32.8482 37.9377 32.5391 37.9992 32.227 37.9992H7.76953C7.13964 37.9992 6.53555 37.749 6.09015 37.3036C5.64476 36.8582 5.39453 36.2541 5.39453 35.6242V7.0917C5.3942 6.7796 5.45539 6.4705 5.5746 6.18206C5.69381 5.89363 5.8687 5.63151 6.08927 5.41071C6.30984 5.18991 6.57177 5.01474 6.86008 4.89523C7.14839 4.77572 7.45743 4.7142 7.76953 4.71421H14.082C14.8138 3.86161 15.7213 3.1773 16.7422 2.70814C17.7632 2.23899 18.8735 1.99609 19.997 1.99609C21.1206 1.99609 22.2309 2.23899 23.2519 2.70814C24.2728 3.1773 25.1802 3.86161 25.912 4.71421H32.222C32.5341 4.71388 32.8432 4.77507 33.1317 4.89427C33.4201 5.01348 33.6822 5.18837 33.903 5.40894C34.1238 5.62951 34.299 5.89144 34.4185 6.17975C34.538 6.46807 34.5995 6.7771 34.5995 7.0892M14.2245 9.80671V10.1442H25.7695V9.80671C25.7855 9.03838 25.648 8.27458 25.365 7.56008C25.082 6.84558 24.6593 6.19475 24.1216 5.64572C23.5839 5.09668 22.942 4.6605 22.2335 4.36272C21.525 4.06494 20.7643 3.91156 19.9958 3.91156C19.2273 3.91156 18.4665 4.06494 17.7581 4.36272C17.0496 4.6605 16.4077 5.09668 15.87 5.64572C15.3323 6.19475 14.9095 6.84558 14.6265 7.56008C14.3436 8.27458 14.2085 9.03838 14.2245 9.80671ZM32.5595 7.0892C32.5595 7.04456 32.5507 7.00034 32.5337 6.95909C32.5166 6.91784 32.4915 6.88036 32.4599 6.84879C32.4284 6.81722 32.3909 6.79217 32.3496 6.77509C32.3084 6.758 32.2642 6.74921 32.2195 6.74921H27.182C27.5945 7.71421 27.807 8.75421 27.807 9.80671V11.1642C27.8057 11.4343 27.6978 11.693 27.5068 11.884C27.3158 12.075 27.0571 12.1829 26.787 12.1842H13.207C12.9369 12.1829 12.6782 12.075 12.4872 11.884C12.2962 11.693 12.1883 11.4343 12.187 11.1642V9.80671C12.187 8.75671 12.3995 7.71421 12.812 6.74921H7.76953C7.72488 6.74921 7.68067 6.758 7.63942 6.77509C7.59817 6.79217 7.56069 6.81722 7.52912 6.84879C7.49754 6.88036 7.4725 6.91784 7.45541 6.95909C7.43833 7.00034 7.42953 7.04456 7.42953 7.0892V35.6167C7.42953 35.7069 7.46535 35.7934 7.52912 35.8571C7.59288 35.9209 7.67936 35.9567 7.76953 35.9567H32.222C32.3122 35.9567 32.3987 35.9209 32.4625 35.8571C32.5262 35.7934 32.562 35.7069 32.562 35.6167L32.5595 7.0892Z"/>
</mask>
<path d="M26.4495 24.7542C26.4482 25.0239 26.3407 25.2822 26.1502 25.4731C25.9598 25.6641 25.7017 25.7722 25.432 25.7742H14.5645C14.294 25.7742 14.0346 25.6667 13.8433 25.4755C13.652 25.2842 13.5445 25.0247 13.5445 24.7542C13.5445 24.4837 13.652 24.2242 13.8433 24.033C14.0346 23.8417 14.294 23.7342 14.5645 23.7342H25.432C25.7022 23.7355 25.9608 23.8434 26.1518 24.0344C26.3428 24.2254 26.4507 24.4841 26.452 24.7542M25.4345 18.3017H14.5645C14.3031 18.3147 14.0566 18.4276 13.8761 18.6173C13.6957 18.8069 13.595 19.0587 13.595 19.3205C13.595 19.5822 13.6957 19.834 13.8761 20.0236C14.0566 20.2133 14.3031 20.3262 14.5645 20.3392H25.432C25.6935 20.3262 25.94 20.2133 26.1204 20.0236C26.3009 19.834 26.4016 19.5822 26.4016 19.3205C26.4016 19.0587 26.3009 18.8069 26.1204 18.6173C25.94 18.4276 25.696 18.3147 25.4345 18.3017ZM34.602 7.09421V35.6217C34.6024 35.9338 34.5412 36.2429 34.422 36.5313C34.3028 36.8198 34.1279 37.0819 33.9073 37.3027C33.6867 37.5235 33.4248 37.6987 33.1365 37.8182C32.8482 37.9377 32.5391 37.9992 32.227 37.9992H7.76953C7.13964 37.9992 6.53555 37.749 6.09015 37.3036C5.64476 36.8582 5.39453 36.2541 5.39453 35.6242V7.0917C5.3942 6.7796 5.45539 6.4705 5.5746 6.18206C5.69381 5.89363 5.8687 5.63151 6.08927 5.41071C6.30984 5.18991 6.57177 5.01474 6.86008 4.89523C7.14839 4.77572 7.45743 4.7142 7.76953 4.71421H14.082C14.8138 3.86161 15.7213 3.1773 16.7422 2.70814C17.7632 2.23899 18.8735 1.99609 19.997 1.99609C21.1206 1.99609 22.2309 2.23899 23.2519 2.70814C24.2728 3.1773 25.1802 3.86161 25.912 4.71421H32.222C32.5341 4.71388 32.8432 4.77507 33.1317 4.89427C33.4201 5.01348 33.6822 5.18837 33.903 5.40894C34.1238 5.62951 34.299 5.89144 34.4185 6.17975C34.538 6.46807 34.5995 6.7771 34.5995 7.0892M14.2245 9.80671V10.1442H25.7695V9.80671C25.7855 9.03838 25.648 8.27458 25.365 7.56008C25.082 6.84558 24.6593 6.19475 24.1216 5.64572C23.5839 5.09668 22.942 4.6605 22.2335 4.36272C21.525 4.06494 20.7643 3.91156 19.9958 3.91156C19.2273 3.91156 18.4665 4.06494 17.7581 4.36272C17.0496 4.6605 16.4077 5.09668 15.87 5.64572C15.3323 6.19475 14.9095 6.84558 14.6265 7.56008C14.3436 8.27458 14.2085 9.03838 14.2245 9.80671ZM32.5595 7.0892C32.5595 7.04456 32.5507 7.00034 32.5337 6.95909C32.5166 6.91784 32.4915 6.88036 32.4599 6.84879C32.4284 6.81722 32.3909 6.79217 32.3496 6.77509C32.3084 6.758 32.2642 6.74921 32.2195 6.74921H27.182C27.5945 7.71421 27.807 8.75421 27.807 9.80671V11.1642C27.8057 11.4343 27.6978 11.693 27.5068 11.884C27.3158 12.075 27.0571 12.1829 26.787 12.1842H13.207C12.9369 12.1829 12.6782 12.075 12.4872 11.884C12.2962 11.693 12.1883 11.4343 12.187 11.1642V9.80671C12.187 8.75671 12.3995 7.71421 12.812 6.74921H7.76953C7.72488 6.74921 7.68067 6.758 7.63942 6.77509C7.59817 6.79217 7.56069 6.81722 7.52912 6.84879C7.49754 6.88036 7.4725 6.91784 7.45541 6.95909C7.43833 7.00034 7.42953 7.04456 7.42953 7.0892V35.6167C7.42953 35.7069 7.46535 35.7934 7.52912 35.8571C7.59288 35.9209 7.67936 35.9567 7.76953 35.9567H32.222C32.3122 35.9567 32.3987 35.9209 32.4625 35.8571C32.5262 35.7934 32.562 35.7069 32.562 35.6167L32.5595 7.0892Z" fill="#76D208"/>
<path d="M25.432 25.7742L25.432 26.7742L25.4393 26.7742L25.432 25.7742ZM25.432 23.7342L25.4369 22.7342H25.432V23.7342ZM25.4345 18.3017L25.484 17.3029L25.4593 17.3017H25.4345V18.3017ZM14.5645 18.3017V17.3017H14.5398L14.515 17.3029L14.5645 18.3017ZM14.5645 20.3392L14.515 21.338L14.5398 21.3392H14.5645V20.3392ZM25.432 20.3392V21.3392H25.4568L25.4815 21.338L25.432 20.3392ZM34.602 35.6217H33.602L33.602 35.6228L34.602 35.6217ZM32.227 37.9992V36.9992V36.9992V37.9992ZM7.76953 37.9992V36.9992V37.9992ZM5.39453 35.6242H4.39453H5.39453ZM5.39453 7.0917H6.39453L6.39453 7.09065L5.39453 7.0917ZM7.76953 4.71421L7.76953 5.71421H7.76953V4.71421ZM14.082 4.71421V5.71421H14.5416L14.8409 5.36551L14.082 4.71421ZM19.997 1.99609L19.997 2.99609L19.997 1.99609ZM25.912 4.71421L25.1532 5.36551L25.4525 5.71421H25.912V4.71421ZM32.222 4.71421V5.71421L32.2231 5.7142L32.222 4.71421ZM14.2245 9.80671H15.2245V9.7963L15.2243 9.7859L14.2245 9.80671ZM14.2245 10.1442H13.2245V11.1442H14.2245V10.1442ZM25.7695 10.1442V11.1442H26.7695V10.1442H25.7695ZM25.7695 9.80671L24.7697 9.7859L24.7695 9.7963V9.80671H25.7695ZM19.9958 3.91156V2.91156V3.91156ZM32.5595 7.0892L31.5595 7.0892V7.08929L32.5595 7.0892ZM27.182 6.74921V5.74921H25.667L26.2625 7.14226L27.182 6.74921ZM27.807 11.1642L28.807 11.1691V11.1642H27.807ZM26.787 12.1842L26.787 13.1842L26.7919 13.1842L26.787 12.1842ZM13.207 12.1842L13.2022 13.1842H13.207V12.1842ZM12.187 11.1642H11.187L11.187 11.1691L12.187 11.1642ZM12.812 6.74921L13.7315 7.14226L14.327 5.74921H12.812V6.74921ZM7.76953 6.74921V7.74921V6.74921ZM7.42953 35.6167H6.42953H7.42953ZM7.76953 35.9567V36.9567V35.9567ZM32.562 35.6167H33.562V35.6166L32.562 35.6167ZM26.4495 24.7542L25.4495 24.7494C25.4495 24.7559 25.4469 24.7622 25.4422 24.7669L26.1502 25.4731L26.8582 26.1794C27.2345 25.8022 27.4469 25.2919 27.4495 24.7591L26.4495 24.7542ZM26.1502 25.4731L25.4422 24.7669C25.4376 24.7715 25.4313 24.7742 25.4247 24.7742L25.432 25.7742L25.4393 26.7742C25.9721 26.7703 26.4819 26.5566 26.8582 26.1794L26.1502 25.4731ZM25.432 25.7742V24.7742H14.5645V25.7742V26.7742H25.432V25.7742ZM14.5645 25.7742V24.7742C14.5592 24.7742 14.5541 24.7721 14.5504 24.7683L13.8433 25.4755L13.1362 26.1826C13.515 26.5614 14.0288 26.7742 14.5645 26.7742V25.7742ZM13.8433 25.4755L14.5504 24.7683C14.5466 24.7646 14.5445 24.7595 14.5445 24.7542H13.5445H12.5445C12.5445 25.2899 12.7574 25.8037 13.1362 26.1826L13.8433 25.4755ZM13.5445 24.7542H14.5445C14.5445 24.7489 14.5466 24.7438 14.5504 24.7401L13.8433 24.033L13.1362 23.3258C12.7574 23.7047 12.5445 24.2185 12.5445 24.7542H13.5445ZM13.8433 24.033L14.5504 24.7401C14.5541 24.7363 14.5592 24.7342 14.5645 24.7342V23.7342V22.7342C14.0288 22.7342 13.515 22.947 13.1362 23.3258L13.8433 24.033ZM14.5645 23.7342V24.7342H25.432V23.7342V22.7342H14.5645V23.7342ZM25.432 23.7342L25.4272 24.7342C25.4338 24.7342 25.4401 24.7369 25.4447 24.7415L26.1518 24.0344L26.8589 23.3273C26.4816 22.95 25.9705 22.7368 25.4369 22.7342L25.432 23.7342ZM26.1518 24.0344L25.4447 24.7415C25.4494 24.7462 25.452 24.7525 25.452 24.7591L26.452 24.7542L27.452 24.7493C27.4494 24.2157 27.2363 23.7046 26.8589 23.3273L26.1518 24.0344ZM25.4345 18.3017V17.3017H14.5645V18.3017V19.3017H25.4345V18.3017ZM14.5645 18.3017L14.515 17.3029C13.9972 17.3286 13.5091 17.5523 13.1517 17.9279L13.8761 18.6173L14.6005 19.3067C14.6041 19.3029 14.6089 19.3007 14.614 19.3005L14.5645 18.3017ZM13.8761 18.6173L13.1517 17.9279C12.7943 18.3034 12.595 18.802 12.595 19.3205H13.595H14.595C14.595 19.3153 14.597 19.3104 14.6005 19.3067L13.8761 18.6173ZM13.595 19.3205H12.595C12.595 19.8389 12.7943 20.3375 13.1517 20.713L13.8761 20.0236L14.6005 19.3342C14.597 19.3305 14.595 19.3256 14.595 19.3205H13.595ZM13.8761 20.0236L13.1517 20.713C13.5091 21.0886 13.9972 21.3123 14.515 21.338L14.5645 20.3392L14.614 19.3404C14.6089 19.3402 14.6041 19.338 14.6005 19.3342L13.8761 20.0236ZM14.5645 20.3392V21.3392H25.432V20.3392V19.3392H14.5645V20.3392ZM25.432 20.3392L25.4815 21.338C25.9993 21.3123 26.4874 21.0886 26.8448 20.713L26.1204 20.0236L25.396 19.3342C25.3925 19.338 25.3877 19.3402 25.3825 19.3404L25.432 20.3392ZM26.1204 20.0236L26.8448 20.713C27.2022 20.3375 27.4016 19.8389 27.4016 19.3205H26.4016H25.4016C25.4016 19.3256 25.3996 19.3305 25.396 19.3342L26.1204 20.0236ZM26.4016 19.3205H27.4016C27.4016 18.802 27.2022 18.3034 26.8448 17.9279L26.1204 18.6173L25.396 19.3067C25.3996 19.3104 25.4016 19.3153 25.4016 19.3205H26.4016ZM26.1204 18.6173L26.8448 17.9279C26.4894 17.5545 26.0047 17.3287 25.484 17.3029L25.4345 18.3017L25.385 19.3005C25.3871 19.3006 25.3883 19.301 25.3893 19.3014C25.3904 19.3019 25.3928 19.3032 25.396 19.3067L26.1204 18.6173ZM34.602 7.09421H33.602V35.6217H34.602H35.602V7.09421H34.602ZM34.602 35.6217L33.602 35.6228C33.6022 35.8034 33.5668 35.9824 33.4978 36.1494L34.422 36.5313L35.3461 36.9133C35.5155 36.5034 35.6025 36.0642 35.602 35.6207L34.602 35.6217ZM34.422 36.5313L33.4978 36.1494C33.4288 36.3164 33.3275 36.4681 33.1998 36.596L33.9073 37.3027L34.6148 38.0094C34.9282 37.6957 35.1767 37.3232 35.3461 36.9133L34.422 36.5313ZM33.9073 37.3027L33.1998 36.596C33.0721 36.7238 32.9205 36.8252 32.7536 36.8944L33.1365 37.8182L33.5194 38.742C33.9291 38.5721 34.3013 38.3232 34.6148 38.0094L33.9073 37.3027ZM33.1365 37.8182L32.7536 36.8944C32.5866 36.9636 32.4077 36.9992 32.227 36.9992V37.9992L32.227 38.9992C32.6705 38.9992 33.1097 38.9118 33.5194 38.742L33.1365 37.8182ZM32.227 37.9992V36.9992H7.76953V37.9992V38.9992H32.227V37.9992ZM7.76953 37.9992V36.9992C7.40486 36.9992 7.05512 36.8543 6.79726 36.5965L6.09015 37.3036L5.38305 38.0107C6.01598 38.6436 6.87443 38.9992 7.76953 38.9992V37.9992ZM6.09015 37.3036L6.79726 36.5965C6.5394 36.3386 6.39453 35.9889 6.39453 35.6242H5.39453H4.39453C4.39453 36.5193 4.75011 37.3778 5.38305 38.0107L6.09015 37.3036ZM5.39453 35.6242H6.39453V7.0917H5.39453H4.39453V35.6242H5.39453ZM5.39453 7.0917L6.39453 7.09065C6.39434 6.90996 6.42977 6.73101 6.49878 6.56402L5.5746 6.18206L4.65042 5.80011C4.48102 6.20999 4.39407 6.64925 4.39453 7.09276L5.39453 7.0917ZM5.5746 6.18206L6.49878 6.56402C6.5678 6.39703 6.66905 6.24528 6.79675 6.11744L6.08927 5.41071L5.38179 4.70398C5.06835 5.01775 4.81982 5.39023 4.65042 5.80011L5.5746 6.18206ZM6.08927 5.41071L6.79675 6.11744C6.92445 5.98961 7.07609 5.8882 7.24301 5.81901L6.86008 4.89523L6.47716 3.97145C6.06745 4.14128 5.69523 4.3902 5.38179 4.70398L6.08927 5.41071ZM6.86008 4.89523L7.24301 5.81901C7.40992 5.74982 7.58884 5.71421 7.76953 5.71421L7.76953 4.71421L7.76953 3.71421C7.32602 3.7142 6.88686 3.80162 6.47716 3.97145L6.86008 4.89523ZM7.76953 4.71421V5.71421H14.082V4.71421V3.71421H7.76953V4.71421ZM14.082 4.71421L14.8409 5.36551C15.4788 4.62229 16.2698 4.02576 17.1598 3.6168L16.7422 2.70814L16.3247 1.79949C15.1727 2.32883 14.1489 3.10093 13.3232 4.0629L14.082 4.71421ZM16.7422 2.70814L17.1598 3.6168C18.0497 3.20783 19.0176 2.99609 19.997 2.99609V1.99609V0.996094C18.7293 0.996094 17.4766 1.27015 16.3247 1.79949L16.7422 2.70814ZM19.997 1.99609L19.997 2.99609C20.9765 2.99609 21.9443 3.20783 22.8343 3.6168L23.2519 2.70814L23.6694 1.79949C22.5175 1.27015 21.2648 0.996094 19.997 0.996094V1.99609ZM23.2519 2.70814L22.8343 3.6168C23.7243 4.02576 24.5153 4.62229 25.1532 5.36551L25.912 4.71421L26.6709 4.0629C25.8452 3.10093 24.8213 2.32883 23.6694 1.79949L23.2519 2.70814ZM25.912 4.71421V5.71421H32.222V4.71421V3.71421H25.912V4.71421ZM32.222 4.71421L32.2231 5.7142C32.4038 5.71401 32.5827 5.74944 32.7497 5.81845L33.1317 4.89427L33.5136 3.97009C33.1037 3.80069 32.6645 3.71374 32.221 3.71421L32.222 4.71421ZM33.1317 4.89427L32.7497 5.81845C32.9167 5.88747 33.0685 5.98872 33.1963 6.11642L33.903 5.40894L34.6098 4.70146C34.296 4.38802 33.9235 4.13949 33.5136 3.97009L33.1317 4.89427ZM33.903 5.40894L33.1963 6.11642C33.3241 6.24412 33.4255 6.39576 33.4947 6.56268L34.4185 6.17975L35.3423 5.79683C35.1725 5.38712 34.9235 5.01491 34.6098 4.70146L33.903 5.40894ZM34.4185 6.17975L33.4947 6.56268C33.5639 6.7296 33.5995 6.90852 33.5995 7.0892L34.5995 7.0892L35.5995 7.08921C35.5995 6.64569 35.5121 6.20653 35.3423 5.79683L34.4185 6.17975ZM14.2245 9.80671H13.2245V10.1442H14.2245H15.2245V9.80671H14.2245ZM14.2245 10.1442V11.1442H25.7695V10.1442V9.14421H14.2245V10.1442ZM25.7695 10.1442H26.7695V9.80671H25.7695H24.7695V10.1442H25.7695ZM25.7695 9.80671L26.7693 9.82751C26.7881 8.92614 26.6267 8.03009 26.2948 7.19186L25.365 7.56008L24.4353 7.9283C24.6693 8.51908 24.783 9.15061 24.7697 9.7859L25.7695 9.80671ZM25.365 7.56008L26.2948 7.19186C25.9628 6.35364 25.4668 5.59011 24.836 4.946L24.1216 5.64572L23.4072 6.34543C23.8518 6.79939 24.2013 7.33753 24.4353 7.9283L25.365 7.56008ZM24.1216 5.64572L24.836 4.946C24.2052 4.3019 23.4521 3.79019 22.621 3.44084L22.2335 4.36272L21.846 5.2846C22.4318 5.53081 22.9625 5.89147 23.4072 6.34543L24.1216 5.64572ZM22.2335 4.36272L22.621 3.44084C21.7899 3.0915 20.8974 2.91156 19.9958 2.91156V3.91156V4.91156C20.6312 4.91156 21.2602 5.03838 21.846 5.2846L22.2335 4.36272ZM19.9958 3.91156V2.91156C19.0942 2.91156 18.2017 3.0915 17.3706 3.44084L17.7581 4.36272L18.1455 5.2846C18.7313 5.03838 19.3604 4.91156 19.9958 4.91156V3.91156ZM17.7581 4.36272L17.3706 3.44084C16.5394 3.79019 15.7864 4.3019 15.1556 4.946L15.87 5.64572L16.5844 6.34543C17.029 5.89147 17.5598 5.53081 18.1455 5.2846L17.7581 4.36272ZM15.87 5.64572L15.1556 4.946C14.5247 5.59011 14.0288 6.35364 13.6968 7.19186L14.6265 7.56008L15.5563 7.9283C15.7903 7.33753 16.1398 6.79939 16.5844 6.34543L15.87 5.64572ZM14.6265 7.56008L13.6968 7.19186C13.364 8.03211 13.206 8.92833 13.2247 9.82751L14.2245 9.80671L15.2243 9.7859C15.2111 9.14842 15.3231 8.51705 15.5563 7.9283L14.6265 7.56008ZM32.5595 7.0892H33.5595C33.5595 6.91324 33.5249 6.73899 33.4575 6.57641L32.5337 6.95909L31.6098 7.34178C31.5766 7.26169 31.5595 7.17587 31.5595 7.0892H32.5595ZM32.5337 6.95909L33.4575 6.57641C33.3902 6.41381 33.2915 6.26609 33.1671 6.14168L32.4599 6.84879L31.7528 7.5559C31.6916 7.49463 31.643 7.42188 31.6098 7.34178L32.5337 6.95909ZM32.4599 6.84879L33.1671 6.14168C33.0426 6.01727 32.8949 5.91856 32.7323 5.85121L32.3496 6.77509L31.967 7.69897C31.8869 7.66579 31.8141 7.61717 31.7528 7.5559L32.4599 6.84879ZM32.3496 6.77509L32.7323 5.85121C32.5697 5.78386 32.3955 5.74921 32.2195 5.74921V6.74921V7.74921C32.1329 7.74921 32.047 7.73214 31.967 7.69897L32.3496 6.77509ZM32.2195 6.74921V5.74921H27.182V6.74921V7.74921H32.2195V6.74921ZM27.182 6.74921L26.2625 7.14226C26.6217 7.98257 26.807 8.88882 26.807 9.80671H27.807H28.807C28.807 8.61959 28.5673 7.44584 28.1015 6.35615L27.182 6.74921ZM27.807 9.80671H26.807V11.1642H27.807H28.807V9.80671H27.807ZM27.807 11.1642L26.807 11.1593C26.807 11.1659 26.8044 11.1722 26.7997 11.1769L27.5068 11.884L28.2139 12.5911C28.5913 12.2138 28.8044 11.7027 28.807 11.1691L27.807 11.1642ZM27.5068 11.884L26.7997 11.1769C26.7951 11.1816 26.7888 11.1842 26.7822 11.1842L26.787 12.1842L26.7919 13.1842C27.3255 13.1816 27.8366 12.9685 28.2139 12.5911L27.5068 11.884ZM26.787 12.1842V11.1842H13.207V12.1842V13.1842H26.787V12.1842ZM13.207 12.1842L13.2119 11.1842C13.2053 11.1842 13.199 11.1816 13.1943 11.1769L12.4872 11.884L11.7801 12.5911C12.1575 12.9685 12.6685 13.1816 13.2022 13.1842L13.207 12.1842ZM12.4872 11.884L13.1943 11.1769C13.1897 11.1722 13.1871 11.1659 13.187 11.1593L12.187 11.1642L11.187 11.1691C11.1896 11.7027 11.4028 12.2138 11.7801 12.5911L12.4872 11.884ZM12.187 11.1642H13.187V9.80671H12.187H11.187V11.1642H12.187ZM12.187 9.80671H13.187C13.187 8.89116 13.3724 7.98242 13.7315 7.14226L12.812 6.74921L11.8925 6.35615C11.4267 7.44599 11.187 8.62225 11.187 9.80671H12.187ZM12.812 6.74921V5.74921H7.76953V6.74921V7.74921H12.812V6.74921ZM7.76953 6.74921V5.74921C7.59356 5.74921 7.41931 5.78387 7.25674 5.85121L7.63942 6.77509L8.0221 7.69897C7.94203 7.73213 7.85621 7.74921 7.76953 7.74921V6.74921ZM7.63942 6.77509L7.25674 5.85121C7.09416 5.91855 6.94644 6.01725 6.82201 6.14168L7.52912 6.84879L8.23622 7.5559C8.17494 7.61718 8.10218 7.6658 8.0221 7.69897L7.63942 6.77509ZM7.52912 6.84879L6.82201 6.14168C6.69758 6.26612 6.59887 6.41384 6.53153 6.57641L7.45541 6.95909L8.37929 7.34178C8.34613 7.42185 8.29751 7.49461 8.23622 7.5559L7.52912 6.84879ZM7.45541 6.95909L6.53153 6.57641C6.4642 6.73898 6.42953 6.91322 6.42953 7.0892H7.42953H8.42953C8.42953 7.17589 8.41246 7.26171 8.37929 7.34178L7.45541 6.95909ZM7.42953 7.0892H6.42953V35.6167H7.42953H8.42953V7.0892H7.42953ZM7.42953 35.6167H6.42953C6.42953 35.9721 6.57071 36.3129 6.82201 36.5642L7.52912 35.8571L8.23622 35.15C8.36 35.2738 8.42953 35.4417 8.42953 35.6167H7.42953ZM7.52912 35.8571L6.82201 36.5642C7.0733 36.8155 7.41413 36.9567 7.76953 36.9567V35.9567V34.9567C7.94459 34.9567 8.11246 35.0262 8.23622 35.15L7.52912 35.8571ZM7.76953 35.9567V36.9567H32.222V35.9567V34.9567H7.76953V35.9567ZM32.222 35.9567V36.9567C32.5774 36.9567 32.9183 36.8155 33.1696 36.5642L32.4625 35.8571L31.7553 35.15C31.8791 35.0262 32.047 34.9567 32.222 34.9567V35.9567ZM32.4625 35.8571L33.1696 36.5642C33.4209 36.3129 33.562 35.9721 33.562 35.6167H32.562H31.562C31.562 35.4417 31.6316 35.2738 31.7553 35.15L32.4625 35.8571ZM32.562 35.6167L33.562 35.6166L33.5595 7.08912L32.5595 7.0892L31.5595 7.08929L31.562 35.6168L32.562 35.6167Z" fill="#76D208" mask="url(#path-1-outside-1_1236_7815)"/>
</svg>
