<svg width="74" height="74" viewBox="0 0 74 74" fill="none" xmlns="http://www.w3.org/2000/svg">
<g style="mix-blend-mode:hard-light">
<circle cx="36.765" cy="36.765" r="36.765" fill="url(#paint0_linear_3026_7320)"/>
<circle cx="36.765" cy="36.765" r="36.765" fill="#82E60A" fill-opacity="0.4"/>
</g>
<path d="M73.53 36.765C73.53 27.0143 69.6565 17.663 62.7618 10.7682C55.867 3.87344 46.5157 7.36156e-07 36.765 0C27.0143 -7.36156e-07 17.663 3.87344 10.7682 10.7682C3.87345 17.663 1.47231e-06 27.0143 0 36.765L7.353 36.765C7.353 28.9644 10.4518 21.4834 15.9676 15.9676C21.4834 10.4518 28.9645 7.353 36.765 7.353C44.5655 7.353 52.0466 10.4518 57.5624 15.9676C63.0782 21.4834 66.177 28.9644 66.177 36.765H73.53Z" fill="#060B01" fill-opacity="0.53"/>
<path d="M0.00125564 36.7653C0.00125649 46.516 3.8747 55.8673 10.7695 62.7621C17.6642 69.6568 27.0156 73.5303 36.7663 73.5303C46.5169 73.5303 55.8683 69.6568 62.763 62.7621C69.6578 55.8673 73.5312 46.516 73.5312 36.7653L66.1782 36.7653C66.1782 44.5658 63.0795 52.0469 57.5637 57.5627C52.0479 63.0785 44.5668 66.1773 36.7663 66.1773C28.9657 66.1773 21.4846 63.0785 15.9688 57.5627C10.453 52.0469 7.35426 44.5658 7.35425 36.7653L0.00125564 36.7653Z" fill="#82E60A"/>
<path d="M7.34375 36.7646C31.7557 28.2351 19.1085 15.5879 37.9322 33.5292C61.4618 62.9412 63.7167 35.9802 66.1677 36.7646" stroke="white"/>
<defs>
<linearGradient id="paint0_linear_3026_7320" x1="36.765" y1="0" x2="36.765" y2="73.53" gradientUnits="userSpaceOnUse">
<stop stop-color="#82E60A"/>
<stop offset="1" stop-color="#427900"/>
</linearGradient>
</defs>
</svg>
