<svg width="85" height="92" viewBox="0 0 85 92" fill="none" xmlns="http://www.w3.org/2000/svg">
<g style="mix-blend-mode:hard-light">
<circle cx="42.1869" cy="36.765" r="36.765" fill="url(#paint0_linear_3012_7198)"/>
<circle cx="42.1869" cy="36.765" r="36.765" fill="#82E60A" fill-opacity="0.4"/>
</g>
<path d="M78.9519 36.765C78.9519 27.0143 75.0784 17.663 68.1836 10.7682C61.2889 3.87344 51.9376 7.36156e-07 42.1869 0C32.4362 -7.36156e-07 23.0849 3.87344 16.1901 10.7682C9.29532 17.663 5.42188 27.0143 5.42188 36.765L12.7749 36.765C12.7749 28.9644 15.8736 21.4834 21.3895 15.9676C26.9053 10.4518 34.3863 7.353 42.1869 7.353C49.9874 7.353 57.4685 10.4518 62.9843 15.9676C68.5001 21.4834 71.5989 28.9644 71.5989 36.765H78.9519Z" fill="#060B01" fill-opacity="0.53"/>
<path d="M5.42313 36.7653C5.42313 46.516 9.29658 55.8673 16.1913 62.7621C23.0861 69.6568 32.4374 73.5303 42.1881 73.5303C51.9388 73.5303 61.2901 69.6568 68.1849 62.7621C75.0797 55.8673 78.9531 46.516 78.9531 36.7653L71.6001 36.7653C71.6001 44.5658 68.5014 52.0469 62.9855 57.5627C57.4697 63.0785 49.9887 66.1773 42.1881 66.1773C34.3876 66.1773 26.9065 63.0785 21.3907 57.5627C15.8749 52.0469 12.7761 44.5658 12.7761 36.7653L5.42313 36.7653Z" fill="#82E60A"/>
<path d="M12.7656 36.7646C37.1776 28.2351 24.5304 15.5879 43.3541 33.5292C66.8837 62.9412 69.1386 35.9802 71.5896 36.7646" stroke="white"/>
<path d="M7.3115 79.0583H1.8075V82.0343H6.9115V83.7623H1.8075V88.5303H-0.000499964V77.3303H7.3115V79.0583ZM9.702 75.7623C10.0433 75.7623 10.326 75.8689 10.55 76.0823C10.774 76.2849 10.886 76.5463 10.886 76.8663C10.886 77.1969 10.774 77.4689 10.55 77.6823C10.326 77.8956 10.0433 78.0023 9.702 78.0023C9.37133 78.0023 9.094 77.8956 8.87 77.6823C8.646 77.4689 8.534 77.1969 8.534 76.8663C8.534 76.5463 8.646 76.2849 8.87 76.0823C9.094 75.8689 9.37133 75.7623 9.702 75.7623ZM8.806 88.5303V79.7303H10.614V88.5303H8.806ZM17.4643 79.5383C18.4563 79.5383 19.2296 79.8423 19.7843 80.4503C20.3496 81.0583 20.6323 81.9009 20.6323 82.9783V88.5303H18.8243V83.3463C18.8243 81.9596 18.1843 81.2663 16.9043 81.2663C16.1363 81.2663 15.5443 81.5063 15.1283 81.9863C14.7229 82.4556 14.5203 83.1169 14.5203 83.9703V88.5303H12.7122V79.7303H14.5203V81.1863C15.1923 80.0876 16.1736 79.5383 17.4643 79.5383ZM32.3103 77.3303C33.5263 77.3303 34.4863 77.6663 35.1903 78.3383C35.8943 79.0103 36.2463 79.9009 36.2463 81.0103C36.2463 82.1196 35.8889 83.0209 35.1743 83.7143C34.4703 84.3969 33.5156 84.7383 32.3103 84.7383H29.5263V88.5303H27.7183V77.3303H32.3103ZM32.2463 83.0103C32.9503 83.0103 33.4836 82.8289 33.8463 82.4663C34.2196 82.1036 34.4062 81.6236 34.4062 81.0263C34.4062 80.4289 34.2249 79.9543 33.8623 79.6023C33.4996 79.2396 32.9609 79.0583 32.2463 79.0583H29.5263V83.0103H32.2463ZM41.9999 79.5383C43.2799 79.5383 44.3572 79.9756 45.2319 80.8503C46.1172 81.7249 46.5599 82.8183 46.5599 84.1303C46.5599 85.4423 46.1225 86.5356 45.2479 87.4103C44.3732 88.2849 43.2905 88.7223 41.9999 88.7223C40.7199 88.7223 39.6372 88.2849 38.7519 87.4103C37.8772 86.5249 37.4399 85.4316 37.4399 84.1303C37.4399 82.8183 37.8825 81.7249 38.7679 80.8503C39.6532 79.9756 40.7305 79.5383 41.9999 79.5383ZM43.9359 82.0823C43.4132 81.5383 42.7679 81.2663 41.9999 81.2663C41.2319 81.2663 40.5812 81.5383 40.0479 82.0823C39.5252 82.6156 39.2639 83.2983 39.2639 84.1303C39.2639 84.9729 39.5252 85.6609 40.0479 86.1943C40.5705 86.7276 41.2212 86.9943 41.9999 86.9943C42.7785 86.9943 43.4292 86.7276 43.9519 86.1943C44.4745 85.6609 44.7359 84.9729 44.7359 84.1303C44.7359 83.2983 44.4692 82.6156 43.9359 82.0823ZM52.6405 88.7223C51.3392 88.7223 50.2512 88.2849 49.3765 87.4103C48.5125 86.5356 48.0805 85.4423 48.0805 84.1303C48.0805 82.8183 48.5125 81.7249 49.3765 80.8503C50.2512 79.9756 51.3445 79.5383 52.6565 79.5383C53.7232 79.5383 54.6618 79.8476 55.4725 80.4663C56.2832 81.0743 56.7845 81.8956 56.9765 82.9303H55.1045C54.9445 82.3863 54.6405 81.9649 54.1925 81.6663C53.7445 81.3676 53.2325 81.2183 52.6565 81.2183C51.8458 81.2183 51.1845 81.4903 50.6725 82.0343C50.1605 82.5783 49.9045 83.2769 49.9045 84.1303C49.9045 84.9836 50.1605 85.6823 50.6725 86.2263C51.1845 86.7703 51.8405 87.0423 52.6405 87.0423C53.2272 87.0423 53.7392 86.8876 54.1765 86.5783C54.6245 86.2689 54.9338 85.8476 55.1045 85.3143H56.9765C56.7738 86.3703 56.2672 87.2023 55.4565 87.8103C54.6458 88.4183 53.7072 88.7223 52.6405 88.7223ZM67.0021 88.5303H64.6661L60.5221 84.4663V88.5303H58.7141V76.2103H60.5221V83.5383L64.3301 79.7303H66.6501L62.3461 83.9063L67.0021 88.5303ZM71.7651 79.5383C73.1625 79.5383 74.2718 80.0236 75.0931 80.9943C75.9251 81.9543 76.2985 83.1649 76.2131 84.6263H69.0611C69.1358 85.4156 69.4238 86.0343 69.9251 86.4823C70.4265 86.9196 71.0558 87.1383 71.8131 87.1383C72.3465 87.1383 72.8211 87.0263 73.2371 86.8023C73.6531 86.5783 73.9625 86.2529 74.1651 85.8263H76.0371C75.7065 86.7756 75.1625 87.4956 74.4051 87.9863C73.6478 88.4769 72.7785 88.7223 71.7971 88.7223C70.4638 88.7223 69.3651 88.2956 68.5011 87.4423C67.6478 86.5783 67.2211 85.4796 67.2211 84.1463C67.2211 82.8129 67.6478 81.7143 68.5011 80.8503C69.3545 79.9756 70.4425 79.5383 71.7651 79.5383ZM71.7651 81.1063C71.0931 81.1063 70.5278 81.2983 70.0691 81.6823C69.6211 82.0556 69.3171 82.5463 69.1571 83.1543H74.2771C74.1385 82.5356 73.8451 82.0396 73.3971 81.6663C72.9598 81.2929 72.4158 81.1063 71.7651 81.1063ZM84.3459 86.6103L84.6659 88.0823C83.9512 88.5089 83.1139 88.7223 82.1539 88.7223C81.2045 88.7223 80.4312 88.4183 79.8339 87.8103C79.2365 87.2023 78.9379 86.3169 78.9379 85.1543V81.4263H77.3059V79.7303H78.9379V77.7303L80.7459 77.3303V79.7303H84.3619V81.4263H80.7459V85.0583C80.7459 86.3809 81.3219 87.0423 82.4739 87.0423C82.9005 87.0423 83.5245 86.8983 84.3459 86.6103Z" fill="white"/>
<defs>
<linearGradient id="paint0_linear_3012_7198" x1="42.1869" y1="0" x2="42.1869" y2="73.53" gradientUnits="userSpaceOnUse">
<stop stop-color="#82E60A"/>
<stop offset="1" stop-color="#427900"/>
</linearGradient>
</defs>
</svg>
