<svg width="30" height="30" viewBox="0 0 30 30" fill="none" xmlns="http://www.w3.org/2000/svg">
<path fill-rule="evenodd" clip-rule="evenodd" d="M14.9998 2.34375C10.3995 2.34375 6.56227 5.86684 6.56227 10.3332V11.6528C6.56227 12.9371 6.18212 14.1926 5.46974 15.2612C5.45717 15.28 5.4453 15.2994 5.43414 15.319L4.96084 16.1543C4.34819 17.2354 4.14857 18.5001 4.39319 19.7161C4.41149 19.8071 4.4412 19.934 4.4889 20.0872C5.06807 21.9478 6.87596 22.9045 8.36214 23.3521C8.74304 23.4667 9.14407 23.5699 9.56117 23.6614C9.5623 23.664 9.56342 23.6665 9.56457 23.669C10.7239 26.221 12.7867 27.6562 15 27.6562C17.2135 27.6562 19.2763 26.221 20.4355 23.669C20.4367 23.6664 20.4379 23.6639 20.439 23.6613C20.8584 23.5693 21.2615 23.4655 21.6444 23.35C23.15 22.8958 24.8863 21.9215 25.4898 20.1007C25.5125 20.0323 25.5314 19.9715 25.5458 19.925C25.5619 19.8726 25.569 19.8501 25.5739 19.8358C25.5873 19.797 25.598 19.7574 25.6062 19.7173C25.8525 18.5 25.651 17.2347 25.0387 16.1543L24.5654 15.319C24.5543 15.2994 24.5424 15.28 24.5298 15.2612C23.8174 14.1926 23.4373 12.9371 23.4373 11.6528V10.3332C23.4373 5.86684 19.6 2.34375 14.9998 2.34375ZM18.0649 24.0416C16.076 24.2569 13.9242 24.257 11.9352 24.0417C12.8217 25.2529 13.9574 25.7812 15 25.7812C16.0428 25.7812 17.1785 25.2527 18.0649 24.0416ZM8.43727 10.3332C8.43727 7.01015 11.3239 4.21875 14.9998 4.21875C18.6757 4.21875 21.5623 7.01015 21.5623 10.3332V11.6528C21.5623 13.2956 22.0452 14.9019 22.9504 16.2721L23.4074 17.0786C23.7885 17.7513 23.9194 18.5362 23.7782 19.2951L23.7579 19.36L23.7547 19.3705C23.7405 19.4161 23.7264 19.4615 23.7101 19.5107C23.3944 20.4631 22.3942 21.1654 21.1028 21.5549C17.6878 22.5853 12.3205 22.5859 8.90279 21.5567C7.58304 21.1593 6.57101 20.4675 6.27915 19.5299C6.25315 19.4464 6.23871 19.3829 6.23137 19.3464C6.07526 18.5704 6.20301 17.7654 6.59212 17.0786L7.04917 16.2721C7.95444 14.9019 8.43727 13.2956 8.43727 11.6528V10.3332Z" fill="#13193A"/>
</svg>
