<svg width="30" height="30" viewBox="0 0 30 30" fill="none" xmlns="http://www.w3.org/2000/svg">
<path fill-rule="evenodd" clip-rule="evenodd" d="M1.5625 13.125C1.5625 6.73921 6.73921 1.5625 13.125 1.5625C19.5107 1.5625 24.6875 6.73921 24.6875 13.125C24.6875 19.5107 19.5107 24.6875 13.125 24.6875C6.73921 24.6875 1.5625 19.5107 1.5625 13.125ZM13.125 3.4375C7.77474 3.4375 3.4375 7.77474 3.4375 13.125C3.4375 18.4753 7.77474 22.8125 13.125 22.8125C18.4753 22.8125 22.8125 18.4753 22.8125 13.125C22.8125 7.77474 18.4753 3.4375 13.125 3.4375Z" fill="#13193A"/>
<path d="M24.783 27.4597C24.0821 27.3735 23.4189 26.9817 23.0169 26.3117L21.6515 24.0361C21.2412 23.3522 21.349 22.4769 21.9129 21.913C22.2797 21.5461 22.7782 21.3724 23.2701 21.4086C23.5346 21.428 23.7971 21.5081 24.0362 21.6516L26.312 23.017C27.6516 23.8209 27.8792 25.6696 26.7745 26.7744C26.2966 27.2522 25.6794 27.4809 25.0677 27.4779C24.9725 27.4774 24.8775 27.4714 24.783 27.4597Z" fill="#13193A"/>
</svg>
