<svg width="30" height="30" viewBox="0 0 30 30" fill="none" xmlns="http://www.w3.org/2000/svg">
<path fill-rule="evenodd" clip-rule="evenodd" d="M15 2.8125C11.7208 2.8125 9.0625 5.47081 9.0625 8.75C9.0625 12.0292 11.7208 14.6875 15 14.6875C18.2793 14.6875 20.9375 12.0292 20.9375 8.75C20.9375 5.47081 18.2793 2.8125 15 2.8125ZM10.9375 8.75C10.9375 6.50634 12.7564 4.6875 15 4.6875C17.2436 4.6875 19.0625 6.50634 19.0625 8.75C19.0625 10.9937 17.2436 12.8125 15 12.8125C12.7564 12.8125 10.9375 10.9937 10.9375 8.75Z" fill="#13193A"/>
<path fill-rule="evenodd" clip-rule="evenodd" d="M10.8948 16.5625C9.23386 16.5625 7.69693 17.4415 6.85468 18.873L6.02746 20.2791C5.37456 21.3888 5.0945 22.6847 5.36188 23.8497C5.64095 25.0656 6.5055 26.0564 7.92039 26.4219C11.8719 27.4428 18.1285 27.4428 22.08 26.4219C23.4949 26.0564 24.3595 25.0656 24.6385 23.8497C24.9059 22.6847 24.6259 21.3888 23.973 20.2791L23.1458 18.873C22.3035 17.4415 20.7665 16.5625 19.1056 16.5625H10.8948ZM8.47074 19.8239C8.97608 18.9649 9.89824 18.4375 10.8948 18.4375H19.1056C20.1021 18.4375 21.0244 18.9649 21.5296 19.8239L22.3569 21.2299C22.8219 22.0201 22.9493 22.8283 22.811 23.4304C22.6845 23.9815 22.3305 24.4206 21.611 24.6065C17.9671 25.5479 12.0332 25.5479 8.38938 24.6065C7.66991 24.4206 7.31586 23.9815 7.18936 23.4304C7.05118 22.8283 7.17859 22.0201 7.64351 21.2299L8.47074 19.8239Z" fill="#13193A"/>
</svg>
