<svg width="24" height="24" viewBox="0 0 24 24" fill="none" xmlns="http://www.w3.org/2000/svg">
<path d="M12 12.75C12.4142 12.75 12.75 13.0858 12.75 13.5V16.5C12.75 16.9142 12.4142 17.25 12 17.25C11.5858 17.25 11.25 16.9142 11.25 16.5V13.5C11.25 13.0858 11.5858 12.75 12 12.75Z" fill="#13193A" fill-opacity="0.6"/>
<path fill-rule="evenodd" clip-rule="evenodd" d="M12 1.25C9.37665 1.25 7.25 3.37665 7.25 6V8.87582C5.4246 10.2937 4.25 12.5097 4.25 15C4.25 19.2802 7.71979 22.75 12 22.75C16.2802 22.75 19.75 19.2802 19.75 15C19.75 12.5097 18.5754 10.2937 16.75 8.87582V6C16.75 3.37665 14.6234 1.25 12 1.25ZM15.25 7.96232V6C15.25 4.20507 13.7949 2.75 12 2.75C10.2051 2.75 8.75 4.20507 8.75 6V7.96232C9.7384 7.50511 10.8394 7.25 12 7.25C13.1606 7.25 14.2616 7.50511 15.25 7.96232ZM12 8.75C8.54822 8.75 5.75 11.5482 5.75 15C5.75 18.4518 8.54822 21.25 12 21.25C15.4518 21.25 18.25 18.4518 18.25 15C18.25 11.5482 15.4518 8.75 12 8.75Z" fill="#13193A" fill-opacity="0.6"/>
</svg>
