<svg width="24" height="24" viewBox="0 0 24 24" fill="none" xmlns="http://www.w3.org/2000/svg">
<path d="M7.38598 8.35699C7.0308 8.14388 6.5701 8.25905 6.35699 8.61423C6.14388 8.96942 6.25905 9.43012 6.61424 9.64323L10.0707 11.7171C11.2583 12.4297 12.7419 12.4297 13.9294 11.7171L17.386 9.64323C17.7411 9.43012 17.8563 8.96942 17.6432 8.61423C17.4301 8.25905 16.9694 8.14388 16.6142 8.35699L13.1577 10.4309C12.4452 10.8584 11.555 10.8584 10.8425 10.4309L7.38598 8.35699Z" fill="white" fill-opacity="0.6"/>
<path fill-rule="evenodd" clip-rule="evenodd" d="M5.5 2.75C3.15279 2.75 1.25 4.65279 1.25 7V17C1.25 19.3472 3.15279 21.25 5.5 21.25H18.5C20.8472 21.25 22.75 19.3472 22.75 17V7C22.75 4.65279 20.8472 2.75 18.5 2.75H5.5ZM2.75 7C2.75 5.48122 3.98122 4.25 5.5 4.25H18.5C20.0188 4.25 21.25 5.48122 21.25 7V17C21.25 18.5188 20.0188 19.75 18.5 19.75H5.5C3.98122 19.75 2.75 18.5188 2.75 17V7Z" fill="white" fill-opacity="0.6"/>
</svg>
