<svg width="40" height="40" viewBox="0 0 50 40" fill="none" xmlns="http://www.w3.org/2000/svg">
<path d="M10 3.75C9.29688 3.75 8.75 4.375 8.75 5V25H27.5V30H3.75C1.64062 30 0 28.3594 0 26.25C0 25.625 0.546875 25 1.25 25H5V5C5 2.26562 7.1875 0 10 0H35C37.7344 0 40 2.26562 40 5V7.5H36.25V5C36.25 4.375 35.625 3.75 35 3.75H10ZM30 36.25V13.75C30 11.7188 31.6406 10 33.75 10H46.25C48.2812 10 50 11.7188 50 13.75V36.25C50 38.3594 48.2812 40 46.25 40H33.75C31.6406 40 30 38.3594 30 36.25ZM46.25 36.25V13.75H33.75V36.25H46.25Z" fill="#000000"/>
</svg>
