<svg width="40" height="40" viewBox="0 0 40 40" fill="none" xmlns="http://www.w3.org/2000/svg">
<path d="M13.75 0C17.1875 0 20 2.8125 20 6.25C20 6.95312 19.375 7.5 18.75 7.5C15.2344 7.5 12.5 4.76562 12.5 1.25C12.5 0.625 13.0469 0 13.75 0ZM4.375 1.25H8.125C9.14062 1.25 10 2.10938 10 3.125C10 4.21875 9.14062 5 8.125 5H4.375C3.28125 5 2.5 4.21875 2.5 3.125C2.5 2.10938 3.28125 1.25 4.375 1.25ZM1.875 6.875H10.625C11.6406 6.875 12.5 7.73438 12.5 8.75C12.5 9.84375 11.6406 10.625 10.625 10.625H1.875C0.78125 10.625 0 9.84375 0 8.75C0 7.73438 0.78125 6.875 1.875 6.875ZM2.5 14.375C2.5 13.3594 3.28125 12.5 4.375 12.5H8.125C9.14062 12.5 10 13.3594 10 14.375C10 15.4688 9.14062 16.25 8.125 16.25H4.375C3.28125 16.25 2.5 15.4688 2.5 14.375ZM21.25 1.25C21.25 0.625 21.7969 0 22.5 0C25.9375 0 28.75 2.8125 28.75 6.25C28.75 6.95312 28.125 7.5 27.5 7.5C23.9844 7.5 21.25 4.76562 21.25 1.25ZM31.25 0C34.6875 0 37.5 2.8125 37.5 6.25C37.5 6.95312 36.875 7.5 36.25 7.5C32.7344 7.5 30 4.76562 30 1.25C30 0.625 30.5469 0 31.25 0ZM37.5 11.25C37.5 14.7656 34.6875 17.5 31.25 17.5C30.5469 17.5 30 16.9531 30 16.25C30 12.8125 32.7344 10 36.25 10C36.875 10 37.5 10.625 37.5 11.25ZM27.5 10C28.125 10 28.75 10.625 28.75 11.25C28.75 14.7656 25.9375 17.5 22.5 17.5C21.7969 17.5 21.25 16.9531 21.25 16.25C21.25 12.8125 23.9844 10 27.5 10ZM20 11.25C20 14.7656 17.1875 17.5 13.75 17.5C13.0469 17.5 12.5 16.9531 12.5 16.25C12.5 12.8125 15.2344 10 18.75 10C19.375 10 20 10.625 20 11.25ZM3.75 28.125V31.9531C5.9375 32.2656 7.73438 33.9844 8.04688 36.25H31.875C32.1875 34.0625 33.9844 32.2656 36.25 31.9531V28.125C33.9844 27.8125 32.1875 26.0156 31.875 23.75H8.04688C7.73438 26.0156 5.9375 27.8125 3.75 28.125ZM3.75 20H36.25C38.2812 20 40 21.7188 40 23.75V36.25C40 38.3594 38.2812 40 36.25 40H3.75C1.64062 40 0 38.3594 0 36.25V23.75C0 21.7188 1.64062 20 3.75 20ZM20 35C18.2031 35 16.5625 34.0625 15.625 32.5C14.7656 31.0156 14.7656 29.0625 15.625 27.5C16.5625 26.0156 18.2031 25 20 25C21.7188 25 23.3594 26.0156 24.2969 27.5C25.1562 29.0625 25.1562 31.0156 24.2969 32.5C23.3594 34.0625 21.7188 35 20 35Z" fill="#000000"/>
</svg>
