<svg width="40" height="40" viewBox="0 0 40 40" fill="none" xmlns="http://www.w3.org/2000/svg">
<path d="M5 3.75C4.29688 3.75 3.75 4.375 3.75 5V7.5H0V5C0 2.26562 2.1875 0 5 0H7.5V3.75H5ZM17.5 3.75H10V0H17.5V3.75ZM3.75 10V17.5H0V10H3.75ZM3.75 20V22.5C3.75 23.2031 4.29688 23.75 5 23.75H7.5V27.5H5C2.1875 27.5 0 25.3125 0 22.5V20H3.75ZM10 27.5V23.75H17.5V27.5H16.25H12.5H10ZM12.5 30H16.25V35C16.25 35.7031 16.7969 36.25 17.5 36.25H35C35.625 36.25 36.25 35.7031 36.25 35V17.5C36.25 16.875 35.625 16.25 35 16.25H30V12.5H35C37.7344 12.5 40 14.7656 40 17.5V35C40 37.8125 37.7344 40 35 40H17.5C14.6875 40 12.5 37.8125 12.5 35V30ZM27.5 16.25V17.5H23.75V10H27.5V12.5V16.25ZM27.5 5V7.5H23.75V5C23.75 4.375 23.125 3.75 22.5 3.75H20V0H22.5C25.2344 0 27.5 2.26562 27.5 5ZM20 23.75H22.5C23.125 23.75 23.75 23.2031 23.75 22.5V20H27.5V22.5C27.5 25.3125 25.2344 27.5 22.5 27.5H20V23.75Z" fill="#000000"/>
</svg>
