<svg width="22" height="22" viewBox="0 0 22 22" fill="none" xmlns="http://www.w3.org/2000/svg">
<path d="M21.9906 19.1872C21.9298 18.4992 21.6047 17.876 21.0759 17.4331L15.5169 12.7641C16.3039 11.4878 16.7587 9.98569 16.7587 8.37933C16.759 7.68611 16.6732 6.99554 16.5032 6.32349L17.8592 4.96752C18.1192 5.09222 18.404 5.15681 18.6924 5.1565C19.7586 5.1565 20.6261 4.28906 20.6261 3.22279C20.6261 2.15652 19.7586 1.28911 18.6924 1.28911C17.6262 1.28911 16.7587 2.15656 16.7587 3.22283C16.7584 3.51121 16.823 3.79596 16.9477 4.05598L16.0333 4.9704C14.7248 2.04423 11.7865 0 8.37933 0C3.75897 0 0 3.75897 0 8.37937C0 12.9998 3.75897 16.7587 8.37937 16.7587C9.98574 16.7587 11.4878 16.304 12.7642 15.517L17.4354 21.0787C17.5343 21.1951 17.6446 21.3052 17.7545 21.3973C18.2243 21.7907 18.8049 22.001 19.4104 22.001C19.4874 22.001 19.5649 21.9976 19.6425 21.9907C20.3305 21.9299 20.9537 21.6048 21.3972 21.0753C21.8407 20.5458 22.0514 19.8752 21.9906 19.1872ZM18.6924 2.57827C19.0478 2.57827 19.337 2.86742 19.337 3.22283C19.337 3.57824 19.0478 3.86739 18.6924 3.86739C18.337 3.86739 18.0479 3.57824 18.0479 3.22283C18.0479 2.86742 18.337 2.57827 18.6924 2.57827ZM8.37933 15.4782C4.46979 15.4782 1.28052 12.2975 1.28052 8.38797C1.28052 4.47843 4.46979 1.28052 8.37933 1.28052C11.4395 1.28052 14.0529 3.23791 15.0441 5.95953L13.0799 7.92376C12.8274 7.80271 12.5449 7.73477 12.2467 7.73477C11.9485 7.73477 11.666 7.80271 11.4136 7.92376L10.1241 6.63426C10.2488 6.37422 10.3134 6.08948 10.313 5.8011C10.313 4.73487 9.4456 3.86739 8.37933 3.86739C7.31306 3.86739 6.44562 4.73483 6.44562 5.8011C6.4453 6.08948 6.50989 6.37423 6.6346 6.63426L5.34514 7.92376C5.0851 7.79905 4.80034 7.73446 4.51194 7.73477C3.44572 7.73477 2.57823 8.60222 2.57823 9.66849C2.57823 10.7347 3.44567 11.6022 4.51194 11.6022C5.57817 11.6022 6.44566 10.7348 6.44566 9.66849C6.44597 9.38011 6.38138 9.09536 6.25667 8.83533L7.54613 7.54583C7.79863 7.66688 8.08116 7.73482 8.37933 7.73482C8.6775 7.73482 8.96003 7.66688 9.21248 7.54583L10.5019 8.83533C10.3773 9.09536 10.3127 9.38011 10.313 9.66849C10.313 10.7347 11.1804 11.6022 12.2467 11.6022C13.313 11.6022 14.1804 10.7348 14.1804 9.66849C14.1807 9.38011 14.1162 9.09536 13.9914 8.83533L15.4047 7.42208C15.4478 7.73935 15.4695 8.05918 15.4695 8.37937C15.4696 12.2889 12.2889 15.4782 8.37933 15.4782ZM12.8913 9.66849C12.8913 10.0239 12.6022 10.313 12.2468 10.313C11.8914 10.313 11.6022 10.0239 11.6022 9.66849C11.6022 9.31308 11.8914 9.02393 12.2468 9.02393C12.6022 9.02393 12.8913 9.31308 12.8913 9.66849ZM9.02389 5.8011C9.02389 6.15651 8.73474 6.44566 8.37933 6.44566C8.02392 6.44566 7.73477 6.15651 7.73477 5.8011C7.73477 5.44569 8.02392 5.15654 8.37933 5.15654C8.73474 5.15654 9.02389 5.44569 9.02389 5.8011ZM5.1565 9.66849C5.1565 10.0239 4.86735 10.313 4.51194 10.313C4.15653 10.313 3.86739 10.0239 3.86739 9.66849C3.86739 9.31308 4.15653 9.02393 4.51194 9.02393C4.86735 9.02393 5.1565 9.31308 5.1565 9.66849ZM14.6369 15.7423L13.8087 14.7563C14.1491 14.466 14.466 14.1492 14.7562 13.8088L15.7423 14.6369C15.404 15.0344 15.0344 15.4041 14.6369 15.7423ZM20.4089 20.2475C20.1865 20.513 19.874 20.676 19.529 20.7065C19.1838 20.7369 18.8478 20.6313 18.5822 20.4088C18.5287 20.3641 18.4689 20.304 18.4202 20.2467L15.4665 16.73C15.9211 16.3436 16.3436 15.9211 16.73 15.4665L20.2474 18.4208C20.5129 18.6431 20.6759 18.9556 20.7064 19.3006C20.737 19.6457 20.6313 19.9819 20.4089 20.2475Z" fill="white" fill-opacity="0.6"/>
</svg>
