<svg width="23" height="23" viewBox="0 0 23 23" fill="none" xmlns="http://www.w3.org/2000/svg">
<path d="M20.4317 23H15.2183C13.8 23 12.65 21.85 12.65 20.4317V13.4167C12.65 12.995 12.995 12.65 13.4167 12.65H20.4317C21.85 12.65 23 13.8 23 15.2183V20.4317C23 21.85 21.85 23 20.4317 23ZM14.1833 14.1833V20.4317C14.1833 21.0067 14.6433 21.4667 15.2183 21.4667H20.4317C21.0067 21.4667 21.4667 21.0067 21.4667 20.4317V15.2183C21.4667 14.6433 21.0067 14.1833 20.4317 14.1833H14.1833ZM7.78167 23H2.56833C1.15 23 0 21.85 0 20.4317V15.2183C0 13.8 1.15 12.65 2.56833 12.65H9.58333C10.005 12.65 10.35 12.995 10.35 13.4167V20.4317C10.35 21.85 9.2 23 7.78167 23ZM2.56833 14.1833C1.99333 14.1833 1.53333 14.6433 1.53333 15.2183V20.4317C1.53333 21.0067 1.99333 21.4667 2.56833 21.4667H7.78167C8.35667 21.4667 8.81667 21.0067 8.81667 20.4317V14.1833H2.56833ZM20.4317 10.35H13.4167C12.995 10.35 12.65 10.005 12.65 9.58333V2.56833C12.65 1.15 13.8 0 15.2183 0H20.4317C21.85 0 23 1.15 23 2.56833V7.78167C23 9.2 21.85 10.35 20.4317 10.35ZM14.1833 8.81667H20.4317C21.0067 8.81667 21.4667 8.35667 21.4667 7.78167V2.56833C21.4667 1.99333 21.0067 1.53333 20.4317 1.53333H15.2183C14.6433 1.53333 14.1833 1.99333 14.1833 2.56833V8.81667ZM9.58333 10.35H2.56833C1.15 10.35 0 9.2 0 7.78167V2.56833C0 1.15 1.15 0 2.56833 0H7.78167C9.2 0 10.35 1.15 10.35 2.56833V9.58333C10.35 10.005 10.005 10.35 9.58333 10.35ZM2.56833 1.53333C1.99333 1.53333 1.53333 1.99333 1.53333 2.56833V7.78167C1.53333 8.35667 1.99333 8.81667 2.56833 8.81667H8.81667V2.56833C8.81667 1.99333 8.35667 1.53333 7.78167 1.53333H2.56833Z" fill="white" fill-opacity="0.6"/>
</svg>
