<svg width="108" height="108" viewBox="0 0 108 108" fill="none" xmlns="http://www.w3.org/2000/svg">
<path fill-rule="evenodd" clip-rule="evenodd" d="M54 0C43.3198 0 32.8795 3.16704 23.9992 9.10064C15.119 15.0342 8.19766 23.4679 4.11053 33.3351C0.0233976 43.2023 -1.04598 54.0599 1.03762 64.5349C3.12122 75.0098 8.26422 84.6317 15.8163 92.1837C23.3683 99.7358 32.9902 104.879 43.4651 106.962C53.9401 109.046 64.7977 107.977 74.6649 103.889C84.5321 99.8023 92.9658 92.881 98.8994 84.0008C104.833 75.1205 108 64.6802 108 54C107.993 39.6804 102.302 25.9493 92.1761 15.8239C82.0507 5.69839 68.3196 0.00690789 54 0ZM54 104.276C44.0564 104.276 34.3361 101.327 26.0682 95.8028C17.8004 90.2785 11.3564 82.4264 7.55118 73.2397C3.74592 64.053 2.75029 53.9442 4.6902 44.1917C6.6301 34.4391 11.4184 25.4808 18.4496 18.4496C25.4808 11.4184 34.4391 6.63008 44.1917 4.69017C53.9442 2.75027 64.053 3.7459 73.2397 7.55116C82.4265 11.3564 90.2785 17.8004 95.8029 26.0682C101.327 34.336 104.276 44.0564 104.276 54C104.27 67.3322 98.9711 80.1166 89.5439 89.5438C80.1166 98.9711 67.3322 104.27 54 104.276Z" fill="url(#paint0_linear_934_3377)"/>
<path fill-rule="evenodd" clip-rule="evenodd" d="M39.9908 53.7652C40.4847 53.7652 40.9583 53.569 41.3075 53.2198C41.6567 52.8706 41.8529 52.3969 41.8529 51.9031C41.8529 51.4092 41.6567 50.9356 41.3075 50.5864C40.9583 50.2372 40.4847 50.041 39.9908 50.041H31.6003C31.1065 50.041 30.6329 50.2372 30.2837 50.5864C29.9345 50.9356 29.7383 51.4092 29.7383 51.9031V68.6803C29.7383 69.1742 29.9345 69.6478 30.2837 69.997C30.6329 70.3462 31.1065 70.5424 31.6003 70.5424C32.0942 70.5424 32.5678 70.3462 32.917 69.997C33.2662 69.6478 33.4624 69.1742 33.4624 68.6803V62.1556H39.9908C40.4847 62.1556 40.9583 61.9595 41.3075 61.6102C41.6567 61.261 41.8529 60.7874 41.8529 60.2936C41.8529 59.7997 41.6567 59.3261 41.3075 58.9769C40.9583 58.6277 40.4847 58.4315 39.9908 58.4315H33.4624V53.7652H39.9908Z" fill="url(#paint1_linear_934_3377)"/>
<path fill-rule="evenodd" clip-rule="evenodd" d="M55.8373 56.1004C55.8363 54.494 55.1975 52.9538 54.0613 51.8183C52.9251 50.6828 51.3845 50.0449 49.7781 50.0449H45.5847C45.0909 50.0449 44.6173 50.2411 44.268 50.5903C43.9188 50.9395 43.7227 51.4131 43.7227 51.907V68.6842C43.7227 69.1781 43.9188 69.6517 44.268 70.0009C44.6173 70.3501 45.0909 70.5463 45.5847 70.5463C46.0786 70.5463 46.5522 70.3501 46.9014 70.0009C47.2506 69.6517 47.4468 69.1781 47.4468 68.6842V64.8L52.6606 70.0137C52.8324 70.1916 53.0378 70.3334 53.265 70.431C53.4922 70.5286 53.7365 70.58 53.9838 70.5821C54.231 70.5843 54.4762 70.5372 54.705 70.4436C54.9339 70.3499 55.1418 70.2117 55.3166 70.0368C55.4915 69.862 55.6297 69.6541 55.7234 69.4252C55.817 69.1964 55.8641 68.9512 55.862 68.704C55.8598 68.4567 55.8084 68.2124 55.7108 67.9852C55.6133 67.758 55.4714 67.5526 55.2936 67.3808L50.0798 62.167C51.6349 62.0886 53.1002 61.4148 54.1721 60.2854C55.244 59.156 55.8402 57.6575 55.8373 56.1004ZM49.7781 58.4317H47.4468V53.7653H49.7781C50.3969 53.7653 50.9903 54.0111 51.4279 54.4487C51.8655 54.8863 52.1113 55.4797 52.1113 56.0985C52.1113 56.7173 51.8655 57.3108 51.4279 57.7483C50.9903 58.1859 50.3969 58.4317 49.7781 58.4317Z" fill="url(#paint2_linear_934_3377)"/>
<path fill-rule="evenodd" clip-rule="evenodd" d="M65.1709 53.7652C65.6648 53.7652 66.1384 53.569 66.4876 53.2198C66.8368 52.8706 67.033 52.3969 67.033 51.9031C67.033 51.4092 66.8368 50.9356 66.4876 50.5864C66.1384 50.2372 65.6648 50.041 65.1709 50.041H59.5847C59.0909 50.041 58.6172 50.2372 58.268 50.5864C57.9188 50.9356 57.7227 51.4092 57.7227 51.9031V68.6803C57.7227 69.1742 57.9188 69.6478 58.268 69.997C58.6172 70.3462 59.0909 70.5424 59.5847 70.5424H65.1709C65.6648 70.5424 66.1384 70.3462 66.4876 69.997C66.8368 69.6478 67.033 69.1742 67.033 68.6803C67.033 68.1865 66.8368 67.7128 66.4876 67.3636C66.1384 67.0144 65.6648 66.8183 65.1709 66.8183H61.4468V62.1556H65.1709C65.6648 62.1556 66.1384 61.9595 66.4876 61.6102C66.8368 61.261 67.033 60.7874 67.033 60.2936C67.033 59.7997 66.8368 59.3261 66.4876 58.9769C66.1384 58.6277 65.6648 58.4315 65.1709 58.4315H61.4468V53.7652H65.1709Z" fill="url(#paint3_linear_934_3377)"/>
<path fill-rule="evenodd" clip-rule="evenodd" d="M76.3467 53.7652C76.8406 53.7652 77.3142 53.569 77.6634 53.2198C78.0126 52.8706 78.2088 52.3969 78.2088 51.9031C78.2088 51.4092 78.0126 50.9356 77.6634 50.5864C77.3142 50.2372 76.8406 50.041 76.3467 50.041H70.7605C70.2667 50.041 69.793 50.2372 69.4438 50.5864C69.0946 50.9356 68.8984 51.4092 68.8984 51.9031V68.6803C68.8984 69.1742 69.0946 69.6478 69.4438 69.997C69.793 70.3462 70.2667 70.5424 70.7605 70.5424H76.3467C76.8406 70.5424 77.3142 70.3462 77.6634 69.997C78.0126 69.6478 78.2088 69.1742 78.2088 68.6803C78.2088 68.1865 78.0126 67.7128 77.6634 67.3636C77.3142 67.0144 76.8406 66.8183 76.3467 66.8183H72.6226V62.1556H76.3467C76.8406 62.1556 77.3142 61.9595 77.6634 61.6102C78.0126 61.261 78.2088 60.7874 78.2088 60.2936C78.2088 59.7997 78.0126 59.3261 77.6634 58.9769C77.3142 58.6277 76.8406 58.4315 76.3467 58.4315H72.6226V53.7652H76.3467Z" fill="url(#paint4_linear_934_3377)"/>
<path fill-rule="evenodd" clip-rule="evenodd" d="M80.0694 40.7524H75.0008L59.0354 27.1854C59.2695 26.4021 59.3174 25.5749 59.1751 24.7698C59.0329 23.9647 58.7044 23.204 58.2161 22.5484C57.7277 21.8927 57.0929 21.3602 56.3623 20.9934C55.6316 20.6266 54.8254 20.4355 54.0078 20.4355C53.1903 20.4355 52.384 20.6266 51.6534 20.9934C50.9228 21.3602 50.288 21.8927 49.7996 22.5484C49.3112 23.204 48.9828 23.9647 48.8406 24.7698C48.6983 25.5749 48.7462 26.4021 48.9803 27.1854L33.0149 40.7711H27.9314C25.504 40.7627 23.1645 41.6788 21.3881 43.3333C20.5179 44.1428 19.8233 45.1224 19.3473 46.2115C18.8713 47.3005 18.6241 48.4758 18.6211 49.6643V70.7168C18.6241 71.9054 18.8713 73.0806 19.3473 74.1696C19.8233 75.2587 20.5179 76.2383 21.3881 77.0479C23.1715 78.6857 25.5102 79.5855 27.9314 79.5654H80.0694C82.4967 79.5734 84.8361 78.6573 86.6127 77.0032C87.4829 76.1937 88.1775 75.214 88.6535 74.125C89.1295 73.0359 89.3766 71.8607 89.3797 70.6721V49.6345C89.3764 48.446 89.1292 47.2709 88.6532 46.1818C88.1772 45.0928 87.4827 44.1131 86.6127 43.3035C84.8346 41.6531 82.4953 40.7411 80.0694 40.7524ZM54.0004 24.1651C54.3017 24.1651 54.5961 24.2545 54.8466 24.4218C55.0971 24.5892 55.2923 24.8271 55.4076 25.1054C55.5229 25.3837 55.5531 25.69 55.4943 25.9855C55.4355 26.2809 55.2905 26.5523 55.0774 26.7653C54.8644 26.9784 54.593 27.1234 54.2976 27.1822C54.0021 27.241 53.6958 27.2108 53.4175 27.0955C53.1392 26.9802 52.9013 26.785 52.7339 26.5345C52.5666 26.284 52.4772 25.9896 52.4772 25.6883C52.4772 25.2843 52.6377 24.8969 52.9234 24.6113C53.209 24.3256 53.5964 24.1651 54.0004 24.1651ZM51.2222 30.1237C52.0554 30.6442 53.018 30.9202 54.0004 30.9202C54.9828 30.9202 55.9454 30.6442 56.7786 30.1237L69.2545 40.7375H38.7314L51.2222 30.1237ZM85.6556 70.687C85.6504 71.3659 85.5059 72.0364 85.2311 72.6571C84.9562 73.2778 84.557 73.8356 84.0579 74.2957C82.9731 75.2991 81.547 75.8517 80.0694 75.8413H27.9314C26.4533 75.8507 25.0271 75.2967 23.9429 74.292C23.4438 73.8318 23.0445 73.2741 22.7697 72.6534C22.4949 72.0327 22.3504 71.3621 22.3452 70.6833V49.6345C22.351 48.9563 22.4957 48.2865 22.7705 47.6665C23.0453 47.0464 23.4443 46.4893 23.9429 46.0295C25.0263 45.0231 26.4527 44.4678 27.9314 44.4766H80.0694C81.5475 44.4671 82.9737 45.0211 84.0579 46.0258C84.5565 46.4856 84.9555 47.0427 85.2303 47.6627C85.5051 48.2828 85.6498 48.9526 85.6556 49.6308V70.687Z" fill="url(#paint5_linear_934_3377)"/>
<defs>
<linearGradient id="paint0_linear_934_3377" x1="53.3967" y1="-5.59365" x2="54.6406" y2="117.303" gradientUnits="userSpaceOnUse">
<stop stop-color="#3D5F15"/>
<stop offset="1" stop-color="#BEFF71"/>
</linearGradient>
<linearGradient id="paint1_linear_934_3377" x1="34.904" y1="-5.67579" x2="35.8571" y2="117.226" gradientUnits="userSpaceOnUse">
<stop stop-color="#74C316"/>
<stop offset="1" stop-color="#A0FE2F"/>
</linearGradient>
<linearGradient id="paint2_linear_934_3377" x1="49.0929" y1="-5.549" x2="50.3367" y2="117.348" gradientUnits="userSpaceOnUse">
<stop stop-color="#E4FFC4"/>
<stop offset="1" stop-color="#97C461"/>
</linearGradient>
<linearGradient id="paint3_linear_934_3377" x1="61.6926" y1="-5.67579" x2="62.9327" y2="117.221" gradientUnits="userSpaceOnUse">
<stop stop-color="#B9FB6A"/>
<stop offset="1" stop-color="#A0FE2F"/>
</linearGradient>
<linearGradient id="paint4_linear_934_3377" x1="72.8833" y1="-5.79124" x2="74.002" y2="115" gradientUnits="userSpaceOnUse">
<stop stop-color="#3D5F15"/>
<stop offset="0.00295838" stop-color="#020301"/>
<stop offset="1" stop-color="#9FFF2C"/>
</linearGradient>
<linearGradient id="paint5_linear_934_3377" x1="53.3375" y1="-5.59445" x2="54.5776" y2="117.302" gradientUnits="userSpaceOnUse">
<stop stop-color="#3D5F15"/>
<stop offset="1" stop-color="#BEFF71"/>
</linearGradient>
</defs>
</svg>
