<svg width="108" height="108" viewBox="0 0 108 108" fill="none" xmlns="http://www.w3.org/2000/svg">
<path d="M36.4666 94.4028L34.9648 92.5795L38.4231 89.6682L39.1734 89.3936H69.2164C71.1012 89.3936 72.919 88.9903 74.6209 88.1941L79.6513 85.8434C81.1608 85.1485 82.5198 84.1595 83.6507 82.9333L93.1466 72.7C93.6423 72.1623 94.0754 71.6119 94.4313 71.0662L105.479 54.4726C105.563 54.3458 105.619 54.2019 105.642 54.051C105.665 53.9002 105.655 53.746 105.613 53.5994C105.573 53.4503 105.501 53.3119 105.402 53.1941C105.303 53.0764 105.179 52.9821 105.04 52.9181L104.407 52.6355C102.26 51.6305 99.8202 51.4683 97.5615 52.1802C95.3029 52.8922 93.3869 54.4275 92.186 56.4877L88.0832 63.4915L87.6307 63.9315L76.2624 70.1207L75.1483 68.032L86.2302 62.0002L90.1636 55.2791C91.6572 52.7146 94.0405 50.8026 96.8508 49.9142C99.661 49.0259 102.698 49.2247 105.371 50.4721L106.01 50.757C106.458 50.9635 106.857 51.2659 107.178 51.6433C107.5 52.0208 107.736 52.4643 107.871 52.9431C108.006 53.422 108.037 53.9248 107.961 54.4168C107.885 54.9088 107.704 55.3782 107.431 55.7927L96.3855 72.3829C95.9313 73.0695 95.4222 73.7174 94.8632 74.3199L85.365 84.5544C84.0267 86.0051 82.419 87.1755 80.6336 87.9988L75.6076 90.3483C73.6053 91.2873 71.4238 91.7717 69.2164 91.7672H39.5974L36.4666 94.4028Z" fill="url(#paint0_linear_934_3442)"/>
<path d="M27.7908 42.4598L17.989 31.3912L17.8867 29.9413L28.5581 13.759L29.5347 13.2305H72.6285V15.6041H30.1622L20.3445 30.4939L29.5404 40.8778L27.7908 42.4598ZM32.6689 47.978L34.4185 46.396L38.3485 50.833L36.6001 52.4151L32.6689 47.978ZM65.0981 59.5796L63.3474 57.9976L87.7119 30.4928L81.1126 20.4743L83.0657 19.1588L90.1697 29.9425L90.0674 31.3901L65.0981 59.5796ZM57.3381 57.2336L66.742 30.24L68.9554 31.0282L59.5527 58.0206L57.3381 57.2336Z" fill="url(#paint1_linear_934_3442)"/>
<path d="M39.0781 31.0167L41.2938 30.2285L48.9049 52.0773L46.6903 52.8654L39.0781 31.0167Z" fill="url(#paint2_linear_934_3442)"/>
<path d="M40.206 31.793H18.8711V29.4194H38.0153L28.5637 15.0753L30.5168 13.7598L41.1836 29.9479L40.206 31.793ZM89.1931 31.7976H67.8628L66.8851 29.9536L76.3958 15.5279L78.3489 16.8423L70.0557 29.4251H89.1931V31.7976Z" fill="url(#paint3_linear_934_3442)"/>
<path d="M67.8622 31.793H40.2054L39.3164 29.8307L53.1448 13.6426H54.9217L68.7501 29.8307L67.8622 31.793ZM42.7701 29.4194H65.2975L54.0327 16.2334L42.7701 29.4194Z" fill="url(#paint4_linear_934_3442)"/>
<path d="M73.9952 77.0657H55.7343V74.6932H73.9952C74.7648 74.6932 75.3901 74.0613 75.3901 73.2823V72.7102C75.3932 71.8157 75.2212 70.9295 74.884 70.1025C74.5468 69.2755 74.0511 68.5241 73.4253 67.8916C72.7995 67.2591 72.0561 66.7579 71.2379 66.417C70.4197 66.0761 69.5428 65.9022 68.6578 65.9052H57.7021L56.9143 65.5984L55.981 64.7436C51.6632 60.7922 46.0449 58.6061 40.22 58.6108H40.087C36.8548 58.6159 33.6582 59.2923 30.6955 60.5978C27.7328 61.9034 25.0671 63.8104 22.864 66.2005L16.0794 73.5845L14.3594 71.9691L21.144 64.5851C23.5671 61.9564 26.499 59.859 29.7576 58.4232C33.0162 56.9874 36.5321 56.2437 40.087 56.2383H40.22C46.6273 56.2335 52.8071 58.6383 57.5566 62.9847L58.1557 63.5327H68.6578C70.3337 63.528 71.9779 63.9937 73.4073 64.878C74.8367 65.7622 75.995 67.0303 76.7531 68.5408C77.399 69.8338 77.7362 71.2617 77.7376 72.7102V73.2823C77.7367 74.2852 77.3422 75.2469 76.6405 75.9561C75.9389 76.6654 74.9876 77.0644 73.9952 77.0657Z" fill="url(#paint5_linear_934_3442)"/>
<path d="M30.7785 108C30.1289 108.001 29.4855 107.873 28.8852 107.622C28.2849 107.371 27.7395 107.003 27.2805 106.539L1.44946 80.4321C0.514984 79.4877 0 78.2319 0 76.8969C0 75.5619 0.514984 74.3061 1.44946 73.3629L5.95585 68.8075C6.89032 67.8642 8.13174 67.3438 9.45274 67.3438C10.7737 67.3438 12.0163 67.8642 12.9508 68.8075L38.7829 94.9152C39.7163 95.8585 40.2313 97.1142 40.2313 98.4492C40.2313 99.7843 39.7163 101.04 38.7829 101.984L34.2754 106.539C33.8165 107.003 33.2714 107.371 32.6713 107.622C32.0711 107.873 31.4279 108.001 30.7785 108ZM9.45274 69.7174C9.11136 69.7165 8.77321 69.7841 8.45786 69.9162C8.14251 70.0484 7.85624 70.2424 7.61562 70.4872L3.10923 75.0414C2.61812 75.5366 2.34755 76.1972 2.34755 76.8981C2.34755 77.5989 2.61812 78.2595 3.10923 78.7558L28.9403 104.862C29.9225 105.854 31.6346 105.854 32.6156 104.862L37.122 100.308C37.6131 99.8118 37.8837 99.1524 37.8837 98.4504C37.8837 97.7484 37.6131 97.0889 37.122 96.5938L11.291 70.486C11.0502 70.2411 10.7638 70.047 10.4482 69.9149C10.1327 69.7827 9.7943 69.7164 9.45274 69.7174Z" fill="url(#paint6_linear_934_3442)"/>
<path d="M81.5139 24.7957H79.313L76.505 17.129L68.9212 14.2924V12.067L76.505 9.23031L79.313 1.56481H81.5139L84.3218 9.23031L91.9056 12.0681V14.2924L84.3218 17.1302L81.5139 24.7957ZM72.7102 13.1803L77.826 15.0932L78.5194 15.794L80.4134 20.9641L82.3074 15.794L83.0008 15.0932L88.1166 13.1803L83.0008 11.2673L82.3074 10.5665L80.4134 5.39527L78.5194 10.5653L77.826 11.2662L72.7102 13.1803ZM32.08 54.4111H29.8791L27.5736 48.1151L21.3438 45.7862V43.5608L27.5736 41.2308L29.8791 34.9348H32.08L34.3855 41.2308L40.6141 43.5608V45.7862L34.3855 48.1151L32.08 54.4111ZM25.1339 44.6729L28.8946 46.0792L29.588 46.78L30.9795 50.5806L32.371 46.78L33.0645 46.0792L36.8251 44.6729L33.0656 43.2667L32.3721 42.5658L30.9795 38.7653L29.588 42.5658L28.8946 43.2667L25.1339 44.6729ZM41.3076 11.859H39.1078L37.8198 8.34336L34.3411 7.04394V4.81622L37.8198 3.51565L39.1078 0H41.3087L42.5968 3.51565L46.0743 4.81622V7.04509L42.5956 8.34566L41.3076 11.859ZM38.1313 5.93066L39.1397 6.3075L39.8331 7.00833L40.2072 8.02856L40.5812 7.00833L41.2746 6.3075L42.283 5.93066L41.2746 5.55267L40.5812 4.85183L40.2072 3.83275L39.8331 4.85183L39.1397 5.55267L38.1313 5.93066Z" fill="url(#paint7_linear_934_3442)"/>
<defs>
<linearGradient id="paint0_linear_934_3442" x1="71.0753" y1="47.0347" x2="71.3951" y2="98.2853" gradientUnits="userSpaceOnUse">
<stop stop-color="#BEFF71"/>
<stop offset="1" stop-color="#3D5F15"/>
</linearGradient>
<linearGradient id="paint1_linear_934_3442" x1="53.6245" y1="10.8299" x2="53.9668" y2="63.5752" gradientUnits="userSpaceOnUse">
<stop stop-color="#BEFF71"/>
<stop offset="1" stop-color="#3D5F15"/>
</linearGradient>
<linearGradient id="paint2_linear_934_3442" x1="43.9366" y1="29.0561" x2="44.5369" y2="54.804" gradientUnits="userSpaceOnUse">
<stop stop-color="#BEFF71"/>
<stop offset="1" stop-color="#3D5F15"/>
</linearGradient>
<linearGradient id="paint3_linear_934_3442" x1="53.6393" y1="12.8255" x2="53.6926" y2="33.3533" gradientUnits="userSpaceOnUse">
<stop stop-color="#BEFF71"/>
<stop offset="1" stop-color="#3D5F15"/>
</linearGradient>
<linearGradient id="paint4_linear_934_3442" x1="53.8688" y1="12.7025" x2="53.9977" y2="33.3577" gradientUnits="userSpaceOnUse">
<stop stop-color="#BEFF71"/>
<stop offset="1" stop-color="#3D5F15"/>
</linearGradient>
<linearGradient id="paint5_linear_934_3442" x1="45.6945" y1="55.1596" x2="45.7733" y2="78.8619" gradientUnits="userSpaceOnUse">
<stop stop-color="#BEFF71"/>
<stop offset="1" stop-color="#3D5F15"/>
</linearGradient>
<linearGradient id="paint6_linear_934_3442" x1="19.8909" y1="65.238" x2="20.3641" y2="111.502" gradientUnits="userSpaceOnUse">
<stop stop-color="#BEFF71"/>
<stop offset="1" stop-color="#3D5F15"/>
</linearGradient>
<linearGradient id="paint7_linear_934_3442" x1="56.2305" y1="-2.81812" x2="56.7138" y2="59.1005" gradientUnits="userSpaceOnUse">
<stop stop-color="#BEFF71"/>
<stop offset="1" stop-color="#3D5F15"/>
</linearGradient>
</defs>
</svg>
