<svg width="108" height="108" viewBox="0 0 108 108" fill="none" xmlns="http://www.w3.org/2000/svg">
<path d="M103.424 25.9353C103.424 14.3939 94.8389 5.00427 84.2858 5.00427C73.7327 5.00427 65.1471 14.3939 65.1471 25.9353C65.1471 37.4767 73.7327 46.8664 84.2858 46.8664C94.8389 46.8664 103.424 37.4767 103.424 25.9353ZM67.3069 25.9353C67.3069 15.6965 74.9237 7.36656 84.2856 7.36656C93.6475 7.36656 101.264 15.6967 101.264 25.9353C101.264 36.1739 93.6475 44.5041 84.2856 44.5041C74.9237 44.5041 67.3069 36.1739 67.3069 25.9353ZM85.3656 39.4431V36.8831C87.9828 36.623 89.9912 35.0334 90.4943 32.7198C91.22 29.3814 89.6156 26.7772 85.976 25.3866C85.7738 25.3103 85.5703 25.2382 85.3656 25.1702V17.4174C85.4608 17.4372 85.5559 17.458 85.6505 17.4833C86.3905 17.6815 88.1487 18.3613 88.4922 20.3913C88.5179 20.5438 88.5708 20.6894 88.648 20.8195C88.7252 20.9497 88.8251 21.0619 88.9419 21.1498C89.0588 21.2377 89.1904 21.2996 89.3292 21.3318C89.4679 21.364 89.6111 21.366 89.7506 21.3376C89.8901 21.3094 90.0231 21.2514 90.1421 21.167C90.261 21.0826 90.3636 20.9733 90.444 20.8455C90.5243 20.7177 90.5809 20.5739 90.6104 20.4221C90.6399 20.2704 90.6417 20.1138 90.6159 19.9613C90.2187 17.6132 88.5544 15.829 86.1641 15.189C85.9007 15.1201 85.6342 15.0663 85.3656 15.0279V12.4278C85.3656 11.7753 84.8822 11.2466 84.2856 11.2466C83.689 11.2466 83.2056 11.7753 83.2056 12.4278V15.0348C81.5925 15.292 80.1423 16.1042 79.2536 17.3482C77.5941 19.6712 77.827 22.9709 79.7947 25.023C80.7337 26.0019 81.9934 26.5247 83.2056 26.9322V34.3833C81.7757 34.0122 80.3807 33.0264 80.0494 31.1165C80.0244 30.9626 79.9718 30.8157 79.8945 30.6842C79.8173 30.5527 79.7169 30.4392 79.5993 30.3505C79.4816 30.2617 79.349 30.1994 79.2092 30.1671C79.0694 30.1348 78.9251 30.1331 78.7846 30.1623C78.6442 30.1914 78.5105 30.2507 78.3912 30.3368C78.2719 30.4229 78.1694 30.534 78.0897 30.6637C78.0099 30.7935 77.9545 30.9392 77.9267 31.0925C77.8988 31.2458 77.8991 31.4036 77.9274 31.5569C78.4644 34.6526 80.803 36.3325 83.2058 36.7924V39.4431C83.2058 40.0956 83.6892 40.6243 84.2858 40.6243C84.8824 40.6243 85.3658 40.0956 85.3658 39.4431H85.3656ZM88.393 32.1736C88.0909 33.5634 86.7463 34.3037 85.3656 34.505V27.6574C88.6712 28.9595 88.6797 30.8552 88.393 32.1736ZM81.2853 23.3134C79.949 21.9199 80.1084 19.9894 80.9562 18.8024C81.4478 18.114 82.2662 17.6378 83.2058 17.4282V24.4483C82.4511 24.1601 81.7638 23.8121 81.2853 23.3134ZM38.3 71.0444C37.9107 70.8977 37.5184 70.7607 37.1235 70.6333V58.635C37.4492 58.6787 37.7747 58.7411 38.0968 58.8273C39.2373 59.1328 41.9481 60.1861 42.4859 63.3643C42.5116 63.5169 42.5646 63.6625 42.6417 63.7926C42.7189 63.9228 42.8188 64.0351 42.9357 64.123C43.0525 64.2109 43.1841 64.2728 43.3229 64.305C43.4616 64.3372 43.6049 64.3393 43.7443 64.3109C43.8838 64.2827 44.0168 64.2248 44.1358 64.1403C44.2548 64.0559 44.3574 63.9467 44.4377 63.8189C44.5181 63.691 44.5746 63.5472 44.6041 63.3955C44.6336 63.2437 44.6355 63.0872 44.6096 62.9346C44.0776 59.7895 41.8349 57.3963 38.6104 56.5328C38.1214 56.4032 37.6245 56.3118 37.1235 56.2595V52.113C37.1235 51.7997 37.0097 51.4993 36.8072 51.2778C36.6046 51.0563 36.3299 50.9319 36.0435 50.9319C35.7571 50.9319 35.4824 51.0563 35.2798 51.2778C35.0773 51.4993 34.9635 51.7997 34.9635 52.113V56.2702C32.6255 56.5425 30.5033 57.658 29.2376 59.4297C26.9832 62.5857 27.2882 66.9009 29.9629 69.6903C31.3101 71.0954 33.1891 71.8202 34.9633 72.4008V84.0025C32.5935 83.5624 30.1165 82.0399 29.559 78.826C29.534 78.6721 29.4814 78.5251 29.4041 78.3936C29.3268 78.2621 29.2265 78.1487 29.1088 78.0599C28.9912 77.9712 28.8586 77.9088 28.7188 77.8765C28.5789 77.8442 28.4346 77.8426 28.2942 77.8717C28.1538 77.9009 28.0201 77.9602 27.9008 78.0463C27.7815 78.1324 27.679 78.2435 27.5992 78.3732C27.5195 78.5029 27.4641 78.6487 27.4363 78.802C27.4084 78.9553 27.4086 79.1131 27.437 79.2663C28.188 83.5966 31.5755 85.8727 34.9633 86.3886V90.5928C34.9633 90.906 35.0771 91.2065 35.2796 91.428C35.4821 91.6495 35.7568 91.7739 36.0433 91.7739C36.3297 91.7739 36.6044 91.6495 36.807 91.428C37.0095 91.2065 37.1233 90.906 37.1233 90.5928V86.4836C40.3346 86.2778 43.6482 84.5458 44.4409 80.9006C45.4129 76.429 43.232 72.9288 38.2998 71.0441L38.3 71.0444ZM31.4535 67.981C29.5996 66.0474 29.3836 63.0629 30.9396 60.8842C31.7995 59.6804 33.2919 58.8911 34.9635 58.6459V69.9298C33.6064 69.4579 32.3261 68.8909 31.4535 67.981ZM42.3397 80.3542C41.8198 82.7453 39.4196 83.9219 37.1235 84.1133V73.105C37.2814 73.1603 37.4365 73.2165 37.5877 73.2741C43.3964 75.4937 42.601 79.1522 42.3397 80.3542ZM103.838 50.02H93.0809C101.815 46.1915 108 36.8389 108 25.9353C108 11.6347 97.3618 0.000472198 84.2858 0.000472198C71.2098 0.000472198 60.5716 11.6347 60.5716 25.9353C60.5716 36.8389 66.7565 46.1915 75.4907 50.02H64.7337C64.0416 50.02 63.39 50.2083 62.8154 50.5364C59.8398 44.7573 56.3991 39.6434 52.7716 35.5992C53.9337 34.6016 54.6826 33.0529 54.6826 31.3154C54.6826 28.879 53.2116 26.8115 51.1898 26.1186C57.7811 14.9908 59.9677 6.78851 57.3376 2.92806C56.036 1.01744 53.6821 0.468678 50.8784 1.4221C48.6307 2.18677 47.2154 3.46288 46.0782 4.48811L45.9776 4.57906C45.201 5.27806 44.2258 6.06541 43.565 5.97044C43.1715 5.91233 42.7373 5.51901 42.2749 4.80135C40.1933 1.57045 38.1551 0 36.0435 0C33.9319 0 31.8935 1.57045 29.8119 4.80135C29.3497 5.51901 28.9157 5.91233 28.5219 5.97044C27.8593 6.06588 26.8857 5.27782 26.1097 4.57906L26.0084 4.48764C24.8713 3.4624 23.4563 2.18653 21.2088 1.42186C18.4054 0.468441 16.0512 1.01696 14.7496 2.92758C12.1196 6.78827 14.3061 14.9906 20.8974 26.1184C18.8758 26.8113 17.4049 28.879 17.4049 31.3154C17.4049 33.0527 18.1535 34.6011 19.3156 35.5987C11.5005 44.309 4.80342 57.6793 1.68136 70.9225C-1.09662 82.7072 -0.437387 91.3244 3.6975 97.2665C8.6979 104.453 18.3658 107.663 36.0247 108H36.0623C47.3243 107.785 55.0055 106.457 60.5843 103.729C60.718 106.108 62.5249 108 64.7333 108H103.838C106.133 108 108 105.958 108 103.448V96.2849C108 94.9481 107.467 93.7478 106.625 92.9144C107.467 92.0808 108 90.8805 108 89.5437V82.3808C108 81.0439 107.467 79.8437 106.625 79.01C107.467 78.1766 108 76.9763 108 75.6393V68.4763C108 67.1395 107.467 65.9392 106.625 65.1056C107.467 64.2722 108 63.0719 108 61.7348V54.5719C108 52.062 106.133 50.02 103.838 50.02ZM62.7314 25.9353C62.7314 12.9375 72.4006 2.36276 84.2856 2.36276C96.1705 2.36276 105.84 12.9375 105.84 25.9353C105.84 38.9331 96.1705 49.5081 84.2856 49.5081C72.4006 49.5081 62.7314 38.9333 62.7314 25.9353ZM16.4817 4.33952C17.4686 2.89049 19.4651 3.30295 20.5673 3.67808C22.4098 4.3048 23.5915 5.37042 24.6346 6.31085L24.737 6.40298C25.9805 7.52294 27.335 8.53069 28.811 8.31171C29.8387 8.16005 30.7439 7.45703 31.5781 6.16226C33.2024 3.64099 34.7049 2.36252 36.0439 2.36252C37.3829 2.36252 38.8852 3.64099 40.5097 6.16226C41.3437 7.45703 42.249 8.16005 43.2769 8.31171C44.7524 8.53022 46.1074 7.52294 47.3509 6.40298L47.4526 6.31132C48.4955 5.3709 49.6776 4.30503 51.5203 3.67832C52.6224 3.30342 54.6191 2.89073 55.6057 4.33976C57.2063 6.68905 56.2218 13.5749 48.7553 25.8713H23.3323C15.8659 13.5746 14.8815 6.68858 16.4817 4.33952ZM22.3832 28.2333H49.7038C51.2579 28.2333 52.5224 29.6162 52.5224 31.3159C52.5224 33.0156 51.2579 34.3982 49.7038 34.3982H22.3832C20.8291 34.3982 19.5649 33.0153 19.5649 31.3157C19.5649 29.616 20.8293 28.2333 22.3832 28.2333ZM36.0435 105.637C19.1305 105.312 9.97057 102.381 5.41643 95.8356C1.70836 90.5068 1.17095 82.5506 3.7731 71.5119C6.87896 58.3367 13.6089 45.0533 21.4045 36.6542C21.7212 36.7234 22.0484 36.7605 22.3834 36.7605H49.704C50.0388 36.7605 50.366 36.7236 50.6825 36.6542C54.4828 40.7499 58.0973 46.0986 61.1883 52.1995C60.7855 52.9123 60.572 53.7337 60.5716 54.5717V61.7346C60.5716 63.0714 61.1045 64.2717 61.9464 65.1053C61.1045 65.9388 60.5716 67.139 60.5716 68.4761V75.639C60.5716 76.9758 61.1045 78.1761 61.9464 79.0098C61.1045 79.8432 60.5716 81.0435 60.5716 82.3805V89.5434C60.5716 90.8803 61.1045 92.0808 61.9464 92.9142C61.1045 93.7476 60.5716 94.9479 60.5716 96.2847V101.125C55.2278 104.019 47.6133 105.415 36.0435 105.637V105.637ZM105.84 96.2845V103.447C105.84 104.655 104.942 105.637 103.838 105.637H64.7335C63.6297 105.637 62.7314 104.655 62.7314 103.447V96.2845C62.7314 95.0773 63.6295 94.0951 64.7335 94.0951H103.838C104.942 94.0951 105.84 95.0771 105.84 96.2845ZM105.84 82.3803V89.5432C105.84 90.7506 104.942 91.733 103.838 91.733H64.7335C63.6297 91.733 62.7314 90.7508 62.7314 89.5432V82.3803C62.7314 81.1732 63.6295 80.1907 64.7335 80.1907H103.838C104.942 80.1907 105.84 81.1729 105.84 82.3803ZM105.84 68.4761V75.639C105.84 76.8462 104.942 77.8286 103.838 77.8286H64.7335C63.6297 77.8286 62.7314 76.8464 62.7314 75.639V68.4761C62.7314 67.269 63.6295 66.2865 64.7335 66.2865H103.838C104.942 66.2865 105.84 67.2687 105.84 68.4761ZM64.7335 63.9242C63.6297 63.9242 62.7314 62.942 62.7314 61.7346V54.5717C62.7314 53.3645 63.6295 52.3821 64.7335 52.3821H103.838C104.942 52.3821 105.84 53.3643 105.84 54.5717V61.7346C105.84 62.9417 104.942 63.9242 103.838 63.9242H64.7335Z" fill="url(#paint0_linear_934_3413)"/>
<defs>
<linearGradient id="paint0_linear_934_3413" x1="54" y1="108" x2="54" y2="0.000231742" gradientUnits="userSpaceOnUse">
<stop offset="0.200054" stop-color="#59A500"/>
<stop offset="0.645529" stop-color="#BBFF6B"/>
</linearGradient>
</defs>
</svg>
