<svg width="40" height="40" viewBox="0 0 40 40" fill="none" xmlns="http://www.w3.org/2000/svg">
<path d="M26.7599 15.8362C27.2217 15.3231 27.1801 14.5327 26.6669 14.0709C26.1537 13.6091 25.3634 13.6507 24.9016 14.1638L17.7596 22.0993L15.0983 19.1055C14.6397 18.5895 13.8496 18.543 13.3336 19.0017C12.8176 19.4603 12.7712 20.2503 13.2298 20.7663L16.2641 24.1798C17.0556 25.0703 18.4454 25.0745 19.2422 24.189L26.7599 15.8362Z" fill="#B9FB6A"/>
<path fill-rule="evenodd" clip-rule="evenodd" d="M20 2.08203C19.0532 2.08203 15.4627 2.09665 11.0236 4.76016C9.004 5.9719 7.38373 6.37885 5.98402 6.34855C4.8759 6.32456 3.75 7.17653 3.75 8.48038V19.9987C3.75 20.4025 3.78923 21.1874 3.92035 21.7084C4.9467 25.787 7.9545 33.6907 19.5795 37.8425C19.8515 37.9397 20.1485 37.9397 20.4205 37.8425C32.0455 33.6907 35.0533 25.787 36.0797 21.7084C36.2108 21.1874 36.25 20.4025 36.25 19.9987V8.48038C36.25 7.17653 35.1242 6.32456 34.016 6.34855C32.6163 6.37885 30.996 5.9719 28.9765 4.76016C24.5373 2.09665 20.9468 2.08203 20 2.08203ZM12.3098 6.9039C16.1803 4.58156 19.2428 4.58195 19.9867 4.58203H20.0133C20.7572 4.58195 23.8197 4.58156 27.6902 6.9039C29.889 8.2232 31.87 8.8246 33.75 8.84931V19.9987C33.75 20.3517 33.7088 20.8854 33.6552 21.0984C32.769 24.6202 30.2352 31.5195 20 35.3347C9.7648 31.5195 7.231 24.6202 6.34477 21.0984C6.2912 20.8854 6.25 20.3517 6.25 19.9987V8.84931C8.13007 8.8246 10.1109 8.2232 12.3098 6.9039Z" fill="#B9FB6A"/>
</svg>
