<svg width="20" height="22" viewBox="0 0 20 22" fill="none" xmlns="http://www.w3.org/2000/svg">
<path d="M11.9366 10.6833V10.1665C11.9366 10.1174 11.9216 10.0722 11.8876 10.0382C11.5557 9.68365 11.2199 9.20458 10.8918 8.61613C10.5636 8.0239 10.3033 7.40903 10.126 6.78285C9.99775 6.34528 9.91477 5.85868 9.87704 5.33812C9.87327 5.24004 9.79028 5.1646 9.68844 5.1646H9.00945C8.95664 5.1646 8.91137 5.18346 8.87365 5.21741C8.84 5.25467 8.8212 5.303 8.82084 5.35321C8.82838 5.79455 8.91514 6.32642 9.07734 6.94129C9.24298 7.55945 9.47836 8.15677 9.77897 8.72175C10.0091 9.148 10.2505 9.52899 10.4994 9.85717H8.25501C8.14939 9.85717 8.06641 9.94015 8.06641 10.0458V10.6833C8.06641 10.7851 8.14939 10.8719 8.25501 10.8719H11.748C11.8537 10.8719 11.9366 10.7851 11.9366 10.6833Z" fill="white" fill-opacity="0.6"/>
<path d="M18.8412 21.1052H18.4191V20.8186C18.4191 20.6941 18.3357 20.596 18.2226 20.596H17.5666C17.4568 20.596 17.37 20.6941 17.37 20.8186V20.8223H15.2614V20.8186C15.2614 20.6941 15.1784 20.596 15.0649 20.596H14.4085C14.2995 20.596 14.2124 20.6941 14.2124 20.8186V20.8223H12.1037V20.8186C12.1037 20.6941 12.0204 20.596 11.9038 20.596H11.252C11.1384 20.596 11.0521 20.6941 11.0521 20.8186V20.8223H8.94719V20.8186C8.94719 20.6941 8.8642 20.596 8.74726 20.596H8.09468C7.98152 20.596 7.89476 20.6941 7.89476 20.8186V20.8223H5.78612V20.8186C5.78612 20.6941 5.70275 20.596 5.58997 20.596H4.93361C4.82384 20.596 4.73708 20.6941 4.73708 20.8186V20.8223H2.62844V20.8186C2.62844 20.6941 2.54545 20.596 2.43191 20.596H1.77631C1.66692 20.596 1.57978 20.6941 1.57978 20.8186V21.1052H1.15805C0.516409 21.1052 0 20.4942 0 19.7435V1.56167C0 0.701622 0.6639 0 1.47869 0H18.5213C19.3361 0 20 0.701622 20 1.56167V19.7435C19.9996 20.4942 19.4832 21.1052 18.8412 21.1052ZM13.4055 19.023C13.4055 19.1135 13.4998 19.1852 13.602 19.1852H15.1452C15.2542 19.1852 15.3414 19.1135 15.3414 19.023V18.7854C15.3414 18.6986 15.2546 18.6232 15.1452 18.6232H14.1226V18.0951H14.9336C15.043 18.0951 15.1298 18.0196 15.1298 17.9329V17.6952C15.1298 17.6047 15.0434 17.5368 14.9336 17.5368H14.1226V16.8163H15.1452C15.2542 16.8163 15.3414 16.7446 15.3414 16.6541V16.4202C15.3414 16.3297 15.2546 16.258 15.1452 16.258H13.602C13.4998 16.258 13.4055 16.3297 13.4055 16.4202V19.023ZM10.4221 19.023C10.4221 19.1135 10.5085 19.1852 10.6186 19.1852H11.0185C11.1015 19.1852 11.1769 19.1399 11.1992 19.0796L11.7503 17.7971V19.023C11.7503 19.1135 11.8404 19.1852 11.9498 19.1852H12.2629C12.3761 19.1852 12.4625 19.1135 12.4625 19.023V16.4202C12.4625 16.3297 12.3761 16.258 12.2629 16.258H11.8706C11.7876 16.258 11.708 16.2995 11.6862 16.3674L11.1313 17.6537V16.4202C11.1313 16.3297 11.0445 16.258 10.9351 16.258H10.6183C10.5085 16.258 10.4217 16.3297 10.4217 16.4202L10.4221 19.023ZM7.63108 19.023C7.63108 19.1135 7.72124 19.1852 7.83063 19.1852H8.14372C8.25688 19.1852 8.34327 19.1135 8.34327 19.023V17.1332C8.34327 16.8163 8.44172 16.7937 8.60355 16.7937C8.74689 16.7937 8.86382 16.8201 8.86382 17.1332V19.023C8.86382 19.1135 8.94681 19.1852 9.05998 19.1852H9.37684C9.48661 19.1852 9.57337 19.1135 9.57337 19.023V17.0539C9.57337 16.556 9.17729 16.2241 8.60392 16.2241C8.02301 16.2241 7.63108 16.5522 7.63108 17.0426V19.023ZM4.65824 17.367C4.65824 17.4538 4.74877 17.5255 4.85439 17.5255H5.17541C5.28103 17.5255 5.37193 17.4538 5.37193 17.367V17.0992C5.37193 17.0087 5.39457 16.7937 5.64353 16.7937C5.88834 16.7937 5.90004 17.0766 5.90004 17.1369V19.023C5.90004 19.1135 5.98642 19.1852 6.09657 19.1852H6.41343C6.52244 19.1852 6.60958 19.1135 6.60958 19.023V17.1143C6.60958 16.4994 6.09694 16.2241 5.62165 16.2241C5.14221 16.2241 4.65937 16.4994 4.65937 17.1218V17.367H4.65824ZM19.2716 1.56167C19.2716 1.10147 18.9355 0.728027 18.5209 0.728027H1.47831C1.06337 0.728027 0.72765 1.10147 0.72765 1.56167V14.0739H19.2716V1.56167ZM18.4191 21.2939V21.1052H1.58016V21.2939C1.58016 21.4183 1.66692 21.5164 1.77669 21.5164H2.43267C2.54621 21.5164 2.6292 21.4183 2.6292 21.2939V21.2637H4.73783V21.2939C4.73783 21.4183 4.82422 21.5164 4.93436 21.5164H5.59072C5.70351 21.5164 5.78687 21.4183 5.78687 21.2939V21.2637H7.89551V21.2939C7.89551 21.4183 7.98227 21.5164 8.09544 21.5164H8.74764C8.86496 21.5164 8.94757 21.4183 8.94757 21.2939V21.2637H11.0524V21.2939C11.0524 21.4183 11.1388 21.5164 11.2524 21.5164H11.9046C12.0215 21.5164 12.1045 21.4183 12.1045 21.2939V21.2637H14.2131V21.2939C14.2131 21.4183 14.2999 21.5164 14.4093 21.5164H15.0656C15.1792 21.5164 15.2622 21.4183 15.2622 21.2939V21.2637H17.3708V21.2939C17.3708 21.4183 17.4572 21.5164 17.5673 21.5164H18.2229C18.3361 21.5164 18.4191 21.4183 18.4191 21.2939Z" fill="white" fill-opacity="0.6"/>
</svg>
