<svg width="40" height="40" viewBox="0 0 40 40" fill="none" xmlns="http://www.w3.org/2000/svg">
<path d="M30.8838 10.8839C31.372 10.3957 31.372 9.60426 30.8838 9.11611C30.3957 8.62796 29.6043 8.62796 29.1162 9.11611L20 18.2322L10.8839 9.11611C10.3957 8.62796 9.60426 8.62796 9.11611 9.11611C8.62796 9.60426 8.62796 10.3957 9.11611 10.8839L18.2322 20L9.11611 29.1162C8.62796 29.6043 8.62796 30.3957 9.11611 30.8838C9.60426 31.372 10.3957 31.372 10.8839 30.8838L20 21.7678L29.1162 30.8838C29.6043 31.372 30.3957 31.372 30.8838 30.8838C31.372 30.3957 31.372 29.6043 30.8838 29.1162L21.7678 20L30.8838 10.8839Z" fill="#B9FB6A"/>
</svg>
