<svg width="70" height="70" viewBox="0 0 70 70" fill="none" xmlns="http://www.w3.org/2000/svg">
<path d="M37.918 8.75C50.8047 8.75 61.2513 19.1967 61.2513 32.0833M39.3763 18.9583C45.8195 18.9583 51.043 24.1817 51.043 30.625" stroke="white" stroke-width="4" stroke-linecap="round" stroke-linejoin="round"/>
<path d="M26.7116 16.6607L25.5372 14.0182C24.7693 12.2905 24.3853 11.4266 23.8111 10.7654C23.0915 9.93691 22.1535 9.32733 21.104 9.00623C20.2667 8.75 19.3213 8.75 17.4306 8.75C14.6647 8.75 13.2818 8.75 12.1209 9.28168C10.7534 9.90798 9.51834 11.2679 9.0263 12.6892C8.60857 13.8958 8.72821 15.1358 8.96753 17.6158C11.5147 44.0131 25.9869 58.4853 52.3842 61.0324C54.8643 61.2719 56.1041 61.3915 57.3108 60.9738C58.732 60.4818 60.0921 59.2465 60.7183 57.8792C61.25 56.7181 61.25 55.3353 61.25 52.5694C61.25 50.6785 61.25 49.7332 60.9939 48.8959C60.6728 47.8465 60.0632 46.9085 59.2346 46.1889C58.5734 45.6146 57.7095 45.2308 55.9816 44.4628L53.3394 43.2883C51.4681 42.4567 50.5327 42.0411 49.5819 41.9507C48.6722 41.8641 47.7549 41.9918 46.9032 42.3235C46.0133 42.67 45.2267 43.3253 43.6538 44.6361C42.0878 45.941 41.305 46.5935 40.3483 46.9429C39.5004 47.2526 38.3793 47.3675 37.4859 47.2357C36.4785 47.0873 35.7067 46.6751 34.1638 45.8503C29.3627 43.2848 26.7153 40.6373 24.1496 35.8362C23.325 34.2933 22.9127 33.5215 22.7642 32.5141C22.6326 31.6208 22.7473 30.4996 23.0571 29.6517C23.4066 28.695 24.059 27.9121 25.3639 26.3463C26.6747 24.7732 27.3302 23.9867 27.6767 23.0968C28.0083 22.2452 28.1359 21.3278 28.0494 20.4181C27.959 19.4674 27.5432 18.5318 26.7116 16.6607Z" stroke="white" stroke-width="4" stroke-linecap="round"/>
</svg>
