<svg width="70" height="70" viewBox="0 0 70 70" fill="none" xmlns="http://www.w3.org/2000/svg">
<path d="M52.5013 52.5C56.1317 53.7378 58.3346 55.3639 58.3346 57.1448C58.3346 61.0228 47.888 64.1667 35.0013 64.1667C22.1147 64.1667 11.668 61.0228 11.668 57.1448C11.668 55.3639 13.8708 53.7378 17.5013 52.5" stroke="white" stroke-width="4" stroke-linecap="round"/>
<path d="M43.75 27.708C43.75 32.5406 39.8326 36.458 35 36.458C30.1674 36.458 26.25 32.5406 26.25 27.708C26.25 22.8755 30.1674 18.958 35 18.958C39.8326 18.958 43.75 22.8755 43.75 27.708Z" stroke="white" stroke-width="4"/>
<path d="M35 5.83301C46.8382 5.83301 56.875 15.8314 56.875 27.9615C56.875 40.2847 46.6748 48.9326 37.2531 54.8132C36.5665 55.2084 35.7901 55.4163 35 55.4163C34.2099 55.4163 33.4335 55.2084 32.7469 54.8132C23.3428 48.8751 13.125 40.3273 13.125 27.9615C13.125 15.8314 23.1618 5.83301 35 5.83301Z" stroke="white" stroke-width="4"/>
</svg>
