<svg width="70" height="70" viewBox="0 0 70 70" fill="none" xmlns="http://www.w3.org/2000/svg">
<path d="M14.5774 20.417L11.0225 22.7869C8.47418 24.4858 7.2 25.3352 6.50948 26.6307C5.81896 27.9262 5.82409 29.4487 5.8343 32.4937C5.84664 36.1597 5.88071 39.8951 5.97506 43.6748C6.19889 52.6424 6.31083 57.1262 9.60783 60.4232C12.9048 63.7204 17.4492 63.8339 26.5378 64.0611C32.1921 64.2023 37.7962 64.2023 43.4502 64.0611C52.5391 63.8339 57.0833 63.7204 60.3803 60.4232C63.6773 57.1262 63.7893 52.6424 64.013 43.6748C64.1075 39.8951 64.1413 36.1597 64.1538 32.4937C64.164 29.4487 64.169 27.9261 63.4786 26.6307C62.788 25.3352 61.514 24.4858 58.9654 22.7869L55.4105 20.417" stroke="white" stroke-width="4" stroke-linejoin="round"/>
<path d="M5.83203 29.167L25.995 41.2647C30.3816 43.8967 32.5749 45.2127 34.9987 45.2127C37.4224 45.2127 39.6158 43.8967 44.0024 41.2647L64.1654 29.167" stroke="white" stroke-width="4" stroke-linejoin="round"/>
<path d="M14.582 34.9997V17.4997C14.582 11.9999 14.582 9.25009 16.2906 7.54156C17.9991 5.83301 20.749 5.83301 26.2487 5.83301H43.7488C49.2484 5.83301 51.9983 5.83301 53.7068 7.54156C55.4154 9.25009 55.4154 11.9999 55.4154 17.4997V34.9997" stroke="white" stroke-width="4"/>
<path d="M29.168 29.1667H40.8346M29.168 17.5H40.8346" stroke="white" stroke-width="4" stroke-linecap="round" stroke-linejoin="round"/>
</svg>
