<svg width="521" height="557" viewBox="0 0 521 557" fill="none" xmlns="http://www.w3.org/2000/svg">
<path d="M103.809 103.703L201.309 167.446" stroke="#B9FB6A" stroke-width="1.38647" stroke-miterlimit="1.5" stroke-linecap="round" stroke-linejoin="round"/>
<path d="M456.464 135.99L379.262 186.461" stroke="#B9FB6A" stroke-width="1.38647" stroke-miterlimit="1.5" stroke-linecap="round" stroke-linejoin="round"/>
<path d="M107.844 113.056L196.172 170.803" stroke="#B9FB6A" stroke-width="1.38647" stroke-miterlimit="1.5" stroke-linecap="round" stroke-linejoin="round"/>
<path d="M444.332 127.798L366.93 178.399" stroke="#B9FB6A" stroke-width="1.38647" stroke-miterlimit="1.5" stroke-linecap="round" stroke-linejoin="round"/>
<path d="M173.194 389.031L96.625 438.708" stroke="#B9FB6A" stroke-width="1.38647" stroke-miterlimit="1.5" stroke-linecap="round" stroke-linejoin="round"/>
<path d="M248.593 438.326L173.855 486.649L280.14 556.134" stroke="#B9FB6A" stroke-width="1.38647" stroke-miterlimit="1.5" stroke-linecap="round" stroke-linejoin="round"/>
<path d="M189.022 399.383L112.453 449.06" stroke="#B9FB6A" stroke-width="1.38647" stroke-miterlimit="1.5" stroke-linecap="round" stroke-linejoin="round"/>
<path d="M261.737 446.92L200.965 486.651L301.136 552.138" stroke="#B9FB6A" stroke-width="1.38647" stroke-miterlimit="1.5" stroke-linecap="round" stroke-linejoin="round"/>
<path d="M152.565 375.543L75.9961 425.22" stroke="#B9FB6A" stroke-width="1.38647" stroke-miterlimit="1.5" stroke-linecap="round" stroke-linejoin="round"/>
<path d="M411.977 383.668L478.018 426.84" stroke="#B9FB6A" stroke-width="0.489054" stroke-miterlimit="1.5" stroke-linecap="round"/>
<path d="M471.535 461.245L473.548 370.476L495.054 384.533" stroke="#B9FB6A" stroke-width="0.489054" stroke-miterlimit="1.5" stroke-linecap="round"/>
<path d="M478.02 426.84L479.829 339.308L512.082 359.897" stroke="#B9FB6A" stroke-width="0.489054" stroke-miterlimit="1.5" stroke-linecap="round"/>
<path fill-rule="evenodd" clip-rule="evenodd" d="M516.784 358.42C519.111 360.652 521 364.358 521 366.692C521 368.018 520.405 368.655 519.537 368.693C518.669 368.733 517.462 368.171 516.138 366.902C513.811 364.67 511.922 360.964 511.922 358.633C511.922 357.304 512.517 356.667 513.385 356.629C514.253 356.592 515.458 357.149 516.784 358.42ZM516.46 358.757C514.313 356.698 512.568 356.774 512.568 358.929C512.568 361.081 514.313 364.504 516.46 366.563C518.61 368.624 520.354 368.548 520.354 366.396C520.354 364.241 518.61 360.818 516.46 358.757Z" fill="#B9FB6A"/>
<path fill-rule="evenodd" clip-rule="evenodd" d="M499.757 383.156C502.084 385.387 503.973 389.094 503.973 391.427C503.973 392.753 503.378 393.391 502.51 393.428C501.641 393.468 500.434 392.906 499.111 391.637C496.784 389.405 494.895 385.699 494.895 383.368C494.895 382.04 495.49 381.402 496.358 381.365C497.226 381.327 498.431 381.884 499.757 383.156ZM499.433 383.492C497.285 381.433 495.54 381.51 495.54 383.664C495.54 385.816 497.285 389.239 499.433 391.299C501.582 393.36 503.327 393.283 503.327 391.131C503.327 388.977 501.582 385.553 499.433 383.492Z" fill="#B9FB6A"/>
<path d="M381.727 402.533L471.532 461.245" stroke="#B9FB6A" stroke-width="0.489054" stroke-miterlimit="1.5" stroke-linecap="round"/>
<path fill-rule="evenodd" clip-rule="evenodd" d="M33.54 161.411L53.164 174.241C53.2667 174.308 53.3298 174.433 53.3298 174.567C53.3297 174.702 53.2661 174.827 53.1634 174.894L33.5364 187.732C33.4337 187.799 33.3056 187.8 33.2011 187.731L13.5782 174.897C13.4755 174.83 13.4108 174.705 13.4123 174.57C13.4124 174.436 13.476 174.311 13.5787 174.243L33.2064 161.412C33.3092 161.344 33.4373 161.344 33.54 161.411ZM33.3722 161.739L13.7445 174.57L33.3688 187.404L52.9961 174.568L33.3722 161.739Z" fill="#B9FB6A"/>
<path fill-rule="evenodd" clip-rule="evenodd" d="M33.3691 161.738L13.7414 174.57L33.3657 187.404L52.993 174.568L33.3691 161.738Z" fill="url(#paint0_linear_1243_7161)"/>
<path fill-rule="evenodd" clip-rule="evenodd" d="M28.2971 170.553C30.9378 168.827 35.2275 168.826 37.8708 170.554C39.6021 171.686 40.335 173.276 40.337 174.761C40.3344 176.246 39.6036 177.837 37.8734 178.968C35.2306 180.696 30.9363 180.696 28.2954 178.969C26.5617 177.836 25.8308 176.245 25.8313 174.761C25.8314 173.274 26.5648 171.686 28.2971 170.553ZM29.1194 172.17C26.9318 173.601 26.9325 175.921 29.121 177.352C31.307 178.781 34.8593 178.783 37.0469 177.353C39.2365 175.922 39.2334 173.599 37.0473 172.17C34.8588 170.739 31.309 170.739 29.1194 172.17Z" fill="#B9FB6A"/>
<path d="M37.0445 177.353C39.2337 175.922 39.2337 173.601 37.0445 172.17C34.8552 170.739 31.3057 170.739 29.1164 172.17C26.9272 173.601 26.9271 175.922 29.1164 177.353C31.3056 178.784 34.8552 178.784 37.0445 177.353Z" fill="#B9FB6A"/>
<path fill-rule="evenodd" clip-rule="evenodd" d="M53.5394 174.569V277.224C53.5394 277.44 53.4367 277.641 53.2703 277.749L33.6433 290.581C33.4776 290.689 33.2735 290.689 33.1077 290.581C32.942 290.472 32.8398 290.274 32.8398 290.055L32.8359 187.399C32.8359 187.183 32.9381 186.982 33.1038 186.874L52.7356 174.044C52.902 173.936 53.1056 173.936 53.2703 174.044C53.4367 174.152 53.5394 174.353 53.5394 174.569ZM53.003 174.569L33.3715 187.399L33.3754 290.055L53.003 277.224V174.569Z" fill="#B9FB6A"/>
<path fill-rule="evenodd" clip-rule="evenodd" d="M53.0025 174.568V277.222L33.375 290.054L33.3711 187.398L53.0025 174.568Z" fill="url(#paint1_linear_1243_7161)"/>
<path fill-rule="evenodd" clip-rule="evenodd" d="M14.0143 174.044L33.6382 186.874C33.804 186.982 33.906 187.183 33.906 187.399L33.9099 290.055C33.9099 290.272 33.8079 290.472 33.6421 290.581C33.4764 290.689 33.2723 290.689 33.1065 290.581L13.4787 277.749C13.3129 277.641 13.2109 277.44 13.2109 277.224V174.569C13.2109 174.353 13.3129 174.152 13.4787 174.044C13.6444 173.936 13.8485 173.936 14.0143 174.044ZM13.7466 174.569V277.224L33.3742 290.055L33.3703 187.399L13.7466 174.569Z" fill="#B9FB6A"/>
<path fill-rule="evenodd" clip-rule="evenodd" d="M13.7461 174.568V277.222L33.3738 290.054L33.3699 187.398L13.7461 174.568Z" fill="url(#paint2_linear_1243_7161)"/>
<path d="M0.605546 168.181L5.81324 146.714L7.60969 145.188L12.7972 157.826L11.0007 159.351L6.70137 148.516L2.38181 166.672L0.605546 168.181ZM2.98736 161.775L3.4718 159.708L9.87039 154.273L10.3548 155.517L2.98736 161.775ZM20.2459 151.791C18.8733 152.957 17.6824 153.603 16.6732 153.73C15.6774 153.829 14.9104 153.45 14.3721 152.592C13.8338 151.718 13.5647 150.405 13.5647 148.652C13.5647 146.899 13.8338 145.136 14.3721 143.364C14.9104 141.576 15.6774 139.894 16.6732 138.317C17.6824 136.713 18.8733 135.329 20.2459 134.163C21.8607 132.791 23.1727 132.139 24.1819 132.207C25.1912 132.275 25.8371 133.033 26.1197 134.482L24.2425 136.076C24.0272 135.204 23.5898 134.731 22.9305 134.658C22.2711 134.569 21.3762 135.004 20.2459 135.964C19.2366 136.822 18.362 137.849 17.6219 139.045C16.8817 140.226 16.3098 141.515 15.9061 142.913C15.5024 144.295 15.3006 145.716 15.3006 147.177C15.3006 148.638 15.5024 149.725 15.9061 150.437C16.3098 151.133 16.8817 151.451 17.6219 151.39C18.362 151.313 19.2366 150.846 20.2459 149.989C21.3762 149.029 22.2711 147.961 22.9305 146.784C23.5898 145.591 24.0272 144.383 24.2425 143.161L26.1197 141.567C25.8371 143.446 25.1912 145.277 24.1819 147.06C23.1727 148.842 21.8607 150.419 20.2459 151.791ZM31.5533 141.894V126.53L27.3347 130.114V128.434L37.4675 119.827V121.507L33.2489 125.09V140.454L31.5533 141.894ZM39.5576 135.096V118.052L41.2531 116.612V133.656L39.5576 135.096ZM48.5272 127.477L43.2186 114.942L45.0554 113.382L49.5163 124.47L54.0175 105.77L55.814 104.244L50.5053 125.797L48.5272 127.477ZM57.791 119.608V102.565L66.531 95.1409V96.821L59.4865 102.804V108.745L65.9255 103.276V104.932L59.4865 110.401V116.488L66.531 110.505V112.185L57.791 119.608Z" fill="#B9FB6A"/>
<path d="M61.2734 201.724L75.994 192.296V263.18L122.694 293.709" stroke="#B9FB6A" stroke-width="1.38647" stroke-miterlimit="1.5" stroke-linecap="round" stroke-linejoin="round"/>
<path d="M58.3398 211.926L90.2238 191.106V253.88L136.924 284.41" stroke="#B9FB6A" stroke-width="1.38647" stroke-miterlimit="1.5" stroke-linecap="round" stroke-linejoin="round"/>
<path d="M61.2747 176.807L35.8047 193.459" stroke="#B9FB6A" stroke-width="1.38647" stroke-miterlimit="1.5" stroke-linecap="round" stroke-linejoin="round"/>
<path d="M61.2747 185.111L35.8047 201.763" stroke="#B9FB6A" stroke-width="1.38647" stroke-miterlimit="1.5" stroke-linecap="round" stroke-linejoin="round"/>
<path d="M61.2747 193.417L35.8047 210.069" stroke="#B9FB6A" stroke-width="1.38647" stroke-miterlimit="1.5" stroke-linecap="round" stroke-linejoin="round"/>
<path d="M61.2747 201.724L35.8047 218.376" stroke="#B9FB6A" stroke-width="1.38647" stroke-miterlimit="1.5" stroke-linecap="round" stroke-linejoin="round"/>
<path d="M61.2747 210.033L35.8047 226.685" stroke="#B9FB6A" stroke-width="1.38647" stroke-miterlimit="1.5" stroke-linecap="round" stroke-linejoin="round"/>
<path d="M61.2747 218.339L35.8047 234.991" stroke="#B9FB6A" stroke-width="1.38647" stroke-miterlimit="1.5" stroke-linecap="round" stroke-linejoin="round"/>
<path d="M61.2747 226.646L35.8047 243.299" stroke="#B9FB6A" stroke-width="1.38647" stroke-miterlimit="1.5" stroke-linecap="round" stroke-linejoin="round"/>
<path d="M61.2747 234.951L35.8047 251.603" stroke="#B9FB6A" stroke-width="1.38647" stroke-miterlimit="1.5" stroke-linecap="round" stroke-linejoin="round"/>
<path d="M61.2747 243.257L35.8047 259.909" stroke="#B9FB6A" stroke-width="1.38647" stroke-miterlimit="1.5" stroke-linecap="round" stroke-linejoin="round"/>
<path d="M61.2747 251.565L35.8047 268.218" stroke="#B9FB6A" stroke-width="1.38647" stroke-miterlimit="1.5" stroke-linecap="round" stroke-linejoin="round"/>
<path d="M61.2747 259.875L35.8047 276.527" stroke="#B9FB6A" stroke-width="1.38647" stroke-miterlimit="1.5" stroke-linecap="round" stroke-linejoin="round"/>
<path d="M61.2747 268.18L35.8047 284.832" stroke="#B9FB6A" stroke-width="1.38647" stroke-miterlimit="1.5" stroke-linecap="round" stroke-linejoin="round"/>
<path fill-rule="evenodd" clip-rule="evenodd" d="M63.2731 173.191C64.003 172.491 64.669 172.205 65.1479 172.226C65.6268 172.247 65.978 172.577 65.978 173.309C65.978 174.461 65.0457 176.29 63.897 177.391C63.1665 178.092 62.5004 178.378 62.0215 178.357C61.5433 178.336 61.1914 178.006 61.1914 177.274C61.1914 176.122 62.1237 174.294 63.2731 173.191ZM63.5847 173.518C62.6077 174.455 61.8153 176.009 61.8153 176.988C61.8153 177.968 62.6077 178.002 63.5847 177.065C64.5611 176.129 65.3541 174.574 65.3541 173.595C65.3541 172.615 64.5611 172.581 63.5847 173.518Z" fill="#B9FB6A"/>
<path fill-rule="evenodd" clip-rule="evenodd" d="M63.2731 181.22C64.003 180.52 64.669 180.234 65.1479 180.254C65.6268 180.275 65.978 180.606 65.978 181.337C65.978 182.489 65.0457 184.318 63.897 185.419C63.1665 186.12 62.5004 186.406 62.0215 186.386C61.5433 186.364 61.1914 186.034 61.1914 185.302C61.1914 184.151 62.1237 182.322 63.2731 181.22ZM63.5847 181.546C62.6077 182.483 61.8153 184.037 61.8153 185.017C61.8153 185.996 62.6077 186.03 63.5847 185.094C64.5611 184.157 65.3541 182.602 65.3541 181.623C65.3541 180.644 64.5611 180.61 63.5847 181.546Z" fill="#B9FB6A"/>
<path fill-rule="evenodd" clip-rule="evenodd" d="M63.2731 189.329C64.003 188.629 64.669 188.343 65.1479 188.363C65.6268 188.385 65.978 188.715 65.978 189.447C65.978 190.598 65.0457 192.427 63.897 193.529C63.1665 194.229 62.5004 194.515 62.0215 194.495C61.5433 194.473 61.1914 194.143 61.1914 193.412C61.1914 192.26 62.1237 190.431 63.2731 189.329ZM63.5847 189.655C62.6077 190.592 61.8153 192.147 61.8153 193.126C61.8153 194.105 62.6077 194.14 63.5847 193.203C64.5611 192.267 65.3541 190.712 65.3541 189.732C65.3541 188.753 64.5611 188.719 63.5847 189.655Z" fill="#B9FB6A"/>
<path fill-rule="evenodd" clip-rule="evenodd" d="M63.2731 214.794C64.003 214.094 64.669 213.808 65.1479 213.828C65.6268 213.849 65.978 214.18 65.978 214.912C65.978 216.063 65.0457 217.892 63.897 218.994C63.1665 219.694 62.5004 219.98 62.0215 219.96C61.5433 219.938 61.1914 219.608 61.1914 218.876C61.1914 217.725 62.1237 215.896 63.2731 214.794ZM63.5847 215.12C62.6077 216.057 61.8153 217.612 61.8153 218.591C61.8153 219.57 62.6077 219.605 63.5847 218.668C64.5611 217.732 65.3541 216.177 65.3541 215.197C65.3541 214.218 64.5611 214.184 63.5847 215.12Z" fill="#B9FB6A"/>
<path fill-rule="evenodd" clip-rule="evenodd" d="M63.2731 206.323C64.003 205.623 64.669 205.337 65.1479 205.357C65.6268 205.379 65.978 205.709 65.978 206.441C65.978 207.592 65.0457 209.421 63.897 210.523C63.1665 211.223 62.5004 211.51 62.0215 211.489C61.5433 211.467 61.1914 211.137 61.1914 210.406C61.1914 209.254 62.1237 207.425 63.2731 206.323ZM63.5847 206.65C62.6077 207.586 61.8153 209.141 61.8153 210.12C61.8153 211.099 62.6077 211.134 63.5847 210.197C64.5611 209.261 65.3541 207.706 65.3541 206.727C65.3541 205.747 64.5611 205.713 63.5847 206.65Z" fill="#B9FB6A"/>
<path d="M63.5821 210.196C64.5595 209.259 65.3518 207.705 65.3518 206.726C65.3518 205.746 64.5595 205.712 63.5821 206.649C62.6048 207.586 61.8125 209.14 61.8125 210.119C61.8125 211.099 62.6048 211.133 63.5821 210.196Z" fill="#B9FB6A"/>
<path fill-rule="evenodd" clip-rule="evenodd" d="M63.2731 197.927C64.003 197.227 64.669 196.941 65.1479 196.961C65.6268 196.982 65.978 197.313 65.978 198.044C65.978 199.196 65.0457 201.025 63.897 202.126C63.1665 202.827 62.5004 203.113 62.0215 203.093C61.5433 203.071 61.1914 202.741 61.1914 202.009C61.1914 200.858 62.1237 199.029 63.2731 197.927ZM63.5847 198.253C62.6077 199.19 61.8153 200.744 61.8153 201.724C61.8153 202.703 62.6077 202.737 63.5847 201.801C64.5611 200.864 65.3541 199.309 65.3541 198.33C65.3541 197.351 64.5611 197.317 63.5847 198.253Z" fill="#B9FB6A"/>
<path d="M63.5821 201.8C64.5595 200.863 65.3518 199.309 65.3518 198.329C65.3518 197.349 64.5595 197.315 63.5821 198.252C62.6048 199.189 61.8125 200.743 61.8125 201.723C61.8125 202.703 62.6048 202.737 63.5821 201.8Z" fill="#B9FB6A"/>
<path fill-rule="evenodd" clip-rule="evenodd" d="M63.2731 223.098C64.003 222.398 64.669 222.112 65.1479 222.132C65.6268 222.153 65.978 222.484 65.978 223.215C65.978 224.367 65.0457 226.196 63.897 227.297C63.1665 227.998 62.5004 228.284 62.0215 228.264C61.5433 228.242 61.1914 227.912 61.1914 227.18C61.1914 226.029 62.1237 224.2 63.2731 223.098ZM63.5847 223.424C62.6077 224.361 61.8153 225.915 61.8153 226.895C61.8153 227.874 62.6077 227.908 63.5847 226.972C64.5611 226.035 65.3541 224.48 65.3541 223.501C65.3541 222.522 64.5611 222.488 63.5847 223.424Z" fill="#B9FB6A"/>
<path fill-rule="evenodd" clip-rule="evenodd" d="M63.2731 230.965C64.003 230.265 64.669 229.979 65.1479 229.999C65.6268 230.02 65.978 230.351 65.978 231.083C65.978 232.234 65.0457 234.063 63.897 235.165C63.1665 235.865 62.5004 236.151 62.0215 236.131C61.5433 236.109 61.1914 235.779 61.1914 235.047C61.1914 233.896 62.1237 232.067 63.2731 230.965ZM63.5847 231.291C62.6077 232.228 61.8153 233.782 61.8153 234.762C61.8153 235.741 62.6077 235.776 63.5847 234.839C64.5611 233.902 65.3541 232.347 65.3541 231.368C65.3541 230.389 64.5611 230.355 63.5847 231.291Z" fill="#B9FB6A"/>
<path fill-rule="evenodd" clip-rule="evenodd" d="M63.2731 239.11C64.003 238.41 64.669 238.124 65.1479 238.145C65.6268 238.166 65.978 238.496 65.978 239.228C65.978 240.38 65.0457 242.208 63.897 243.31C63.1665 244.011 62.5004 244.297 62.0215 244.276C61.5433 244.255 61.1914 243.925 61.1914 243.193C61.1914 242.041 62.1237 240.212 63.2731 239.11ZM63.5847 239.437C62.6077 240.374 61.8153 241.928 61.8153 242.907C61.8153 243.887 62.6077 243.921 63.5847 242.984C64.5611 242.048 65.3541 240.493 65.3541 239.514C65.3541 238.534 64.5611 238.5 63.5847 239.437Z" fill="#B9FB6A"/>
<path fill-rule="evenodd" clip-rule="evenodd" d="M63.2731 247.532C64.003 246.832 64.669 246.546 65.1479 246.566C65.6268 246.588 65.978 246.918 65.978 247.65C65.978 248.801 65.0457 250.63 63.897 251.732C63.1665 252.432 62.5004 252.719 62.0215 252.698C61.5433 252.676 61.1914 252.346 61.1914 251.615C61.1914 250.463 62.1237 248.634 63.2731 247.532ZM63.5847 247.859C62.6077 248.795 61.8153 250.35 61.8153 251.329C61.8153 252.308 62.6077 252.343 63.5847 251.406C64.5611 250.47 65.3541 248.915 65.3541 247.936C65.3541 246.956 64.5611 246.922 63.5847 247.859Z" fill="#B9FB6A"/>
<path fill-rule="evenodd" clip-rule="evenodd" d="M63.2731 255.384C64.003 254.684 64.669 254.398 65.1479 254.418C65.6268 254.439 65.978 254.77 65.978 255.501C65.978 256.653 65.0457 258.482 63.897 259.583C63.1665 260.284 62.5004 260.57 62.0215 260.55C61.5433 260.528 61.1914 260.198 61.1914 259.466C61.1914 258.315 62.1237 256.486 63.2731 255.384ZM63.5847 255.71C62.6077 256.647 61.8153 258.201 61.8153 259.181C61.8153 260.16 62.6077 260.195 63.5847 259.258C64.5611 258.321 65.3541 256.766 65.3541 255.787C65.3541 254.808 64.5611 254.774 63.5847 255.71Z" fill="#B9FB6A"/>
<path fill-rule="evenodd" clip-rule="evenodd" d="M63.5192 264.655C64.2491 263.955 64.9151 263.669 65.394 263.69C65.8729 263.711 66.2241 264.041 66.2241 264.773C66.2241 265.924 65.2918 267.753 64.1431 268.855C63.4125 269.555 62.7465 269.842 62.2676 269.821C61.7893 269.799 61.4375 269.469 61.4375 268.738C61.4375 267.586 62.3698 265.757 63.5192 264.655ZM63.8308 264.982C62.8538 265.918 62.0614 267.473 62.0614 268.452C62.0614 269.431 62.8538 269.466 63.8308 268.529C64.8072 267.593 65.6002 266.038 65.6002 265.059C65.6002 264.079 64.8072 264.045 63.8308 264.982Z" fill="#B9FB6A"/>
<path fill-rule="evenodd" clip-rule="evenodd" d="M456.468 114.47L437.77 126.694L456.469 138.919L475.162 126.699L456.468 114.47Z" fill="#1A260B"/>
<path fill-rule="evenodd" clip-rule="evenodd" d="M475.539 77.8197L475.542 126.7C475.542 126.855 475.47 126.996 475.352 127.072L456.659 139.293C456.542 139.371 456.397 139.371 456.279 139.293C456.161 139.217 456.089 139.075 456.089 138.921L456.086 90.0365C456.086 89.8818 456.158 89.7405 456.276 89.6641L474.969 77.4474C475.087 77.3691 475.232 77.3691 475.348 77.4474C475.467 77.5238 475.539 77.665 475.539 77.8197ZM475.16 77.8197L456.466 90.0365L456.469 138.921L475.161 126.7L475.16 77.8197Z" fill="#B9FB6A"/>
<path fill-rule="evenodd" clip-rule="evenodd" d="M475.158 77.8203L475.16 126.701L456.468 138.921L456.465 90.0371L475.158 77.8203Z" fill="url(#paint3_linear_1243_7161)"/>
<path fill-rule="evenodd" clip-rule="evenodd" d="M437.967 77.4454L456.657 89.6679C456.775 89.7443 456.847 89.8856 456.847 90.0402L456.85 138.921C456.85 139.075 456.778 139.217 456.66 139.293C456.542 139.371 456.397 139.371 456.28 139.293L437.581 127.069C437.463 126.992 437.391 126.849 437.391 126.696L437.397 77.8178C437.397 77.6632 437.469 77.5218 437.587 77.4454C437.705 77.3671 437.85 77.3671 437.967 77.4454ZM437.777 77.8178L437.771 126.696L456.47 138.921L456.467 90.0402L437.777 77.8178Z" fill="#B9FB6A"/>
<path fill-rule="evenodd" clip-rule="evenodd" d="M437.776 77.8174L437.77 126.696L456.469 138.92L456.465 90.0398L437.776 77.8174Z" fill="url(#paint4_linear_1243_7161)"/>
<path fill-rule="evenodd" clip-rule="evenodd" d="M456.627 65.2842L475.32 77.5046C475.418 77.5685 475.479 77.687 475.479 77.8149C475.478 77.9438 475.417 78.0627 475.319 78.1267L456.63 90.3495C456.532 90.4134 456.41 90.4138 456.312 90.3499L437.62 78.1295C437.522 78.0655 437.462 77.9461 437.462 77.8182C437.46 77.6892 437.521 77.5703 437.62 77.5053L456.311 65.2837C456.409 65.2197 456.528 65.2191 456.627 65.2842ZM456.469 65.595L437.779 77.8178L456.472 90.0382L475.161 77.8154L456.469 65.595Z" fill="#B9FB6A"/>
<path fill-rule="evenodd" clip-rule="evenodd" d="M456.466 65.5949L437.777 77.8176L456.469 90.038L475.159 77.8153L456.466 65.5949Z" fill="url(#paint5_linear_1243_7161)"/>
<path fill-rule="evenodd" clip-rule="evenodd" d="M122.895 85.7478L122.897 112.516C122.897 112.601 122.858 112.678 122.793 112.72L112.556 119.413C112.492 119.455 112.412 119.455 112.348 119.413C112.284 119.371 112.244 119.293 112.244 119.209L112.242 92.4381C112.242 92.3534 112.282 92.276 112.346 92.2342L122.583 85.5439C122.648 85.501 122.727 85.501 122.791 85.5439C122.856 85.5857 122.895 85.6631 122.895 85.7478ZM122.688 85.7478L112.45 92.4381L112.452 119.209L122.689 112.516L122.688 85.7478Z" fill="#B9FB6A"/>
<path fill-rule="evenodd" clip-rule="evenodd" d="M122.686 85.7451L122.687 112.514L112.451 119.206L112.449 92.4355L122.686 85.7451Z" fill="url(#paint6_linear_1243_7161)"/>
<path fill-rule="evenodd" clip-rule="evenodd" d="M102.316 85.5439L112.551 92.2373C112.615 92.2792 112.655 92.3565 112.655 92.4412L112.657 119.21C112.657 119.294 112.617 119.372 112.553 119.414C112.488 119.457 112.409 119.457 112.344 119.414L102.104 112.719C102.04 112.677 102 112.599 102 112.515L102.003 85.7478C102.003 85.6631 102.043 85.5857 102.107 85.5439C102.172 85.501 102.251 85.501 102.316 85.5439ZM102.212 85.7478L102.208 112.515L112.448 119.21L112.447 92.4412L102.212 85.7478Z" fill="#B9FB6A"/>
<path fill-rule="evenodd" clip-rule="evenodd" d="M102.214 85.748L102.211 112.515L112.451 119.21L112.449 92.4414L102.214 85.748Z" fill="url(#paint7_linear_1243_7161)"/>
<path fill-rule="evenodd" clip-rule="evenodd" d="M112.535 78.883L122.771 85.5753C122.825 85.6104 122.859 85.6753 122.859 85.7453C122.858 85.8159 122.825 85.881 122.771 85.916L112.536 92.6096C112.483 92.6447 112.416 92.6449 112.362 92.6099L102.126 85.9175C102.072 85.8825 102.039 85.8171 102.039 85.7471C102.038 85.6764 102.071 85.6113 102.126 85.5757L112.362 78.8827C112.415 78.8477 112.48 78.8474 112.535 78.883ZM112.448 79.0532L102.213 85.7468L112.45 92.4392L122.685 85.7456L112.448 79.0532Z" fill="#B9FB6A"/>
<path fill-rule="evenodd" clip-rule="evenodd" d="M112.452 79.0537L102.217 85.7473L112.453 92.4396L122.688 85.746L112.452 79.0537Z" fill="url(#paint8_linear_1243_7161)"/>
<path d="M113.373 365.948C113.55 365.829 113.768 365.829 113.949 365.949L113.95 365.95C114.134 366.069 114.254 366.294 114.254 366.552L114.182 475.481C114.182 475.707 114.09 475.908 113.945 476.034L113.88 476.084L80.5674 497.861L80.5664 497.862C80.3872 497.982 80.1699 497.982 79.9902 497.862L79.9883 497.861L79.9229 497.812C79.7775 497.685 79.6855 497.484 79.6855 497.259L79.6943 388.377C79.6944 388.123 79.8148 387.894 79.9971 387.775V387.774L113.372 365.949L113.373 365.948ZM113.577 366.426L80.2041 388.252L80.1367 388.296V388.377L80.1279 497.259V497.536L80.3604 497.385L113.672 475.606L113.74 475.562V475.481L113.81 366.552V366.274L113.577 366.426Z" fill="#B9FB6A" stroke="#9EFB2E" stroke-width="0.300507"/>
<path d="M113.438 475.401L80.4277 496.982L80.4346 388.46L113.507 366.831L113.438 475.401Z" fill="url(#paint9_linear_1243_7161)" stroke="#9EFB2E" stroke-width="0.300507"/>
<path d="M46.6836 365.99C46.8407 365.888 47.0278 365.874 47.1924 365.951L47.2617 365.99L80.5732 387.768C80.7559 387.887 80.876 388.112 80.876 388.37L80.8682 497.259C80.8681 497.516 80.7469 497.742 80.5645 497.861C80.385 497.978 80.1667 497.978 79.9873 497.861L46.6836 476.09C46.5014 475.971 46.3809 475.742 46.3809 475.487V366.593C46.3809 366.335 46.5011 366.109 46.6836 365.99ZM80.4346 388.289L80.3662 388.244L47.0547 366.467L46.8223 366.314V475.569L46.8906 475.613L80.1934 497.384L80.4258 497.536V497.259L80.4346 388.37V388.289Z" fill="#B9FB6A" stroke="#71D000" stroke-width="0.300507"/>
<path d="M80.1328 388.45L80.125 496.979L47.123 475.405V366.869L80.1328 388.45Z" fill="url(#paint10_linear_1243_7161)" stroke="#71D000" stroke-width="0.300507"/>
<path d="M80.1316 344.256C80.1921 344.216 80.2451 344.205 80.2828 344.205C80.3203 344.205 80.3723 344.215 80.4308 344.254L113.814 366.078C113.939 366.16 114.038 366.334 114.042 366.545C114.039 366.757 113.939 366.931 113.813 367.014L80.43 388.826C80.3712 388.865 80.3189 388.875 80.2813 388.875C80.2438 388.875 80.193 388.865 80.1349 388.827L46.8272 367.059C46.6986 366.975 46.5991 366.799 46.5992 366.59C46.5992 366.408 46.6755 366.251 46.779 366.16L46.8248 366.124L80.1316 344.256ZM80.1488 344.635L46.8387 366.501L46.7038 366.589L46.8387 366.678L80.1488 388.448L80.2845 388.537L80.4194 388.448L113.799 366.634L113.935 366.545L80.2837 344.545L80.1488 344.635Z" fill="#B9FB6A" stroke="#9EFB2E" stroke-width="0.322915"/>
<path d="M113.394 366.545L80.2851 388.184L47.2446 366.59L80.285 344.9L113.394 366.545Z" fill="url(#paint11_linear_1243_7161)" stroke="#9EFB2E" stroke-width="0.322915"/>
<path d="M108.849 376.041L83.3789 392.693" stroke="#9EFB2E" stroke-width="1.38647" stroke-miterlimit="1.5" stroke-linecap="round" stroke-linejoin="round"/>
<path d="M108.849 384.347L83.3789 400.999" stroke="#9EFB2E" stroke-width="1.38647" stroke-miterlimit="1.5" stroke-linecap="round" stroke-linejoin="round"/>
<path d="M108.849 392.651L83.3789 409.304" stroke="#9EFB2E" stroke-width="1.38647" stroke-miterlimit="1.5" stroke-linecap="round" stroke-linejoin="round"/>
<path d="M108.849 400.958L83.3789 417.61" stroke="#9EFB2E" stroke-width="1.38647" stroke-miterlimit="1.5" stroke-linecap="round" stroke-linejoin="round"/>
<path d="M108.849 409.269L83.3789 425.921" stroke="#9EFB2E" stroke-width="1.38647" stroke-miterlimit="1.5" stroke-linecap="round" stroke-linejoin="round"/>
<path d="M108.849 417.574L83.3789 434.226" stroke="#9EFB2E" stroke-width="1.38647" stroke-miterlimit="1.5" stroke-linecap="round" stroke-linejoin="round"/>
<path d="M108.849 425.881L83.3789 442.533" stroke="#9EFB2E" stroke-width="1.38647" stroke-miterlimit="1.5" stroke-linecap="round" stroke-linejoin="round"/>
<path d="M108.849 434.186L83.3789 450.838" stroke="#9EFB2E" stroke-width="1.38647" stroke-miterlimit="1.5" stroke-linecap="round" stroke-linejoin="round"/>
<path d="M108.849 442.493L83.3789 459.145" stroke="#9EFB2E" stroke-width="1.38647" stroke-miterlimit="1.5" stroke-linecap="round" stroke-linejoin="round"/>
<path d="M108.849 450.8L83.3789 467.452" stroke="#9EFB2E" stroke-width="1.38647" stroke-miterlimit="1.5" stroke-linecap="round" stroke-linejoin="round"/>
<path d="M108.849 459.108L83.3789 475.761" stroke="#9EFB2E" stroke-width="1.38647" stroke-miterlimit="1.5" stroke-linecap="round" stroke-linejoin="round"/>
<path d="M108.849 467.414L83.3789 484.066" stroke="#9EFB2E" stroke-width="1.38647" stroke-miterlimit="1.5" stroke-linecap="round" stroke-linejoin="round"/>
<path d="M110.852 372.466C111.573 371.775 112.232 371.492 112.706 371.512C113.18 371.533 113.524 371.86 113.524 372.576C113.524 373.698 112.612 375.497 111.475 376.587C110.753 377.28 110.094 377.563 109.62 377.543C109.146 377.521 108.802 377.193 108.802 376.478C108.802 375.355 109.714 373.558 110.852 372.466ZM111.163 372.714C110.175 373.661 109.361 375.247 109.361 376.255C109.361 377.263 110.175 377.288 111.163 376.341C112.15 375.394 112.964 373.808 112.965 372.8C112.965 371.791 112.15 371.767 111.163 372.714Z" fill="#B9FB6A" stroke="#9EFB2E" stroke-width="0.0792324"/>
<path d="M110.852 380.493C111.573 379.801 112.232 379.518 112.706 379.538C113.18 379.559 113.524 379.887 113.524 380.602C113.524 381.725 112.612 383.523 111.475 384.614C110.753 385.306 110.094 385.589 109.62 385.569C109.146 385.548 108.802 385.22 108.802 384.504C108.802 383.382 109.714 381.584 110.852 380.493ZM111.163 380.74C110.175 381.688 109.361 383.273 109.361 384.281C109.361 385.289 110.175 385.315 111.163 384.367C112.15 383.42 112.964 381.834 112.965 380.826C112.965 379.817 112.15 379.793 111.163 380.74Z" fill="#B9FB6A" stroke="#9EFB2E" stroke-width="0.0792324"/>
<path d="M110.852 388.604C111.573 387.912 112.232 387.629 112.706 387.649C113.18 387.67 113.524 387.998 113.524 388.714C113.524 389.836 112.612 391.634 111.475 392.725C110.753 393.417 110.094 393.701 109.62 393.68C109.146 393.659 108.802 393.331 108.802 392.615C108.802 391.493 109.714 389.695 110.852 388.604ZM111.163 388.851C110.175 389.799 109.361 391.384 109.361 392.393C109.361 393.401 110.175 393.426 111.163 392.478C112.15 391.532 112.964 389.946 112.965 388.937C112.965 387.929 112.15 387.904 111.163 388.851Z" fill="#B9FB6A" stroke="#9EFB2E" stroke-width="0.0792324"/>
<path d="M110.852 414.069C111.573 413.377 112.232 413.094 112.706 413.114C113.18 413.135 113.524 413.463 113.524 414.178C113.524 415.301 112.612 417.099 111.475 418.19C110.753 418.882 110.094 419.165 109.62 419.145C109.146 419.124 108.802 418.796 108.802 418.08C108.802 416.958 109.714 415.16 110.852 414.069ZM111.163 414.316C110.175 415.264 109.361 416.849 109.361 417.858C109.361 418.866 110.175 418.891 111.163 417.943C112.15 416.996 112.964 415.411 112.965 414.402C112.965 413.394 112.15 413.369 111.163 414.316Z" fill="#B9FB6A" stroke="#9EFB2E" stroke-width="0.0792324"/>
<path d="M110.852 405.595C111.573 404.904 112.232 404.62 112.706 404.641C113.18 404.662 113.524 404.989 113.524 405.705C113.524 406.827 112.612 408.626 111.475 409.716C110.753 410.409 110.094 410.692 109.62 410.672C109.146 410.65 108.802 410.322 108.802 409.607C108.802 408.484 109.714 406.687 110.852 405.595ZM111.163 405.843C110.175 406.79 109.361 408.375 109.361 409.384C109.361 410.392 110.175 410.417 111.163 409.47C112.15 408.523 112.964 406.937 112.965 405.928C112.965 404.92 112.15 404.896 111.163 405.843Z" fill="#B9FB6A" stroke="#9EFB2E" stroke-width="0.0792324"/>
<path d="M110.852 397.202C111.573 396.51 112.232 396.227 112.706 396.247C113.18 396.268 113.524 396.596 113.524 397.311C113.524 398.434 112.612 400.232 111.475 401.323C110.753 402.015 110.094 402.298 109.62 402.278C109.146 402.257 108.802 401.929 108.802 401.213C108.802 400.091 109.714 398.293 110.852 397.202ZM111.163 397.449C110.175 398.397 109.361 399.982 109.361 400.99C109.361 401.998 110.175 402.024 111.163 401.076C112.15 400.129 112.964 398.543 112.965 397.535C112.965 396.526 112.15 396.502 111.163 397.449Z" fill="#B9FB6A" stroke="#9EFB2E" stroke-width="0.0792324"/>
<path d="M110.852 422.372C111.573 421.68 112.232 421.397 112.706 421.417C113.18 421.438 113.524 421.765 113.524 422.481C113.524 423.603 112.612 425.402 111.475 426.493C110.753 427.185 110.094 427.468 109.62 427.448C109.146 427.426 108.802 427.099 108.802 426.383C108.802 425.261 109.714 423.463 110.852 422.372ZM111.163 422.619C110.175 423.567 109.361 425.152 109.361 426.16C109.361 427.168 110.175 427.193 111.163 426.246C112.15 425.299 112.964 423.713 112.965 422.705C112.965 421.696 112.15 421.672 111.163 422.619Z" fill="#B9FB6A" stroke="#9EFB2E" stroke-width="0.0792324"/>
<path d="M110.852 430.241C111.573 429.549 112.232 429.266 112.706 429.286C113.18 429.307 113.524 429.635 113.524 430.35C113.524 431.473 112.612 433.271 111.475 434.362C110.753 435.054 110.094 435.337 109.62 435.317C109.146 435.296 108.802 434.968 108.802 434.252C108.802 433.13 109.714 431.332 110.852 430.241ZM111.163 430.488C110.175 431.436 109.361 433.021 109.361 434.029C109.361 435.037 110.175 435.063 111.163 434.115C112.15 433.168 112.964 431.582 112.965 430.574C112.965 429.566 112.15 429.541 111.163 430.488Z" fill="#B9FB6A" stroke="#9EFB2E" stroke-width="0.0792324"/>
<path d="M110.852 438.386C111.573 437.695 112.232 437.411 112.706 437.432C113.18 437.453 113.524 437.78 113.524 438.496C113.524 439.618 112.612 441.417 111.475 442.507C110.753 443.2 110.094 443.483 109.62 443.463C109.146 443.441 108.802 443.113 108.802 442.398C108.802 441.275 109.714 439.478 110.852 438.386ZM111.163 438.634C110.175 439.581 109.361 441.166 109.361 442.175C109.361 443.183 110.175 443.208 111.163 442.261C112.15 441.314 112.964 439.728 112.965 438.719C112.965 437.711 112.15 437.687 111.163 438.634Z" fill="#B9FB6A" stroke="#9EFB2E" stroke-width="0.0792324"/>
<path d="M110.852 446.806C111.573 446.114 112.232 445.831 112.706 445.852C113.18 445.873 113.524 446.2 113.524 446.916C113.524 448.038 112.612 449.836 111.475 450.927C110.753 451.62 110.094 451.903 109.62 451.883C109.146 451.861 108.802 451.533 108.802 450.817C108.802 449.695 109.714 447.897 110.852 446.806ZM111.163 447.054C110.175 448.001 109.361 449.586 109.361 450.595C109.361 451.603 110.175 451.628 111.163 450.681C112.15 449.734 112.964 448.148 112.965 447.139C112.965 446.131 112.15 446.107 111.163 447.054Z" fill="#B9FB6A" stroke="#9EFB2E" stroke-width="0.0792324"/>
<path d="M110.852 454.662C111.573 453.97 112.232 453.687 112.706 453.707C113.18 453.728 113.524 454.056 113.524 454.771C113.524 455.894 112.612 457.692 111.475 458.783C110.753 459.475 110.094 459.758 109.62 459.738C109.146 459.717 108.802 459.389 108.802 458.673C108.802 457.551 109.714 455.753 110.852 454.662ZM111.163 454.909C110.175 455.857 109.361 457.442 109.361 458.45C109.361 459.458 110.175 459.484 111.163 458.536C112.15 457.589 112.964 456.003 112.965 454.995C112.965 453.986 112.15 453.962 111.163 454.909Z" fill="#B9FB6A" stroke="#9EFB2E" stroke-width="0.0792324"/>
<path d="M111.094 463.929C111.815 463.238 112.474 462.954 112.948 462.975C113.422 462.996 113.766 463.323 113.766 464.039C113.766 465.161 112.855 466.96 111.717 468.05C110.995 468.743 110.336 469.026 109.862 469.006C109.388 468.984 109.044 468.656 109.044 467.941C109.044 466.818 109.956 465.021 111.094 463.929ZM111.405 464.177C110.417 465.124 109.603 466.709 109.603 467.718C109.604 468.726 110.417 468.751 111.405 467.804C112.392 466.857 113.207 465.271 113.207 464.262C113.207 463.254 112.393 463.23 111.405 464.177Z" fill="#B9FB6A" stroke="#9EFB2E" stroke-width="0.0792324"/>
<path fill-rule="evenodd" clip-rule="evenodd" d="M442.837 241.077C455.068 249.074 462.604 263.851 462.604 279.844C462.604 283.511 462.604 287.282 462.604 290.949C462.604 306.94 455.068 321.719 442.837 329.715C411.966 349.897 352.658 388.671 321.787 408.853C309.556 416.848 294.486 416.848 282.254 408.853C247.365 386.043 175.261 338.905 140.372 316.096C128.141 308.1 120.605 293.321 120.605 277.328V266.225C120.605 250.232 128.141 235.455 140.372 227.458C171.243 207.276 230.553 168.502 261.422 148.321C273.653 140.324 288.723 140.324 300.956 148.321C335.844 171.129 407.948 218.267 442.837 241.077Z" fill="#2D5300"/>
<mask id="mask0_1243_7161" style="mask-type:luminance" maskUnits="userSpaceOnUse" x="120" y="142" width="343" height="273">
<path d="M442.837 241.077C455.068 249.074 462.604 263.851 462.604 279.844C462.604 283.511 462.604 287.282 462.604 290.949C462.604 306.94 455.068 321.719 442.837 329.715C411.966 349.897 352.658 388.671 321.787 408.853C309.556 416.848 294.486 416.848 282.254 408.853C247.365 386.043 175.261 338.905 140.372 316.096C128.141 308.1 120.605 293.321 120.605 277.328V266.225C120.605 250.232 128.141 235.455 140.372 227.458C171.243 207.276 230.553 168.502 261.422 148.321C273.653 140.324 288.723 140.324 300.956 148.321C335.844 171.129 407.948 218.267 442.837 241.077Z" fill="white"/>
</mask>
<g mask="url(#mask0_1243_7161)">
<path d="M281.184 198.191L120.602 303.173L302.016 421.774L462.598 316.792L281.184 198.191Z" fill="#2D5300"/>
<path fill-rule="evenodd" clip-rule="evenodd" d="M280.808 135.157L133.841 231.238C125.618 236.614 120.554 246.552 120.554 257.303C120.552 268.056 125.618 277.991 133.844 283.369C179.067 312.934 250.826 359.847 284.046 381.564C295.164 388.833 308.862 388.834 319.981 381.565L448.981 297.23C457.204 291.854 462.271 281.918 462.268 271.165C462.27 260.412 457.204 250.477 448.978 245.1L280.808 135.157Z" fill="black" fill-opacity="0.6"/>
<path fill-rule="evenodd" clip-rule="evenodd" d="M281.184 135.398L134.961 230.992C131.999 232.929 130.175 236.507 130.176 240.381C130.174 244.252 131.999 247.831 134.962 249.768C167.749 271.203 248.056 323.704 284.05 347.236C295.169 354.505 308.867 354.504 319.983 347.237L448.242 263.387C451.203 261.451 453.026 257.872 453.026 253.999C453.028 250.128 451.202 246.549 448.242 244.613C405.358 216.578 281.184 135.398 281.184 135.398Z" fill="#B9FB6A"/>
</g>
<path fill-rule="evenodd" clip-rule="evenodd" d="M442.837 241.077C455.068 249.074 462.604 263.851 462.604 279.844C462.604 283.511 462.604 287.282 462.604 290.949C462.604 306.94 455.068 321.719 442.837 329.715C411.966 349.897 352.658 388.671 321.787 408.853C309.556 416.848 294.486 416.848 282.254 408.853C247.365 386.043 175.261 338.905 140.372 316.096C128.141 308.1 120.605 293.321 120.605 277.328V266.225C120.605 250.232 128.141 235.455 140.372 227.458C171.243 207.276 230.553 168.502 261.422 148.321C273.653 140.324 288.723 140.324 300.956 148.321C335.844 171.129 407.948 218.267 442.837 241.077Z" fill="#2D5300"/>
<mask id="mask1_1243_7161" style="mask-type:luminance" maskUnits="userSpaceOnUse" x="120" y="142" width="343" height="273">
<path d="M442.837 241.077C455.068 249.074 462.604 263.851 462.604 279.844C462.604 283.511 462.604 287.282 462.604 290.949C462.604 306.94 455.068 321.719 442.837 329.715C411.966 349.897 352.658 388.671 321.787 408.853C309.556 416.848 294.486 416.848 282.254 408.853C247.365 386.043 175.261 338.905 140.372 316.096C128.141 308.1 120.605 293.321 120.605 277.328V266.225C120.605 250.232 128.141 235.455 140.372 227.458C171.243 207.276 230.553 168.502 261.422 148.321C273.653 140.324 288.723 140.324 300.956 148.321C335.844 171.129 407.948 218.267 442.837 241.077Z" fill="white"/>
</mask>
<g mask="url(#mask1_1243_7161)">
<path d="M281.184 198.191L120.602 303.173L302.016 421.774L462.598 316.792L281.184 198.191Z" fill="#2D5300"/>
<path fill-rule="evenodd" clip-rule="evenodd" d="M280.808 135.157L133.841 231.238C125.618 236.614 120.554 246.552 120.554 257.303C120.552 268.056 125.618 277.991 133.844 283.369C179.067 312.934 250.826 359.847 284.046 381.564C295.164 388.833 308.862 388.834 319.981 381.565L448.981 297.23C457.204 291.854 462.271 281.918 462.268 271.165C462.27 260.412 457.204 250.477 448.978 245.1L280.808 135.157Z" fill="black" fill-opacity="0.6"/>
<path fill-rule="evenodd" clip-rule="evenodd" d="M281.184 135.398L134.961 230.992C131.999 232.929 130.175 236.507 130.176 240.381C130.174 244.252 131.999 247.831 134.962 249.768C167.749 271.203 248.056 323.704 284.05 347.236C295.169 354.505 308.867 354.504 319.983 347.237L448.242 263.387C451.203 261.451 453.026 257.872 453.026 253.999C453.028 250.128 451.202 246.549 448.242 244.613C405.358 216.578 281.184 135.398 281.184 135.398Z" fill="#B9FB6A"/>
</g>
<path fill-rule="evenodd" clip-rule="evenodd" d="M300.754 127.47C288.647 119.555 273.73 119.554 261.622 127.47L134.965 210.273C132.003 212.209 130.179 215.788 130.18 219.661C130.178 223.533 132.003 227.112 134.966 229.048L284.054 326.516C295.173 333.785 308.87 333.784 319.987 326.517L448.246 242.667C451.206 240.731 453.03 237.153 453.03 233.279C453.032 229.408 451.206 225.829 448.246 223.894C415.935 202.77 337.477 151.478 300.754 127.47Z" fill="url(#paint12_linear_1243_7161)"/>
<g filter="url(#filter0_d_1243_7161)">
<path fill-rule="evenodd" clip-rule="evenodd" d="M300.754 101.357C288.647 93.4415 273.73 93.4408 261.622 101.356L134.965 184.159C132.003 186.096 130.179 189.674 130.18 193.548C130.178 197.419 132.003 200.998 134.966 202.935L284.054 300.403C295.173 307.672 308.87 307.671 319.987 300.404L448.246 216.554C451.206 214.618 453.03 211.039 453.03 207.166C453.032 203.295 451.206 199.716 448.246 197.78C415.935 176.657 337.477 125.365 300.754 101.357Z" fill="url(#paint13_linear_1243_7161)"/>
</g>
<path fill-rule="evenodd" clip-rule="evenodd" d="M358.073 126.681C356.791 115.205 349.735 103.113 339.564 94.9595L233.161 9.66951C230.672 7.67485 227.8 6.9478 225.626 7.76116C223.451 8.57224 222.305 10.8036 222.619 13.6117C226.091 44.6891 234.596 120.809 238.409 154.927C239.586 165.466 246.065 176.569 255.404 184.055C282.418 205.709 338.504 250.666 363.153 270.424C365.64 272.417 368.512 273.144 370.687 272.331C372.862 271.52 374.008 269.289 373.694 266.483C370.272 235.857 361.963 161.49 358.073 126.681Z" fill="url(#paint14_linear_1243_7161)" fill-opacity="0.5"/>
<path fill-rule="evenodd" clip-rule="evenodd" d="M403.222 183.509L402.825 201.344C402.747 204.827 399.173 204.862 394.844 201.425L222.837 64.8857C218.507 61.4485 215.06 55.8404 215.137 52.3573L215.535 34.522C215.613 31.0407 219.186 31.005 223.516 34.4422L395.523 170.982C399.852 174.418 403.3 180.028 403.222 183.509ZM400.366 182.4C400.43 179.548 397.605 174.95 394.056 172.133L222.05 35.5934C220.974 34.7393 220.038 34.1414 219.321 34.1492C218.603 34.1568 218.41 34.7669 218.391 35.6322L217.993 53.4658C217.929 56.3195 220.754 60.9161 224.303 63.7327L396.31 200.273C397.386 201.127 398.321 201.726 399.039 201.719C399.756 201.71 399.949 201.101 399.969 200.235L400.366 182.4Z" fill="#B9FB6A"/>
<path d="M265.775 87.7286C264.943 87.0139 264.219 86.2094 263.603 85.3151C262.987 84.4209 262.512 83.5039 262.177 82.564C261.842 81.6242 261.675 80.7239 261.675 79.8632L263.101 81.0884C263.101 81.6231 263.203 82.2069 263.409 82.8397C263.614 83.4595 263.911 84.0734 264.3 84.6814C264.7 85.2857 265.191 85.8384 265.775 86.3397C266.283 86.7759 266.715 87.0494 267.071 87.1601C267.439 87.267 267.714 87.2233 267.898 87.029C268.092 86.8439 268.19 86.5297 268.19 86.0863C268.19 85.5516 268.092 85.0377 267.898 84.5446C267.714 84.0477 267.46 83.5557 267.136 83.0686C266.812 82.5815 266.434 82.074 266.002 81.5462C265.58 81.0147 265.137 80.4581 264.673 79.8763C263.776 78.7408 263.117 77.7181 262.696 76.8084C262.274 75.8986 262.064 75.0069 262.064 74.1331C262.064 73.3897 262.204 72.8583 262.485 72.5389C262.777 72.2287 263.187 72.1445 263.717 72.2864C264.257 72.4244 264.894 72.8091 265.629 73.4402C266.353 74.0621 266.979 74.7635 267.509 75.5444C268.049 76.3345 268.47 77.1465 268.773 77.9802C269.075 78.8009 269.227 79.5829 269.227 80.3262L267.801 79.101C267.801 78.7228 267.72 78.2815 267.557 77.7771C267.395 77.2727 267.147 76.7593 266.812 76.2368C266.488 75.7105 266.077 75.2339 265.58 74.807C265.17 74.4412 264.802 74.2104 264.478 74.1145C264.165 74.0148 263.916 74.0491 263.733 74.2174C263.56 74.3949 263.473 74.7184 263.473 75.1879C263.473 75.6313 263.549 76.0549 263.7 76.4588C263.862 76.8719 264.089 77.3015 264.381 77.7478C264.684 78.1902 265.035 78.6614 265.434 79.1614C265.834 79.6613 266.277 80.2179 266.763 80.8313C267.314 81.5264 267.801 82.2179 268.222 82.906C268.654 83.5902 268.989 84.2823 269.227 84.982C269.475 85.6911 269.599 86.4304 269.599 87.1998C269.599 87.8519 269.454 88.346 269.162 88.6823C268.881 89.0148 268.46 89.1223 267.898 89.0048C267.336 88.8873 266.628 88.4619 265.775 87.7286ZM275.062 95.7076C274.295 95.0486 273.614 94.2486 273.02 93.3078C272.437 92.3762 271.978 91.3818 271.643 90.3246C271.308 89.2543 271.14 88.2041 271.14 87.1738C271.14 86.1305 271.302 85.3633 271.626 84.8724C271.961 84.3907 272.426 84.1899 273.02 84.27C273.625 84.3595 274.317 84.7383 275.095 85.4066C275.894 86.0935 276.569 86.8888 277.12 87.7926C277.682 88.7056 278.109 89.6396 278.401 90.5944C278.703 91.5455 278.854 92.4384 278.854 93.2731C278.854 93.4035 278.854 93.5404 278.854 93.6839C278.854 93.8273 278.849 93.9857 278.838 94.159L272.161 88.4226V87.1511L277.526 91.7597C277.493 90.832 277.245 89.9142 276.78 89.0065C276.326 88.108 275.754 87.3618 275.062 86.7677C274.598 86.3686 274.165 86.1277 273.766 86.0451C273.377 85.9587 273.063 86.0612 272.826 86.3526C272.588 86.6309 272.469 87.1353 272.469 87.8656V88.4133C272.469 89.2219 272.588 90.0021 272.826 90.7541C273.074 91.5153 273.393 92.2 273.782 92.808C274.182 93.4253 274.608 93.9289 275.062 94.3187C275.635 94.8107 276.105 95.0645 276.472 95.0801C276.85 95.092 277.12 94.9067 277.282 94.5243L278.628 95.6799C278.498 96.1554 278.271 96.4886 277.947 96.6797C277.623 96.8707 277.218 96.8943 276.731 96.7505C276.256 96.6029 275.7 96.2553 275.062 95.7076ZM283.349 102.827C282.69 102.261 282.139 101.651 281.696 100.996C281.253 100.329 280.924 99.6741 280.708 99.032C280.492 98.3769 280.384 97.7755 280.384 97.2277C280.384 96.5626 280.524 96.1225 280.805 95.9074C281.097 95.6885 281.502 95.6845 282.021 95.8953C282.55 96.1023 283.171 96.5121 283.884 97.1247L286.04 98.9765C286.04 98.3636 285.959 97.7853 285.797 97.2418C285.645 96.6945 285.418 96.1866 285.116 95.7181C284.824 95.2588 284.457 94.8389 284.014 94.4583C283.495 94.0128 283.047 93.784 282.669 93.7722C282.291 93.7603 282.058 94.0237 281.972 94.5624L280.578 93.365C280.643 92.7164 280.837 92.2967 281.162 92.1056C281.497 91.9108 281.918 91.9077 282.426 92.0962C282.933 92.2716 283.463 92.596 284.014 93.0694C284.77 93.7191 285.397 94.427 285.894 95.1931C286.402 95.9554 286.78 96.7432 287.028 97.5566C287.277 98.357 287.401 99.1614 287.401 99.97V106.073L286.186 105.029L286.104 103.219C285.996 103.4 285.856 103.54 285.683 103.639C285.521 103.735 285.327 103.776 285.1 103.764C284.873 103.738 284.614 103.653 284.322 103.506C284.041 103.369 283.717 103.143 283.349 102.827ZM283.56 101.619C283.938 101.944 284.279 102.145 284.581 102.223C284.894 102.296 285.159 102.263 285.375 102.122C285.591 101.969 285.753 101.737 285.861 101.425C285.98 101.123 286.04 100.75 286.04 100.307V100.248L283.998 98.4937C283.468 98.0389 283.042 97.7505 282.717 97.6286C282.393 97.4936 282.161 97.5027 282.021 97.6559C281.88 97.796 281.81 98.0356 281.81 98.3747C281.81 98.7268 281.875 99.089 282.004 99.4612C282.145 99.8427 282.345 100.217 282.604 100.583C282.874 100.958 283.193 101.304 283.56 101.619ZM289.507 107.883V98.0233L290.739 99.0815L290.836 101.043C291.019 100.757 291.252 100.579 291.533 100.507C291.824 100.445 292.17 100.5 292.57 100.674C292.98 100.858 293.445 101.172 293.964 101.617V103.339L293.461 102.907C293.116 102.61 292.786 102.386 292.473 102.234C292.159 102.069 291.878 102.004 291.63 102.038C291.392 102.082 291.203 102.258 291.063 102.568C290.933 102.874 290.868 103.34 290.868 103.966V109.052L289.507 107.883ZM298.883 116.173C298.116 115.514 297.425 114.705 296.809 113.745C296.204 112.795 295.728 111.787 295.383 110.72C295.037 109.641 294.864 108.592 294.864 107.575C294.864 106.532 295.037 105.774 295.383 105.301C295.728 104.829 296.204 104.638 296.809 104.727C297.425 104.813 298.116 105.185 298.883 105.844C299.856 106.679 300.666 107.682 301.314 108.852C301.962 110.009 302.373 111.17 302.546 112.336L301.152 111.138C301.044 110.433 300.779 109.729 300.358 109.028C299.937 108.327 299.44 107.73 298.867 107.239C298.402 106.839 297.97 106.612 297.571 106.555C297.171 106.485 296.852 106.629 296.614 106.986C296.377 107.342 296.258 107.931 296.258 108.753C296.258 109.366 296.328 109.974 296.469 110.577C296.609 111.167 296.798 111.721 297.036 112.238C297.273 112.755 297.549 113.233 297.862 113.672C298.186 114.107 298.521 114.473 298.867 114.77C299.256 115.104 299.607 115.334 299.92 115.46C300.234 115.572 300.498 115.572 300.715 115.457C300.931 115.343 301.076 115.116 301.152 114.777L302.546 115.974C302.373 116.817 301.957 117.268 301.298 117.328C300.65 117.384 299.845 116.999 298.883 116.173ZM304.479 120.745V106.66L305.84 107.83V113.718C306.11 113.363 306.488 113.225 306.974 113.304C307.471 113.392 308.012 113.686 308.595 114.188C309.222 114.726 309.767 115.351 310.232 116.063C310.696 116.762 311.053 117.532 311.302 118.371C311.55 119.211 311.674 120.106 311.674 121.058V126.927L310.329 125.772V120.079C310.329 119.088 310.156 118.196 309.811 117.403C309.465 116.598 308.962 115.912 308.303 115.346C307.839 114.946 307.417 114.721 307.039 114.67C306.672 114.629 306.38 114.769 306.164 115.092C305.948 115.415 305.84 115.948 305.84 116.692V121.915L304.479 120.745Z" fill="#B9FB6A"/>
<path fill-rule="evenodd" clip-rule="evenodd" d="M278.21 275.868L332.421 311.309C332.573 311.408 332.668 311.59 332.67 311.788C332.666 311.986 332.573 312.169 332.422 312.268L305.495 329.872C305.344 329.97 305.156 329.971 305.006 329.873L250.792 294.431C250.643 294.333 250.551 294.149 250.549 293.951C250.548 293.753 250.641 293.571 250.791 293.472L277.722 275.866C277.873 275.767 278.058 275.768 278.21 275.868ZM277.968 276.347L251.04 293.951L305.251 329.392L332.179 311.788L277.968 276.347Z" fill="#BD2492" fill-opacity="0.25"/>
<path fill-rule="evenodd" clip-rule="evenodd" d="M275.847 286.258L265.347 293.126L275.85 299.992L286.353 293.126L275.847 286.258Z" fill="#1A260B"/>
<path fill-rule="evenodd" clip-rule="evenodd" d="M286.641 238.194V293.126C286.641 293.242 286.586 293.349 286.497 293.407L275.995 300.274C275.906 300.331 275.797 300.331 275.708 300.274C275.619 300.216 275.565 300.109 275.565 299.992L275.562 245.059C275.562 244.943 275.617 244.836 275.706 244.778L286.211 237.913C286.3 237.855 286.409 237.855 286.497 237.913C286.586 237.971 286.641 238.078 286.641 238.194ZM286.354 238.194L275.849 245.059L275.851 299.992L286.354 293.126V238.194Z" fill="#B9FB6A"/>
<path fill-rule="evenodd" clip-rule="evenodd" d="M286.353 238.193V293.126L275.85 299.992L275.848 245.059L286.353 238.193Z" fill="url(#paint15_linear_1243_7161)"/>
<path fill-rule="evenodd" clip-rule="evenodd" d="M265.492 237.913L275.994 244.778C276.082 244.836 276.137 244.943 276.137 245.059L276.139 299.992C276.139 300.108 276.084 300.216 275.996 300.274C275.907 300.331 275.798 300.331 275.709 300.274L265.206 293.407C265.117 293.349 265.062 293.242 265.062 293.126V238.194C265.062 238.078 265.117 237.971 265.206 237.913C265.294 237.855 265.404 237.855 265.492 237.913ZM265.349 238.194V293.126L275.852 299.992L275.85 245.059L265.349 238.194Z" fill="#B9FB6A"/>
<path fill-rule="evenodd" clip-rule="evenodd" d="M265.348 238.193V293.126L275.851 299.992L275.849 245.059L265.348 238.193Z" fill="url(#paint16_linear_1243_7161)"/>
<path fill-rule="evenodd" clip-rule="evenodd" d="M275.94 231.151L286.441 238.016C286.496 238.052 286.53 238.119 286.53 238.191C286.53 238.263 286.496 238.33 286.441 238.366L275.938 245.236C275.883 245.272 275.814 245.272 275.759 245.235L265.258 238.367C265.203 238.332 265.168 238.265 265.169 238.192C265.169 238.121 265.203 238.054 265.258 238.018L275.761 231.151C275.816 231.115 275.885 231.115 275.94 231.151ZM275.85 231.326L265.347 238.193L275.848 245.06L286.351 238.191L275.85 231.326Z" fill="#B9FB6A"/>
<path fill-rule="evenodd" clip-rule="evenodd" d="M275.852 231.327L265.349 238.193L275.851 245.061L286.354 238.192L275.852 231.327Z" fill="#B9FB6A"/>
<path fill-rule="evenodd" clip-rule="evenodd" d="M291.618 296.564L281.105 303.424L291.607 310.289L302.11 303.423L291.618 296.564Z" fill="#1A260B"/>
<path fill-rule="evenodd" clip-rule="evenodd" d="M302.365 269.079L302.343 303.425C302.343 303.52 302.298 303.607 302.226 303.654L291.723 310.521C291.65 310.569 291.561 310.569 291.488 310.521C291.416 310.474 291.371 310.387 291.371 310.291L291.374 275.961C291.374 275.866 291.418 275.778 291.491 275.731L302.014 268.85C302.086 268.801 302.175 268.801 302.248 268.85C302.321 268.897 302.365 268.984 302.365 269.079ZM302.13 269.079L291.608 275.961L291.605 310.291L302.109 303.425L302.13 269.079Z" fill="#B9FB6A"/>
<path fill-rule="evenodd" clip-rule="evenodd" d="M302.131 269.079L302.109 303.425L291.605 310.291L291.608 275.961L302.131 269.079Z" fill="url(#paint17_linear_1243_7161)"/>
<path fill-rule="evenodd" clip-rule="evenodd" d="M281.218 268.863L291.721 275.729C291.794 275.776 291.838 275.863 291.838 275.959L291.836 310.291C291.836 310.387 291.791 310.474 291.719 310.521C291.646 310.568 291.557 310.568 291.485 310.521L280.984 303.657C280.912 303.609 280.867 303.521 280.867 303.427V269.092C280.867 268.997 280.912 268.91 280.984 268.863C281.057 268.815 281.146 268.815 281.218 268.863ZM281.101 269.092V303.427L291.602 310.291L291.604 275.959L281.101 269.092Z" fill="#B9FB6A"/>
<path fill-rule="evenodd" clip-rule="evenodd" d="M281.105 269.092V303.427L291.606 310.291L291.609 275.958L281.105 269.092Z" fill="url(#paint18_linear_1243_7161)"/>
<path fill-rule="evenodd" clip-rule="evenodd" d="M291.603 262.197L281.1 269.091L291.603 275.956L302.127 269.077L291.603 262.197Z" fill="#00A0D6"/>
<path fill-rule="evenodd" clip-rule="evenodd" d="M307.358 306.854L296.852 313.723L307.358 320.592L317.862 313.725L307.358 306.854Z" fill="#1A260B"/>
<path fill-rule="evenodd" clip-rule="evenodd" d="M318.075 286.262L318.077 313.727C318.077 313.814 318.036 313.893 317.97 313.936L307.467 320.803C307.401 320.846 307.319 320.846 307.253 320.803C307.187 320.76 307.146 320.68 307.146 320.593L307.145 293.126C307.145 293.039 307.185 292.96 307.251 292.917L317.755 286.053C317.821 286.009 317.902 286.009 317.968 286.053C318.034 286.095 318.075 286.175 318.075 286.262ZM317.862 286.262L307.358 293.126L307.36 320.593L317.863 313.727L317.862 286.262Z" fill="#B9FB6A"/>
<path fill-rule="evenodd" clip-rule="evenodd" d="M317.859 286.263L317.86 313.728L307.357 320.594L307.355 293.127L317.859 286.263Z" fill="url(#paint19_linear_1243_7161)"/>
<path fill-rule="evenodd" clip-rule="evenodd" d="M296.965 286.05L307.466 292.917C307.532 292.96 307.573 293.039 307.573 293.126L307.575 320.591C307.575 320.678 307.534 320.758 307.468 320.801C307.402 320.845 307.32 320.845 307.254 320.801L296.748 313.932C296.681 313.889 296.641 313.809 296.641 313.723L296.644 286.259C296.644 286.172 296.685 286.093 296.751 286.05C296.817 286.006 296.899 286.006 296.965 286.05ZM296.858 286.259L296.854 313.723L307.361 320.591L307.359 293.126L296.858 286.259Z" fill="#B9FB6A"/>
<path fill-rule="evenodd" clip-rule="evenodd" d="M296.855 286.259L296.852 313.723L307.358 320.591L307.357 293.126L296.855 286.259Z" fill="url(#paint20_linear_1243_7161)"/>
<path fill-rule="evenodd" clip-rule="evenodd" d="M307.449 279.216L317.952 286.083C318.007 286.119 318.042 286.185 318.042 286.257C318.041 286.329 318.007 286.396 317.952 286.432L307.451 293.3C307.396 293.336 307.327 293.336 307.272 293.3L296.769 286.434C296.714 286.398 296.68 286.331 296.68 286.259C296.679 286.186 296.713 286.12 296.769 286.083L307.271 279.216C307.326 279.18 307.393 279.18 307.449 279.216ZM307.36 279.391L296.859 286.259L307.362 293.125L317.863 286.257L307.36 279.391Z" fill="#B9FB6A"/>
<path fill-rule="evenodd" clip-rule="evenodd" d="M307.359 279.39L296.857 286.258L307.36 293.125L317.862 286.257L307.359 279.39Z" fill="#B9FB6A"/>
<path d="M289.202 251.94C289.495 252.117 289.751 252.337 289.972 252.602C290.546 253.292 291 254.096 291.334 255.015C291.667 255.933 291.834 257.14 291.834 258.636C291.834 260.177 291.649 261.03 291.28 261.195C290.91 261.36 290.333 260.971 289.549 260.029C288.81 259.142 288.272 258.178 287.933 257.136C287.6 256.101 287.433 254.894 287.433 253.515C287.433 252.635 287.469 251.94 287.541 251.43C287.618 250.921 287.746 250.456 287.925 250.037C288.11 249.618 288.354 249.199 288.656 248.779L289.579 247.537L291.041 249.293L289.849 250.881L289.202 251.94ZM288.841 255.226C288.841 256.139 288.897 256.854 289.01 257.371C289.123 257.883 289.338 258.329 289.656 258.711C290.185 259.345 290.449 258.986 290.449 257.633L290.433 257.459V257.255L290.449 256.856V256.662C290.449 255.839 290.369 255.213 290.21 254.782C290.056 254.358 289.877 254.023 289.672 253.776C289.349 253.388 289.126 253.269 289.002 253.419C288.884 253.569 288.825 254 288.825 254.712L288.841 254.905V255.226ZM295.38 254.31C296.139 255.222 296.701 256.343 297.065 257.674C297.434 259.005 297.619 260.887 297.619 263.322C297.619 265.303 297.54 266.573 297.381 267.134C297.222 267.694 296.981 267.977 296.657 267.984C296.334 267.984 295.909 267.667 295.38 267.033C294.832 266.374 294.383 265.602 294.034 264.717C293.69 263.831 293.457 262.903 293.334 261.933C293.216 260.969 293.157 259.539 293.157 257.642C293.157 255.965 293.229 254.847 293.372 254.287C293.521 253.728 293.757 253.429 294.08 253.389C294.403 253.35 294.832 253.651 295.365 254.292L295.38 254.31ZM296.219 260.601V260.164C296.219 259.205 296.201 258.536 296.165 258.156C296.134 257.783 296.05 257.361 295.911 256.89C295.773 256.419 295.591 256.049 295.365 255.778C295.037 255.383 294.816 255.387 294.703 255.789C294.59 256.191 294.534 257.01 294.534 258.247V258.645L294.549 259.081V259.518L294.534 260.549V260.85C294.534 262.17 294.588 263.18 294.696 263.88C294.803 264.572 295.032 265.128 295.38 265.547C295.611 265.824 295.788 265.917 295.911 265.825C296.034 265.733 296.114 265.463 296.15 265.014C296.186 264.559 296.204 263.428 296.204 261.621V261.107L296.219 260.601Z" fill="#B9FB6A"/>
<path d="M307.51 270.545L305.185 267.764L304.855 270.302C306.609 272.603 307.486 274.954 307.486 277.355C307.486 278.702 307.202 279.478 306.633 279.684C306.064 279.884 305.351 279.471 304.493 278.444C303.989 277.841 303.433 276.964 302.827 275.813L303.222 274.763C303.264 274.834 303.331 274.958 303.423 275.135C303.766 275.776 304.082 276.269 304.372 276.615C304.892 277.238 305.303 277.475 305.603 277.326C305.904 277.178 306.054 276.658 306.054 275.765C306.054 274.946 305.898 274.134 305.587 273.329C305.281 272.524 304.839 271.775 304.259 271.082C304.056 270.838 303.758 270.536 303.366 270.176L304.115 264.881L307.51 268.941V270.545ZM311.332 273.308C312.126 274.258 312.713 275.427 313.094 276.816C313.48 278.205 313.673 280.171 313.673 282.715C313.673 284.785 313.59 286.113 313.424 286.699C313.258 287.285 313.005 287.582 312.667 287.591C312.33 287.592 311.884 287.263 311.332 286.602C310.758 285.916 310.289 285.111 309.924 284.188C309.564 283.264 309.32 282.296 309.192 281.283C309.068 280.276 309.007 278.782 309.007 276.799C309.007 275.047 309.082 273.879 309.232 273.294C309.387 272.708 309.634 272.395 309.972 272.352C310.31 272.31 310.758 272.622 311.316 273.289L311.332 273.308ZM312.209 279.878V279.421C312.209 278.42 312.19 277.721 312.153 277.324C312.12 276.934 312.032 276.493 311.887 276.002C311.742 275.511 311.552 275.124 311.316 274.842C310.972 274.431 310.742 274.436 310.624 274.857C310.506 275.277 310.447 276.133 310.447 277.426V277.842L310.463 278.297V278.754L310.447 279.831V280.145C310.447 281.525 310.503 282.58 310.616 283.31C310.728 284.034 310.967 284.613 311.332 285.05C311.573 285.338 311.758 285.434 311.887 285.338C312.016 285.242 312.099 284.959 312.136 284.49C312.174 284.014 312.193 282.832 312.193 280.944V280.406L312.209 279.878Z" fill="#B9FB6A"/>
<defs>
<filter id="filter0_d_1243_7161" x="106.724" y="80.0804" width="369.763" height="257.346" filterUnits="userSpaceOnUse" color-interpolation-filters="sRGB">
<feFlood flood-opacity="0" result="BackgroundImageFix"/>
<feColorMatrix in="SourceAlpha" type="matrix" values="0 0 0 0 0 0 0 0 0 0 0 0 0 0 0 0 0 0 127 0" result="hardAlpha"/>
<feOffset dy="8.11614"/>
<feGaussianBlur stdDeviation="11.7278"/>
<feComposite in2="hardAlpha" operator="out"/>
<feColorMatrix type="matrix" values="0 0 0 0 0 0 0 0 0 0 0 0 0 0 0 0 0 0 0.5 0"/>
<feBlend mode="normal" in2="BackgroundImageFix" result="effect1_dropShadow_1243_7161"/>
<feBlend mode="normal" in="SourceGraphic" in2="effect1_dropShadow_1243_7161" result="shape"/>
</filter>
<linearGradient id="paint0_linear_1243_7161" x1="29.5957" y1="172.889" x2="59.9148" y2="196.95" gradientUnits="userSpaceOnUse">
<stop stop-color="#E8CDF6"/>
<stop offset="1" stop-color="#B93CF9"/>
</linearGradient>
<linearGradient id="paint1_linear_1243_7161" x1="42.5858" y1="213.651" x2="112.813" y2="222.892" gradientUnits="userSpaceOnUse">
<stop stop-color="#B9FB6A"/>
<stop offset="1" stop-color="#B9FB6A"/>
</linearGradient>
<linearGradient id="paint2_linear_1243_7161" x1="13.7461" y1="174.264" x2="-40.3247" y2="187.861" gradientUnits="userSpaceOnUse">
<stop stop-color="#E8CDF6"/>
<stop offset="1" stop-color="#0328C4"/>
</linearGradient>
<linearGradient id="paint3_linear_1243_7161" x1="465.241" y1="98.4979" x2="517.828" y2="114.44" gradientUnits="userSpaceOnUse">
<stop stop-color="#B9FB6A"/>
<stop offset="1" stop-color="#88FFF3"/>
</linearGradient>
<linearGradient id="paint4_linear_1243_7161" x1="446.547" y1="98.4949" x2="499.138" y2="114.442" gradientUnits="userSpaceOnUse">
<stop stop-color="#B9FB6A"/>
<stop offset="1"/>
</linearGradient>
<linearGradient id="paint5_linear_1243_7161" x1="452.874" y1="76.2157" x2="481.758" y2="99.1286" gradientUnits="userSpaceOnUse">
<stop stop-color="#E8CDF6"/>
<stop offset="1" stop-color="#B93CF9"/>
</linearGradient>
<linearGradient id="paint6_linear_1243_7161" x1="117.255" y1="97.0688" x2="146.054" y2="105.799" gradientUnits="userSpaceOnUse">
<stop stop-color="#B9FB6A"/>
<stop offset="1" stop-color="#88FFF3"/>
</linearGradient>
<linearGradient id="paint7_linear_1243_7161" x1="107.018" y1="97.0718" x2="135.819" y2="105.805" gradientUnits="userSpaceOnUse">
<stop stop-color="#B9FB6A"/>
<stop offset="1"/>
</linearGradient>
<linearGradient id="paint8_linear_1243_7161" x1="110.485" y1="84.87" x2="126.302" y2="97.4179" gradientUnits="userSpaceOnUse">
<stop stop-color="#E8CDF6"/>
<stop offset="1" stop-color="#B93CF9"/>
</linearGradient>
<linearGradient id="paint9_linear_1243_7161" x1="95.9464" y1="410.786" x2="198.773" y2="434.48" gradientUnits="userSpaceOnUse">
<stop stop-color="#E8CDF6"/>
<stop offset="1" stop-color="#B93CF9"/>
</linearGradient>
<linearGradient id="paint10_linear_1243_7161" x1="46.9727" y1="366.245" x2="-26.2609" y2="417.445" gradientUnits="userSpaceOnUse">
<stop stop-color="#E8CDF6"/>
<stop offset="1" stop-color="#0328C4"/>
</linearGradient>
<linearGradient id="paint11_linear_1243_7161" x1="73.8717" y1="363.686" x2="125.443" y2="404.599" gradientUnits="userSpaceOnUse">
<stop stop-color="#E8CDF6"/>
<stop offset="1" stop-color="#B93CF9"/>
</linearGradient>
<linearGradient id="paint12_linear_1243_7161" x1="275.978" y1="178.862" x2="307.74" y2="377.882" gradientUnits="userSpaceOnUse">
<stop stop-color="#E8CDF6" stop-opacity="0.5"/>
<stop offset="1" stop-color="#B93CF9" stop-opacity="0.5"/>
</linearGradient>
<linearGradient id="paint13_linear_1243_7161" x1="270" y1="114.857" x2="308.487" y2="337.015" gradientUnits="userSpaceOnUse">
<stop stop-color="#B9FB6A"/>
<stop offset="1" stop-color="#2C4212"/>
</linearGradient>
<linearGradient id="paint14_linear_1243_7161" x1="290.925" y1="108.951" x2="211.195" y2="354.967" gradientUnits="userSpaceOnUse">
<stop stop-color="#E8CDF6" stop-opacity="0.5"/>
<stop offset="1" stop-color="#B93CF9" stop-opacity="0.5"/>
</linearGradient>
<linearGradient id="paint15_linear_1243_7161" x1="280.779" y1="259.107" x2="318.359" y2="264.052" gradientUnits="userSpaceOnUse">
<stop stop-color="#B9FB6A"/>
<stop offset="1" stop-color="#B9FB6A"/>
</linearGradient>
<linearGradient id="paint16_linear_1243_7161" x1="270.475" y1="241.546" x2="246.289" y2="243.512" gradientUnits="userSpaceOnUse">
<stop stop-color="#E8CDF6"/>
<stop offset="1" stop-color="#B93CF9"/>
</linearGradient>
<linearGradient id="paint17_linear_1243_7161" x1="281.105" y1="268.983" x2="258.014" y2="285.126" gradientUnits="userSpaceOnUse">
<stop stop-color="#E8CDF6"/>
<stop offset="1" stop-color="#00A0D6"/>
</linearGradient>
<linearGradient id="paint18_linear_1243_7161" x1="281.105" y1="268.982" x2="258.015" y2="285.126" gradientUnits="userSpaceOnUse">
<stop stop-color="#E8CDF6"/>
<stop offset="1" stop-color="#00A0D6"/>
</linearGradient>
<linearGradient id="paint19_linear_1243_7161" x1="312.287" y1="297.881" x2="341.834" y2="306.839" gradientUnits="userSpaceOnUse">
<stop stop-color="#B9FB6A"/>
<stop offset="1" stop-color="#88FFF3"/>
</linearGradient>
<linearGradient id="paint20_linear_1243_7161" x1="302.121" y1="279.235" x2="278.011" y2="288.678" gradientUnits="userSpaceOnUse">
<stop stop-color="#E8CDF6"/>
<stop offset="1" stop-color="#B93CF9"/>
</linearGradient>
</defs>
</svg>
