<svg width="30" height="30" viewBox="0 0 30 30" fill="none" xmlns="http://www.w3.org/2000/svg">
<g clip-path="url(#clip0_934_3322)">
<path d="M27 12H28C28.2652 12 28.5196 11.8946 28.7071 11.7071C28.8946 11.5196 29 11.2652 29 11C29 10.7348 28.8946 10.4804 28.7071 10.2929C28.5196 10.1054 28.2652 10 28 10H25.566L24.022 7.427C23.576 6.68838 22.9473 6.07707 22.1964 5.65198C21.4455 5.2269 20.5978 5.00236 19.735 5H10.265C8.519 5 6.876 5.93 5.978 7.427L4.434 10H2C1.73478 10 1.48043 10.1054 1.29289 10.2929C1.10536 10.4804 1 10.7348 1 11C1 11.2652 1.10536 11.5196 1.29289 11.7071C1.48043 11.8946 1.73478 12 2 12H3L2.4 12.8C1.49395 14.0131 1.00301 15.4859 1 17V22C1 23.654 2.346 25 4 25H6C7.654 25 9 23.654 9 22H21C21 23.654 22.346 25 24 25H26C27.654 25 29 23.654 29 22V17C28.9971 15.4859 28.5062 14.013 27.6 12.8L27 12ZM7.693 8.457C7.96054 8.01375 8.33771 7.64685 8.78819 7.39166C9.23866 7.13648 9.74727 7.00159 10.265 7H19.736C20.784 7 21.769 7.558 22.308 8.457L23.652 10.697L22.957 11.16C22.1359 11.7085 21.1704 12.0008 20.183 12H9.816C8.826 12 7.867 11.71 7.043 11.161L6.348 10.697L7.692 8.456L7.693 8.457ZM27.001 22C27.001 22.551 26.552 23 26.001 23H24.001C23.45 23 23.001 22.551 23.001 22V21C23.001 20.7348 22.8956 20.4804 22.7081 20.2929C22.5206 20.1054 22.2662 20 22.001 20H8C7.73478 20 7.48043 20.1054 7.29289 20.2929C7.10536 20.4804 7 20.7348 7 21V22C7 22.551 6.551 23 6 23H4C3.449 23 3 22.551 3 22V17C3 15.925 3.355 14.859 4 14L5.232 12.357L5.934 12.825C7.08309 13.5924 8.4342 14.0014 9.816 14H20.183C21.5652 14.0011 22.9167 13.5918 24.066 12.824L24.767 12.357L25.999 14C26.644 14.859 26.999 15.925 26.999 17V22H27.001Z" fill="#B9FB6A"/>
<path d="M24 18C24.5523 18 25 17.5523 25 17C25 16.4477 24.5523 16 24 16C23.4477 16 23 16.4477 23 17C23 17.5523 23.4477 18 24 18Z" fill="#B9FB6A"/>
<path d="M6 18C6.55228 18 7 17.5523 7 17C7 16.4477 6.55228 16 6 16C5.44772 16 5 16.4477 5 17C5 17.5523 5.44772 18 6 18Z" fill="#B9FB6A"/>
</g>
<defs>
<clipPath id="clip0_934_3322">
<rect width="30" height="30" fill="white"/>
</clipPath>
</defs>
</svg>
