<svg width="30" height="30" viewBox="0 0 30 30" fill="none" xmlns="http://www.w3.org/2000/svg">
<g clip-path="url(#clip0_934_3275)">
<path fill-rule="evenodd" clip-rule="evenodd" d="M24.3684 9.86641L20.6172 5.98281V2.92773C20.6172 2.3418 21.093 1.86719 21.6777 1.86719H23.3066C23.8926 1.86719 24.3684 2.3418 24.3684 2.92773V9.86641Z" fill="white"/>
<path fill-rule="evenodd" clip-rule="evenodd" d="M5.60156 28.1398L5.60859 16.871H1.84922C-0.026953 16.871 -0.435937 15.1507 0.442969 14.2249L13.6031 0.659312C14.6426 -0.325063 15.5391 -0.135219 16.3922 0.67689L29.5547 14.2402C30.4383 15.1706 30.0023 16.871 28.125 16.871H24.3715V28.1398C24.3709 28.6329 24.1748 29.1057 23.8262 29.4546C23.4776 29.8034 23.0049 29.9998 22.5117 30.0007H7.45781C6.96487 29.9998 6.49244 29.8033 6.1442 29.4544C5.79597 29.1055 5.60039 28.6327 5.60039 28.1398H5.60156ZM22.4941 28.1257V14.9949H27.668L15.068 2.01048L14.9531 1.97298L2.30859 14.9949H7.48359L7.47773 28.1257H22.4941Z" fill="white"/>
</g>
<defs>
<clipPath id="clip0_934_3275">
<rect width="30" height="30" fill="white"/>
</clipPath>
</defs>
</svg>
