<svg width="30" height="30" viewBox="0 0 30 30" fill="none" xmlns="http://www.w3.org/2000/svg">
<g clip-path="url(#clip0_934_3292)">
<path d="M26.6193 5.71367H22.3535V2.91998C22.3535 1.66959 21.3363 0.652344 20.0859 0.652344H9.91406C8.66373 0.652344 7.64648 1.66959 7.64648 2.91998V5.71367H3.38068C1.51658 5.71367 0 7.23025 0 9.09436V25.9689C0 27.833 1.51658 29.3496 3.38068 29.3496H26.6193C28.4834 29.3496 30 27.833 30 25.9689V9.09436C30 7.23025 28.4834 5.71367 26.6193 5.71367ZM9.52148 2.91998C9.52148 2.70717 9.70125 2.52734 9.91406 2.52734H20.0859C20.2987 2.52734 20.4785 2.70711 20.4785 2.91998V5.71367H9.52148V2.91998ZM28.125 25.9689C28.125 26.7991 27.4496 27.4746 26.6193 27.4746H3.38068C2.55041 27.4746 1.875 26.7991 1.875 25.9689V9.09436C1.875 8.26414 2.55041 7.58867 3.38068 7.58867H26.6193C27.4495 7.58867 28.125 8.26408 28.125 9.09436V25.9689ZM20.8594 14.3749H18.1567V11.6722C18.1567 11.1545 17.737 10.7347 17.2192 10.7347H12.7808C12.2631 10.7347 11.8433 11.1545 11.8433 11.6722V14.3749H9.14062C8.62289 14.3749 8.20312 14.7946 8.20312 15.3124V19.7508C8.20312 20.2685 8.62289 20.6883 9.14062 20.6883H11.8433V23.3909C11.8433 23.9087 12.263 24.3284 12.7808 24.3284H17.2192C17.7369 24.3284 18.1567 23.9087 18.1567 23.3909V20.6883H20.8594C21.3771 20.6883 21.7969 20.2685 21.7969 19.7508V15.3124C21.7969 14.7946 21.3771 14.3749 20.8594 14.3749ZM19.9219 18.8133H17.2192C16.7015 18.8133 16.2817 19.2331 16.2817 19.7508V22.4534H13.7183V19.7508C13.7183 19.2331 13.2986 18.8133 12.7808 18.8133H10.0781V16.2499H12.7808C13.2985 16.2499 13.7183 15.8301 13.7183 15.3124V12.6097H16.2817V15.3124C16.2817 15.8301 16.7014 16.2499 17.2192 16.2499H19.9219V18.8133Z" fill="white"/>
</g>
<defs>
<clipPath id="clip0_934_3292">
<rect width="30" height="30" fill="white"/>
</clipPath>
</defs>
</svg>
