<svg width="122" height="122" viewBox="0 0 122 122" fill="none" xmlns="http://www.w3.org/2000/svg">
<circle cx="61" cy="61" r="56" stroke="white" stroke-opacity="0.5" stroke-width="10"/>
<path d="M75.0812 1.64749C85.2953 4.07076 94.7112 9.08897 102.418 16.2167C110.125 23.3445 115.862 32.3405 119.074 42.3346C122.286 52.3288 122.865 62.9827 120.754 73.266C118.643 83.5492 113.914 93.1137 107.025 101.034C100.135 108.955 91.318 114.963 81.4264 118.478C71.5348 121.994 60.9034 122.897 50.5606 121.1C40.2178 119.304 30.5137 114.868 22.3869 108.223C14.2602 101.578 7.9858 92.9483 4.17078 83.1684L13.462 79.544C16.6533 87.725 21.9018 94.9439 28.6999 100.503C35.498 106.061 43.6156 109.771 52.2674 111.274C60.9192 112.777 69.8124 112.022 78.0868 109.081C86.3612 106.141 93.7367 101.114 99.4999 94.4888C105.263 87.8633 109.219 79.8626 110.985 71.2606C112.75 62.6586 112.266 53.7465 109.579 45.3863C106.892 37.0262 102.093 29.5009 95.6465 23.5385C89.1996 17.5761 81.3232 13.3783 72.779 11.3513L75.0812 1.64749Z" fill="white"/>
</svg>
