<svg width="166" height="166" viewBox="0 0 166 166" fill="none" xmlns="http://www.w3.org/2000/svg">
<circle cx="83" cy="83" r="78" stroke="white" stroke-opacity="0.5" stroke-width="10"/>
<mask id="path-2-inside-1_3038_5489" fill="white">
<path d="M102.16 2.24166C113.955 5.04018 124.995 10.3888 134.502 17.9113C144.009 25.4339 151.753 34.9478 157.189 45.7841C162.625 56.6203 165.621 68.5158 165.966 80.6342C166.312 92.7525 163.999 104.799 159.189 115.928C154.379 127.056 147.19 136.996 138.127 145.048C129.065 153.1 118.348 159.069 106.731 162.535C95.1133 166.001 82.8779 166.881 70.8845 165.111C58.8911 163.341 47.4309 158.966 37.3099 152.292L42.8293 143.922C51.7277 149.789 61.8035 153.636 72.348 155.192C82.8926 156.748 93.65 155.975 103.864 152.927C114.078 149.88 123.5 144.632 131.468 137.553C139.436 130.473 145.757 121.734 149.985 111.95C154.214 102.166 156.248 91.5744 155.944 80.92C155.64 70.2655 153.006 59.807 148.227 50.2798C143.447 40.7526 136.639 32.388 128.281 25.7742C119.922 19.1603 110.216 14.4579 99.8451 11.9974L102.16 2.24166Z"/>
</mask>
<path d="M102.16 2.24166C113.955 5.04018 124.995 10.3888 134.502 17.9113C144.009 25.4339 151.753 34.9478 157.189 45.7841C162.625 56.6203 165.621 68.5158 165.966 80.6342C166.312 92.7525 163.999 104.799 159.189 115.928C154.379 127.056 147.19 136.996 138.127 145.048C129.065 153.1 118.348 159.069 106.731 162.535C95.1133 166.001 82.8779 166.881 70.8845 165.111C58.8911 163.341 47.4309 158.966 37.3099 152.292L42.8293 143.922C51.7277 149.789 61.8035 153.636 72.348 155.192C82.8926 156.748 93.65 155.975 103.864 152.927C114.078 149.88 123.5 144.632 131.468 137.553C139.436 130.473 145.757 121.734 149.985 111.95C154.214 102.166 156.248 91.5744 155.944 80.92C155.64 70.2655 153.006 59.807 148.227 50.2798C143.447 40.7526 136.639 32.388 128.281 25.7742C119.922 19.1603 110.216 14.4579 99.8451 11.9974L102.16 2.24166Z" fill="white" stroke="white" stroke-opacity="0.5" stroke-width="20" mask="url(#path-2-inside-1_3038_5489)"/>
</svg>
