<svg width="648" height="647" viewBox="0 0 648 647" fill="none" xmlns="http://www.w3.org/2000/svg" xmlns:xlink="http://www.w3.org/1999/xlink">

<path d="M628 0C639.046 0 648 8.95431 648 20V627C648 638.046 639.046 647 628 647H20C8.9543 647 0 638.046 0 627V120.29C0 92.6758 22.3858 70.29 50 70.29H348.136C395.276 70.29 418.847 70.2902 433.491 55.6455C435.881 53.2554 437.881 50.6275 439.555 47.6982C453.037 24.0977 469.656 0 496.836 0H628Z" fill="url(#pattern0_533_5226)"/>
<path d="M628 0C639.046 0 648 8.95431 648 20V627C648 638.046 639.046 647 628 647H20C8.9543 647 0 638.046 0 627V120.29C0 92.6758 22.3858 70.29 50 70.29H348.136C395.276 70.29 418.847 70.2902 433.491 55.6455C435.881 53.2554 437.881 50.6275 439.555 47.6982C453.037 24.0977 469.656 0 496.836 0H628Z" fill="url(#paint0_linear_533_5226)" fill-opacity="0.4"/>
<defs>
<pattern id="pattern0_533_5226" patternContentUnits="objectBoundingBox" width="1" height="1">
<use xlink:href="#image0_533_5226" transform="translate(-0.248751) scale(0.000365601)"/>
</pattern>
<linearGradient id="paint0_linear_533_5226" x1="324" y1="-118.822" x2="324" y2="647" gradientUnits="userSpaceOnUse">
<stop stop-opacity="0"/>
<stop offset="0.875216" stop-color="white"/>
</linearGradient>
</defs>
</svg>
