<svg width="58" height="58" viewBox="0 0 58 58" fill="none" xmlns="http://www.w3.org/2000/svg">
<mask id="mask0_533_5236" style="mask-type:luminance" maskUnits="userSpaceOnUse" x="0" y="0" width="58" height="58">
<path d="M58 0H0V58H58V0Z" fill="white"/>
</mask>
<g mask="url(#mask0_533_5236)">
<path d="M6.14217 50.17L4.93771 54.6031C4.80763 55.0609 4.80219 55.5451 4.92193 56.0057C5.04167 56.4663 5.28225 56.8865 5.61881 57.223C5.95538 57.5595 6.37569 57.7999 6.8363 57.9195C7.29693 58.0391 7.78113 58.0335 8.23887 57.9033L15.9519 55.8095C18.6141 56.6264 21.3839 57.039 24.1686 57.0333C37.4941 57.0333 48.3353 47.7089 48.3353 36.25C48.3353 35.8141 48.314 35.38 48.2831 34.9537L50.9279 35.6719C51.1424 35.7327 51.3642 35.7636 51.5871 35.7638C51.9542 35.7622 52.3159 35.676 52.6443 35.5119C52.9727 35.3479 53.2588 35.1103 53.4805 34.8178C53.7022 34.5252 53.8535 34.1855 53.9226 33.825C53.9917 33.4644 53.9768 33.0929 53.8791 32.7391L52.9057 29.1353C54.5388 27.6691 55.8386 25.8698 56.7177 23.8589C57.5969 21.8479 58.0347 19.6719 58.0019 17.4773C58.0019 7.83967 48.8949 0 37.7019 0C26.8878 0 18.1801 7.0963 17.4754 16.2835C7.39594 18.7871 0.00190497 26.7883 0.00190497 36.25C-0.0360259 38.8754 0.492894 41.478 1.55257 43.8802C2.61225 46.2825 4.17772 48.428 6.14217 50.17ZM37.7019 1.93333C47.8297 1.93333 56.0686 8.90687 56.0686 17.4773C56.0986 19.4953 55.6759 21.4942 54.8314 23.3273C53.9869 25.1603 52.7422 26.7806 51.1889 28.0691C51.0489 28.1879 50.9457 28.344 50.8912 28.5193C50.8368 28.6946 50.8334 28.8818 50.8815 29.059L52.0153 33.2533C52.039 33.3303 52.0408 33.4123 52.0208 33.4903C52.0006 33.5683 51.9593 33.6392 51.9013 33.6951C51.8425 33.7547 51.7686 33.797 51.6874 33.8175C51.6063 33.8379 51.5211 33.8357 51.4411 33.8111L48.0124 32.8783C46.1322 23.0163 36.1553 15.4667 24.1686 15.4667C22.588 15.4666 21.0102 15.6004 19.4522 15.8669C20.4121 8.08037 28.303 1.93333 37.7019 1.93333ZM24.1686 17.4C36.4288 17.4 46.4019 25.8564 46.4019 36.25C46.4019 46.6436 36.4288 55.1 24.1686 55.1C21.4871 55.1056 18.821 54.6941 16.2661 53.8801C16.0883 53.8234 15.898 53.8194 15.718 53.8685L7.72654 56.0367C7.59848 56.0739 7.46278 56.0761 7.33359 56.043C7.20441 56.01 7.08647 55.9427 6.99207 55.8486C6.89767 55.7544 6.83027 55.6365 6.79692 55.5075C6.76356 55.3783 6.76545 55.2426 6.80241 55.1145L8.16541 50.0975C8.21385 49.9204 8.21085 49.7332 8.15675 49.5577C8.10265 49.3822 7.9997 49.2258 7.85994 49.1067C5.97527 47.5419 4.4649 45.5749 3.43968 43.3502C2.41446 41.1254 1.9004 38.6993 1.93524 36.25C1.93524 25.8564 11.9083 17.4 24.1686 17.4Z" fill="white"/>
<path d="M11.6007 43.4996H16.434C16.6904 43.4996 16.9362 43.3978 17.1175 43.2165C17.2989 43.0353 17.4007 42.7894 17.4007 42.533C17.4007 42.2766 17.2989 42.0308 17.1175 41.8494C16.9362 41.6681 16.6904 41.5663 16.434 41.5663H12.5674V30.933C12.5674 30.6766 12.4655 30.4308 12.2842 30.2494C12.1029 30.0681 11.8571 29.9663 11.6007 29.9663C11.3443 29.9663 11.0984 30.0681 10.9171 30.2494C10.7359 30.4308 10.634 30.6766 10.634 30.933V42.533C10.634 42.7894 10.7359 43.0353 10.9171 43.2165C11.0984 43.3978 11.3443 43.4996 11.6007 43.4996Z" fill="white"/>
<path d="M25.1626 42.7672C25.215 42.9762 25.3357 43.1617 25.5055 43.2943C25.6755 43.4268 25.8848 43.4988 26.1003 43.4988C26.3157 43.4988 26.5251 43.4268 26.6949 43.2943C26.8648 43.1617 26.9856 42.9762 27.0379 42.7672L29.9379 31.1672C29.972 31.0429 29.9808 30.9131 29.9641 30.7854C29.9472 30.6576 29.9051 30.5346 29.8401 30.4234C29.775 30.3122 29.6884 30.2151 29.5852 30.1378C29.4821 30.0606 29.3647 30.0048 29.2396 29.9736C29.1146 29.9424 28.9847 29.9365 28.8574 29.9563C28.7301 29.9761 28.608 30.021 28.4983 30.0887C28.3887 30.1562 28.2937 30.2451 28.2188 30.3499C28.144 30.4548 28.0909 30.5736 28.0626 30.6993L26.1003 38.5477L24.1379 30.6993C24.0711 30.4558 23.9117 30.248 23.6938 30.1205C23.4758 29.993 23.2167 29.9559 22.9717 30.017C22.7267 30.0782 22.5153 30.2327 22.3828 30.4476C22.2503 30.6626 22.2072 30.9208 22.2626 31.1672L25.1626 42.7672Z" fill="white"/>
<path d="M19.3326 43.4996C19.589 43.4996 19.8349 43.3978 20.0162 43.2165C20.1975 43.0353 20.2993 42.7894 20.2993 42.533V30.933C20.2993 30.6766 20.1975 30.4308 20.0162 30.2494C19.8349 30.0681 19.589 29.9663 19.3326 29.9663C19.0762 29.9663 18.8304 30.0681 18.6492 30.2494C18.4678 30.4308 18.366 30.6766 18.366 30.933V42.533C18.366 42.7894 18.4678 43.0353 18.6492 43.2165C18.8304 43.3978 19.0762 43.4996 19.3326 43.4996Z" fill="white"/>
<path d="M32.8651 43.4996H37.6984C37.9548 43.4996 38.2007 43.3978 38.382 43.2165C38.5633 43.0353 38.6651 42.7894 38.6651 42.533C38.6651 42.2766 38.5633 42.0308 38.382 41.8494C38.2007 41.6681 37.9548 41.5663 37.6984 41.5663H33.8318V37.6996H36.7318C36.9882 37.6996 37.2341 37.5978 37.4153 37.4165C37.5966 37.2353 37.6984 36.9894 37.6984 36.733C37.6984 36.4766 37.5966 36.2308 37.4153 36.0494C37.2341 35.8681 36.9882 35.7663 36.7318 35.7663H33.8318V31.8996H37.6984C37.9548 31.8996 38.2007 31.7978 38.382 31.6165C38.5633 31.4353 38.6651 31.1894 38.6651 30.933C38.6651 30.6766 38.5633 30.4308 38.382 30.2494C38.2007 30.0681 37.9548 29.9663 37.6984 29.9663H32.8651C32.6088 29.9663 32.3629 30.0681 32.1816 30.2494C32.0004 30.4308 31.8984 30.6766 31.8984 30.933V42.533C31.8984 42.7894 32.0004 43.0353 32.1816 43.2165C32.3629 43.3978 32.6088 43.4996 32.8651 43.4996Z" fill="white"/>
</g>
</svg>
