<svg width="488" height="328" viewBox="0 0 488 328" fill="none" xmlns="http://www.w3.org/2000/svg">
<path d="M6.432 16V6.304L4.512 6.784V5.824L6.88 4.8H7.792V16H6.432ZM14.4724 16.192C13.491 16.192 12.643 15.952 11.9284 15.472C11.2244 14.9813 10.6857 14.304 10.3124 13.44C9.93904 12.5653 9.75238 11.552 9.75238 10.4C9.75238 9.248 9.93904 8.24 10.3124 7.376C10.6857 6.50133 11.2244 5.824 11.9284 5.344C12.643 4.85333 13.491 4.608 14.4724 4.608C15.4537 4.608 16.291 4.85333 16.9844 5.344C17.6884 5.824 18.227 6.50133 18.6004 7.376C18.9737 8.24 19.1604 9.248 19.1604 10.4C19.1604 11.552 18.9737 12.5653 18.6004 13.44C18.227 14.304 17.6884 14.9813 16.9844 15.472C16.291 15.952 15.4537 16.192 14.4724 16.192ZM14.4564 15.008C15.0964 15.008 15.667 14.8267 16.1684 14.464C16.6697 14.0907 17.0644 13.5627 17.3524 12.88C17.6404 12.1867 17.7844 11.36 17.7844 10.4C17.7844 9.44 17.6404 8.61867 17.3524 7.936C17.0644 7.24267 16.6697 6.71467 16.1684 6.352C15.667 5.98933 15.0964 5.808 14.4564 5.808C13.8164 5.808 13.2404 5.98933 12.7284 6.352C12.227 6.71467 11.8324 7.24267 11.5444 7.936C11.267 8.61867 11.1284 9.44 11.1284 10.4C11.1284 11.36 11.267 12.1867 11.5444 12.88C11.8324 13.5627 12.227 14.0907 12.7284 14.464C13.2404 14.8267 13.8164 15.008 14.4564 15.008ZM25.4099 16.192C24.4285 16.192 23.5805 15.952 22.8659 15.472C22.1619 14.9813 21.6232 14.304 21.2499 13.44C20.8765 12.5653 20.6899 11.552 20.6899 10.4C20.6899 9.248 20.8765 8.24 21.2499 7.376C21.6232 6.50133 22.1619 5.824 22.8659 5.344C23.5805 4.85333 24.4285 4.608 25.4099 4.608C26.3912 4.608 27.2285 4.85333 27.9219 5.344C28.6259 5.824 29.1645 6.50133 29.5379 7.376C29.9112 8.24 30.0979 9.248 30.0979 10.4C30.0979 11.552 29.9112 12.5653 29.5379 13.44C29.1645 14.304 28.6259 14.9813 27.9219 15.472C27.2285 15.952 26.3912 16.192 25.4099 16.192ZM25.3939 15.008C26.0339 15.008 26.6045 14.8267 27.1059 14.464C27.6072 14.0907 28.0019 13.5627 28.2899 12.88C28.5779 12.1867 28.7219 11.36 28.7219 10.4C28.7219 9.44 28.5779 8.61867 28.2899 7.936C28.0019 7.24267 27.6072 6.71467 27.1059 6.352C26.6045 5.98933 26.0339 5.808 25.3939 5.808C24.7539 5.808 24.1779 5.98933 23.6659 6.352C23.1645 6.71467 22.7699 7.24267 22.4819 7.936C22.2045 8.61867 22.0659 9.44 22.0659 10.4C22.0659 11.36 22.2045 12.1867 22.4819 12.88C22.7699 13.5627 23.1645 14.0907 23.6659 14.464C24.1779 14.8267 24.7539 15.008 25.3939 15.008Z" fill="white" fill-opacity="0.7"/>
<path d="M14.864 77.5924C14.1387 77.5924 13.488 77.4591 12.912 77.1924C12.336 76.9151 11.8773 76.5364 11.536 76.0564C11.1947 75.5657 11.024 75.0004 11.024 74.3604C11.024 73.9017 11.1147 73.4751 11.296 73.0804C11.4773 72.6857 11.728 72.3444 12.048 72.0564C12.3787 71.7577 12.7573 71.5497 13.184 71.4324C12.5867 71.2191 12.1227 70.8884 11.792 70.4404C11.472 69.9924 11.312 69.5071 11.312 68.9844C11.312 68.4297 11.456 67.9284 11.744 67.4804C12.032 67.0324 12.4373 66.6751 12.96 66.4084C13.4933 66.1417 14.128 66.0084 14.864 66.0084C15.6107 66.0084 16.2453 66.1417 16.768 66.4084C17.3013 66.6751 17.7067 67.0324 17.984 67.4804C18.272 67.9284 18.416 68.4297 18.416 68.9844C18.416 69.5071 18.2507 69.9924 17.92 70.4404C17.6 70.8884 17.1413 71.2191 16.544 71.4324C16.9813 71.5497 17.36 71.7577 17.68 72.0564C18.0107 72.3444 18.2613 72.6857 18.432 73.0804C18.6133 73.4751 18.704 73.9017 18.704 74.3604C18.704 75.0004 18.5333 75.5657 18.192 76.0564C17.8613 76.5364 17.4027 76.9151 16.816 77.1924C16.24 77.4591 15.5893 77.5924 14.864 77.5924ZM14.864 76.4084C15.7067 76.4084 16.3307 76.2164 16.736 75.8324C17.152 75.4377 17.36 74.9204 17.36 74.2804C17.36 73.5551 17.1307 73.0057 16.672 72.6324C16.224 72.2591 15.6213 72.0724 14.864 72.0724C14.1067 72.0724 13.4987 72.2591 13.04 72.6324C12.592 73.0057 12.368 73.5551 12.368 74.2804C12.368 74.9204 12.576 75.4377 12.992 75.8324C13.408 76.2164 14.032 76.4084 14.864 76.4084ZM14.864 70.9524C15.536 70.9524 16.0693 70.7764 16.464 70.4244C16.8587 70.0724 17.056 69.6191 17.056 69.0644C17.056 68.4351 16.8587 67.9604 16.464 67.6404C16.08 67.3204 15.5467 67.1604 14.864 67.1604C14.192 67.1604 13.6587 67.3204 13.264 67.6404C12.88 67.9604 12.688 68.4351 12.688 69.0644C12.688 69.6191 12.88 70.0724 13.264 70.4244C13.6587 70.7764 14.192 70.9524 14.864 70.9524ZM25.2224 77.5924C24.241 77.5924 23.393 77.3524 22.6784 76.8724C21.9744 76.3817 21.4357 75.7044 21.0624 74.8404C20.689 73.9657 20.5024 72.9524 20.5024 71.8004C20.5024 70.6484 20.689 69.6404 21.0624 68.7764C21.4357 67.9017 21.9744 67.2244 22.6784 66.7444C23.393 66.2537 24.241 66.0084 25.2224 66.0084C26.2037 66.0084 27.041 66.2537 27.7344 66.7444C28.4384 67.2244 28.977 67.9017 29.3504 68.7764C29.7237 69.6404 29.9104 70.6484 29.9104 71.8004C29.9104 72.9524 29.7237 73.9657 29.3504 74.8404C28.977 75.7044 28.4384 76.3817 27.7344 76.8724C27.041 77.3524 26.2037 77.5924 25.2224 77.5924ZM25.2064 76.4084C25.8464 76.4084 26.417 76.2271 26.9184 75.8644C27.4197 75.4911 27.8144 74.9631 28.1024 74.2804C28.3904 73.5871 28.5344 72.7604 28.5344 71.8004C28.5344 70.8404 28.3904 70.0191 28.1024 69.3364C27.8144 68.6431 27.4197 68.1151 26.9184 67.7524C26.417 67.3897 25.8464 67.2084 25.2064 67.2084C24.5664 67.2084 23.9904 67.3897 23.4784 67.7524C22.977 68.1151 22.5824 68.6431 22.2944 69.3364C22.017 70.0191 21.8784 70.8404 21.8784 71.8004C21.8784 72.7604 22.017 73.5871 22.2944 74.2804C22.5824 74.9631 22.977 75.4911 23.4784 75.8644C23.9904 76.2271 24.5664 76.4084 25.2064 76.4084Z" fill="white" fill-opacity="0.7"/>
<path d="M15.216 138.992C14.4053 138.992 13.7227 138.842 13.168 138.544C12.6133 138.234 12.1707 137.829 11.84 137.328C11.5093 136.816 11.264 136.24 11.104 135.6C10.9547 134.96 10.88 134.309 10.88 133.648C10.88 132.41 11.0507 131.328 11.392 130.4C11.7333 129.461 12.224 128.73 12.864 128.208C13.5147 127.674 14.2933 127.408 15.2 127.408C15.904 127.408 16.5067 127.546 17.008 127.824C17.52 128.09 17.9253 128.453 18.224 128.912C18.5227 129.37 18.704 129.882 18.768 130.448H17.52C17.4133 129.85 17.152 129.392 16.736 129.072C16.3307 128.741 15.8133 128.576 15.184 128.576C14.6293 128.576 14.128 128.752 13.68 129.104C13.232 129.445 12.8747 129.973 12.608 130.688C12.352 131.392 12.2027 132.293 12.16 133.392C12.16 133.402 12.16 133.418 12.16 133.44C12.16 133.461 12.16 133.482 12.16 133.504C12.3307 133.173 12.5653 132.864 12.864 132.576C13.1733 132.288 13.5413 132.058 13.968 131.888C14.3947 131.717 14.8693 131.632 15.392 131.632C16.0213 131.632 16.6133 131.781 17.168 132.08C17.7227 132.378 18.1707 132.8 18.512 133.344C18.864 133.877 19.04 134.506 19.04 135.232C19.04 135.861 18.8853 136.464 18.576 137.04C18.2773 137.616 17.84 138.085 17.264 138.448C16.688 138.81 16.0053 138.992 15.216 138.992ZM15.12 137.808C15.6107 137.808 16.048 137.701 16.432 137.488C16.8267 137.264 17.1307 136.965 17.344 136.592C17.568 136.208 17.68 135.776 17.68 135.296C17.68 134.794 17.568 134.357 17.344 133.984C17.1307 133.61 16.8267 133.322 16.432 133.12C16.048 132.906 15.6107 132.8 15.12 132.8C14.6293 132.8 14.1867 132.912 13.792 133.136C13.3973 133.36 13.0827 133.664 12.848 134.048C12.624 134.421 12.512 134.842 12.512 135.312C12.512 135.792 12.624 136.224 12.848 136.608C13.0827 136.981 13.3973 137.274 13.792 137.488C14.1867 137.701 14.6293 137.808 15.12 137.808ZM25.5349 138.992C24.5535 138.992 23.7055 138.752 22.9909 138.272C22.2869 137.781 21.7482 137.104 21.3749 136.24C21.0015 135.365 20.8149 134.352 20.8149 133.2C20.8149 132.048 21.0015 131.04 21.3749 130.176C21.7482 129.301 22.2869 128.624 22.9909 128.144C23.7055 127.653 24.5535 127.408 25.5349 127.408C26.5162 127.408 27.3535 127.653 28.0469 128.144C28.7509 128.624 29.2895 129.301 29.6629 130.176C30.0362 131.04 30.2229 132.048 30.2229 133.2C30.2229 134.352 30.0362 135.365 29.6629 136.24C29.2895 137.104 28.7509 137.781 28.0469 138.272C27.3535 138.752 26.5162 138.992 25.5349 138.992ZM25.5189 137.808C26.1589 137.808 26.7295 137.626 27.2309 137.264C27.7322 136.89 28.1269 136.362 28.4149 135.68C28.7029 134.986 28.8469 134.16 28.8469 133.2C28.8469 132.24 28.7029 131.418 28.4149 130.736C28.1269 130.042 27.7322 129.514 27.2309 129.152C26.7295 128.789 26.1589 128.608 25.5189 128.608C24.8789 128.608 24.3029 128.789 23.7909 129.152C23.2895 129.514 22.8949 130.042 22.6069 130.736C22.3295 131.418 22.1909 132.24 22.1909 133.2C22.1909 134.16 22.3295 134.986 22.6069 135.68C22.8949 136.362 23.2895 136.89 23.7909 137.264C24.3029 137.626 24.8789 137.808 25.5189 137.808Z" fill="white" fill-opacity="0.7"/>
<path d="M16.272 200.2V197.8H10.592V196.76L16.032 189H17.6V196.616H19.264V197.8H17.6V200.2H16.272ZM12.08 196.616H16.336V190.488L12.08 196.616ZM25.2068 200.392C24.2254 200.392 23.3774 200.152 22.6628 199.672C21.9588 199.182 21.4201 198.504 21.0468 197.64C20.6734 196.766 20.4868 195.752 20.4868 194.6C20.4868 193.448 20.6734 192.44 21.0468 191.576C21.4201 190.702 21.9588 190.024 22.6628 189.544C23.3774 189.054 24.2254 188.808 25.2068 188.808C26.1881 188.808 27.0254 189.054 27.7188 189.544C28.4228 190.024 28.9614 190.702 29.3348 191.576C29.7081 192.44 29.8948 193.448 29.8948 194.6C29.8948 195.752 29.7081 196.766 29.3348 197.64C28.9614 198.504 28.4228 199.182 27.7188 199.672C27.0254 200.152 26.1881 200.392 25.2068 200.392ZM25.1908 199.208C25.8308 199.208 26.4014 199.027 26.9028 198.664C27.4041 198.291 27.7988 197.763 28.0868 197.08C28.3748 196.387 28.5188 195.56 28.5188 194.6C28.5188 193.64 28.3748 192.819 28.0868 192.136C27.7988 191.443 27.4041 190.915 26.9028 190.552C26.4014 190.19 25.8308 190.008 25.1908 190.008C24.5508 190.008 23.9748 190.19 23.4628 190.552C22.9614 190.915 22.5668 191.443 22.2788 192.136C22.0014 192.819 21.8628 193.64 21.8628 194.6C21.8628 195.56 22.0014 196.387 22.2788 197.08C22.5668 197.763 22.9614 198.291 23.4628 198.664C23.9748 199.027 24.5508 199.208 25.1908 199.208Z" fill="white" fill-opacity="0.7"/>
<path d="M12.024 261.6V260.656C12.7813 260.058 13.5013 259.456 14.184 258.848C14.8773 258.24 15.4907 257.637 16.024 257.04C16.5573 256.432 16.9733 255.84 17.272 255.264C17.5813 254.688 17.736 254.133 17.736 253.6C17.736 253.205 17.6667 252.842 17.528 252.512C17.3893 252.17 17.1653 251.893 16.856 251.68C16.5573 251.466 16.152 251.36 15.64 251.36C15.1387 251.36 14.7227 251.472 14.392 251.696C14.0613 251.909 13.8107 252.197 13.64 252.56C13.48 252.912 13.4 253.301 13.4 253.728H12.104C12.1147 252.992 12.2693 252.362 12.568 251.84C12.8773 251.306 13.2987 250.901 13.832 250.624C14.3653 250.346 14.9733 250.208 15.656 250.208C16.328 250.208 16.92 250.336 17.432 250.592C17.944 250.837 18.344 251.205 18.632 251.696C18.9307 252.186 19.08 252.805 19.08 253.552C19.08 254.074 18.968 254.597 18.744 255.12C18.5307 255.642 18.2427 256.154 17.88 256.656C17.5173 257.146 17.112 257.621 16.664 258.08C16.2267 258.538 15.7733 258.97 15.304 259.376C14.8453 259.781 14.4133 260.149 14.008 260.48H19.464V261.6H12.024ZM25.5505 261.792C24.5692 261.792 23.7212 261.552 23.0065 261.072C22.3025 260.581 21.7638 259.904 21.3905 259.04C21.0172 258.165 20.8305 257.152 20.8305 256C20.8305 254.848 21.0172 253.84 21.3905 252.976C21.7638 252.101 22.3025 251.424 23.0065 250.944C23.7212 250.453 24.5692 250.208 25.5505 250.208C26.5318 250.208 27.3692 250.453 28.0625 250.944C28.7665 251.424 29.3052 252.101 29.6785 252.976C30.0518 253.84 30.2385 254.848 30.2385 256C30.2385 257.152 30.0518 258.165 29.6785 259.04C29.3052 259.904 28.7665 260.581 28.0625 261.072C27.3692 261.552 26.5318 261.792 25.5505 261.792ZM25.5345 260.608C26.1745 260.608 26.7452 260.426 27.2465 260.064C27.7478 259.69 28.1425 259.162 28.4305 258.48C28.7185 257.786 28.8625 256.96 28.8625 256C28.8625 255.04 28.7185 254.218 28.4305 253.536C28.1425 252.842 27.7478 252.314 27.2465 251.952C26.7452 251.589 26.1745 251.408 25.5345 251.408C24.8945 251.408 24.3185 251.589 23.8065 251.952C23.3052 252.314 22.9105 252.842 22.6225 253.536C22.3452 254.218 22.2065 255.04 22.2065 256C22.2065 256.96 22.3452 257.786 22.6225 258.48C22.9105 259.162 23.3052 259.69 23.8065 260.064C24.3185 260.426 24.8945 260.608 25.5345 260.608Z" fill="white" fill-opacity="0.7"/>
<path d="M25.488 323.192C24.5067 323.192 23.6587 322.952 22.944 322.472C22.24 321.981 21.7013 321.304 21.328 320.44C20.9547 319.565 20.768 318.552 20.768 317.4C20.768 316.248 20.9547 315.24 21.328 314.376C21.7013 313.501 22.24 312.824 22.944 312.344C23.6587 311.853 24.5067 311.608 25.488 311.608C26.4693 311.608 27.3067 311.853 28 312.344C28.704 312.824 29.2427 313.501 29.616 314.376C29.9893 315.24 30.176 316.248 30.176 317.4C30.176 318.552 29.9893 319.565 29.616 320.44C29.2427 321.304 28.704 321.981 28 322.472C27.3067 322.952 26.4693 323.192 25.488 323.192ZM25.472 322.008C26.112 322.008 26.6827 321.827 27.184 321.464C27.6853 321.091 28.08 320.563 28.368 319.88C28.656 319.187 28.8 318.36 28.8 317.4C28.8 316.44 28.656 315.619 28.368 314.936C28.08 314.243 27.6853 313.715 27.184 313.352C26.6827 312.989 26.112 312.808 25.472 312.808C24.832 312.808 24.256 312.989 23.744 313.352C23.2427 313.715 22.848 314.243 22.56 314.936C22.2827 315.619 22.144 316.44 22.144 317.4C22.144 318.36 22.2827 319.187 22.56 319.88C22.848 320.563 23.2427 321.091 23.744 321.464C24.256 321.827 24.832 322.008 25.472 322.008Z" fill="white" fill-opacity="0.7"/>
<line x1="36" y1="5.5" x2="487" y2="5.5" stroke="#00001A" stroke-opacity="0.15" stroke-dasharray="2"/>
<line x1="36" y1="68.7002" x2="487" y2="68.7002" stroke="#00001A" stroke-opacity="0.15" stroke-dasharray="2"/>
<line x1="36" y1="131.9" x2="487" y2="131.9" stroke="#00001A" stroke-opacity="0.15" stroke-dasharray="2"/>
<line x1="36" y1="195.1" x2="487" y2="195.1" stroke="#00001A" stroke-opacity="0.15" stroke-dasharray="2"/>
<line x1="36" y1="258.3" x2="487" y2="258.3" stroke="#00001A" stroke-opacity="0.15" stroke-dasharray="2"/>
<line x1="36" y1="321.5" x2="487" y2="321.5" stroke="#00001A" stroke-opacity="0.3"/>
<line x1="35.5" y1="322" x2="35.5" y2="6" stroke="#00001A" stroke-opacity="0.15" stroke-dasharray="2"/>
<line x1="73.082" y1="322" x2="73.082" y2="6" stroke="#00001A" stroke-opacity="0.15" stroke-dasharray="2"/>
<line x1="110.668" y1="322" x2="110.668" y2="6" stroke="#00001A" stroke-opacity="0.15" stroke-dasharray="2"/>
<line x1="148.25" y1="322" x2="148.25" y2="6" stroke="#00001A" stroke-opacity="0.15" stroke-dasharray="2"/>
<line x1="185.832" y1="322" x2="185.832" y2="6" stroke="#00001A" stroke-opacity="0.15" stroke-dasharray="2"/>
<line x1="223.418" y1="322" x2="223.418" y2="6" stroke="#00001A" stroke-opacity="0.15" stroke-dasharray="2"/>
<line x1="261" y1="322" x2="261" y2="6" stroke="#00001A" stroke-opacity="0.15" stroke-dasharray="2"/>
<line x1="298.582" y1="322" x2="298.582" y2="6" stroke="#00001A" stroke-opacity="0.15" stroke-dasharray="2"/>
<line x1="336.168" y1="322" x2="336.168" y2="6" stroke="#00001A" stroke-opacity="0.15" stroke-dasharray="2"/>
<line x1="373.75" y1="322" x2="373.75" y2="6" stroke="#00001A" stroke-opacity="0.15" stroke-dasharray="2"/>
<line x1="411.332" y1="322" x2="411.332" y2="6" stroke="#00001A" stroke-opacity="0.15" stroke-dasharray="2"/>
<line x1="448.918" y1="322" x2="448.918" y2="6" stroke="#00001A" stroke-opacity="0.15" stroke-dasharray="2"/>
<line x1="486.5" y1="322" x2="486.5" y2="6" stroke="#00001A" stroke-opacity="0.15" stroke-dasharray="2"/>
<path d="M91.625 61.3217C75.5813 61.3217 53.875 279.709 53.875 279.709V321H469.125V214.051C469.125 214.051 447.419 84.5891 431.375 84.5891C415.331 84.5891 409.669 225.481 393.625 225.481C377.581 225.481 371.919 81.6375 355.875 81.6375C339.831 81.6375 334.169 201.962 318.125 201.962C302.081 201.962 296.419 69.9253 280.375 69.9253C264.331 69.9253 258.669 280.965 242.625 280.965C226.581 280.965 220.919 59.4062 204.875 59.4062C188.831 59.4062 183.169 233.394 167.125 233.394C151.081 233.394 142.21 93.2115 129.375 79.3766C116.54 65.5418 107.669 61.3217 91.625 61.3217Z" fill="url(#paint0_linear_934_2649)"/>
<g filter="url(#filter0_ddd_934_2649)">
<path d="M53.875 279.709C53.875 279.709 75.5813 61.3217 91.625 61.3217C107.669 61.3217 116.54 65.5418 129.375 79.3767C142.21 93.2115 151.081 233.394 167.125 233.394C183.169 233.394 188.831 59.4062 204.875 59.4062C220.919 59.4062 226.581 280.965 242.625 280.965C258.669 280.965 264.331 69.9253 280.375 69.9253C296.419 69.9253 302.081 201.962 318.125 201.962C334.169 201.962 339.831 81.6375 355.875 81.6375C371.919 81.6375 377.581 225.481 393.625 225.481C409.669 225.481 415.331 84.5891 431.375 84.5891C447.419 84.5891 469.125 214.051 469.125 214.051" stroke="#3CC3DF"/>
</g>
<circle opacity="0.25" cx="53.875" cy="279.709" r="8" fill="#3CC3DF"/>
<circle cx="53.875" cy="279.709" r="3.5" fill="#3CC3DF" stroke="white"/>
<circle opacity="0.25" cx="91.625" cy="61.3213" r="8" fill="#3CC3DF"/>
<circle cx="91.625" cy="61.3213" r="3.5" fill="#3CC3DF" stroke="white"/>
<circle opacity="0.25" cx="129.375" cy="79.377" r="8" fill="#3CC3DF"/>
<circle cx="129.375" cy="79.377" r="3.5" fill="#3CC3DF" stroke="white"/>
<circle opacity="0.25" cx="167.125" cy="233.394" r="8" fill="#3CC3DF"/>
<circle cx="167.125" cy="233.394" r="3.5" fill="#3CC3DF" stroke="white"/>
<circle opacity="0.25" cx="204.875" cy="59.4062" r="8" fill="#3CC3DF"/>
<circle cx="204.875" cy="59.4062" r="3.5" fill="#3CC3DF" stroke="white"/>
<circle opacity="0.25" cx="242.625" cy="280.965" r="8" fill="#3CC3DF"/>
<circle cx="242.625" cy="280.965" r="3.5" fill="#3CC3DF" stroke="white"/>
<circle opacity="0.25" cx="280.375" cy="69.9248" r="8" fill="#3CC3DF"/>
<circle cx="280.375" cy="69.9248" r="3.5" fill="#3CC3DF" stroke="white"/>
<circle opacity="0.25" cx="318.125" cy="201.962" r="8" fill="#3CC3DF"/>
<circle cx="318.125" cy="201.962" r="3.5" fill="#3CC3DF" stroke="white"/>
<circle opacity="0.25" cx="355.875" cy="81.6377" r="8" fill="#3CC3DF"/>
<circle cx="355.875" cy="81.6377" r="3.5" fill="#3CC3DF" stroke="white"/>
<circle opacity="0.25" cx="393.625" cy="225.48" r="8" fill="#3CC3DF"/>
<circle cx="393.625" cy="225.48" r="3.5" fill="#3CC3DF" stroke="white"/>
<circle opacity="0.25" cx="431.375" cy="84.5889" r="8" fill="#3CC3DF"/>
<circle cx="431.375" cy="84.5889" r="3.5" fill="#3CC3DF" stroke="white"/>
<circle opacity="0.25" cx="469.125" cy="214.051" r="8" fill="#3CC3DF"/>
<circle cx="469.125" cy="214.051" r="3.5" fill="#3CC3DF" stroke="white"/>
<path d="M91.625 43.9268C75.5813 43.9268 53.875 64.1798 53.875 64.1798V321H469.125V220.206C469.125 220.206 447.419 52.813 431.375 52.813C415.331 52.813 409.669 247.807 393.625 247.807C377.581 247.807 371.919 143.119 355.875 143.119C339.831 143.119 334.169 278.642 318.125 278.642C302.081 278.642 296.419 124.907 280.375 124.907C264.331 124.907 258.669 189.686 242.625 189.686C226.581 189.686 220.919 168.585 204.875 168.585C188.831 168.585 183.169 247.053 167.125 247.053C151.081 247.053 142.21 107.494 129.375 80.916C116.54 54.3378 107.669 43.9268 91.625 43.9268Z" fill="url(#paint1_linear_934_2649)"/>
<g filter="url(#filter1_ddd_934_2649)">
<path d="M53.875 64.1798C53.875 64.1798 75.5813 43.9268 91.625 43.9268C107.669 43.9268 116.54 54.3378 129.375 80.916C142.21 107.494 151.081 247.053 167.125 247.053C183.169 247.053 188.831 168.585 204.875 168.585C220.919 168.585 226.581 189.686 242.625 189.686C258.669 189.686 264.331 124.907 280.375 124.907C296.419 124.907 302.081 278.642 318.125 278.642C334.169 278.642 339.831 143.119 355.875 143.119C371.919 143.119 377.581 247.807 393.625 247.807C409.669 247.807 415.331 52.813 431.375 52.813C447.419 52.813 469.125 220.206 469.125 220.206" stroke="#FF928A"/>
</g>
<circle opacity="0.25" cx="53.875" cy="64.1797" r="8" fill="#FF928A"/>
<circle cx="53.875" cy="64.1797" r="3.5" fill="#FF928A" stroke="white"/>
<circle opacity="0.25" cx="91.625" cy="43.9268" r="8" fill="#FF928A"/>
<circle cx="91.625" cy="43.9268" r="3.5" fill="#FF928A" stroke="white"/>
<circle opacity="0.25" cx="129.375" cy="80.916" r="8" fill="#FF928A"/>
<circle cx="129.375" cy="80.916" r="3.5" fill="#FF928A" stroke="white"/>
<circle opacity="0.25" cx="167.125" cy="247.054" r="8" fill="#FF928A"/>
<circle cx="167.125" cy="247.054" r="3.5" fill="#FF928A" stroke="white"/>
<circle opacity="0.25" cx="204.875" cy="168.585" r="8" fill="#FF928A"/>
<circle cx="204.875" cy="168.585" r="3.5" fill="#FF928A" stroke="white"/>
<circle opacity="0.25" cx="242.625" cy="189.686" r="8" fill="#FF928A"/>
<circle cx="242.625" cy="189.686" r="3.5" fill="#FF928A" stroke="white"/>
<circle opacity="0.25" cx="280.375" cy="124.907" r="8" fill="#FF928A"/>
<circle cx="280.375" cy="124.907" r="3.5" fill="#FF928A" stroke="white"/>
<circle opacity="0.25" cx="318.125" cy="278.642" r="8" fill="#FF928A"/>
<circle cx="318.125" cy="278.642" r="3.5" fill="#FF928A" stroke="white"/>
<circle opacity="0.25" cx="355.875" cy="143.119" r="8" fill="#FF928A"/>
<circle cx="355.875" cy="143.119" r="3.5" fill="#FF928A" stroke="white"/>
<circle opacity="0.25" cx="393.625" cy="247.807" r="8" fill="#FF928A"/>
<circle cx="393.625" cy="247.807" r="3.5" fill="#FF928A" stroke="white"/>
<circle opacity="0.25" cx="431.375" cy="52.8125" r="8" fill="#FF928A"/>
<circle cx="431.375" cy="52.8125" r="3.5" fill="#FF928A" stroke="white"/>
<circle opacity="0.25" cx="469.125" cy="220.206" r="8" fill="#FF928A"/>
<circle cx="469.125" cy="220.206" r="3.5" fill="#FF928A" stroke="white"/>
<path d="M91.625 258.074C75.5813 258.074 53.875 68.2301 53.875 68.2301V321H469.125V248.686C469.125 248.686 447.419 24.7725 431.375 24.7725C415.331 24.7725 406.46 98.7551 393.625 142.742C380.79 186.729 371.919 207.018 355.875 207.018C339.831 207.018 334.169 96.5215 318.125 96.5215C302.081 96.5215 296.419 180.611 280.375 180.611C264.331 180.611 255.46 152.195 242.625 123.902C229.79 95.6094 220.919 78.5921 204.875 78.5921C188.831 78.5921 183.169 220.049 167.125 220.049C151.081 220.049 145.419 167.58 129.375 167.58C113.331 167.58 107.669 258.074 91.625 258.074Z" fill="url(#paint2_linear_934_2649)"/>
<g filter="url(#filter2_ddd_934_2649)">
<path d="M53.875 68.2301C53.875 68.2301 75.5813 258.074 91.625 258.074C107.669 258.074 113.331 167.58 129.375 167.58C145.419 167.58 151.081 220.049 167.125 220.049C183.169 220.049 188.831 78.5921 204.875 78.5921C220.919 78.5921 229.79 95.6094 242.625 123.902C255.46 152.195 264.331 180.611 280.375 180.611C296.419 180.611 302.081 96.5215 318.125 96.5215C334.169 96.5215 339.831 207.018 355.875 207.018C371.919 207.018 380.79 186.729 393.625 142.742C406.46 98.7551 415.331 24.7725 431.375 24.7725C447.419 24.7725 469.125 248.686 469.125 248.686" stroke="#B2FF53"/>
</g>
<circle opacity="0.25" cx="53.875" cy="68.2305" r="8" fill="#B2FF53"/>
<circle cx="53.875" cy="68.2305" r="3.5" fill="#B2FF53" stroke="white"/>
<circle opacity="0.25" cx="91.625" cy="258.074" r="8" fill="#B2FF53"/>
<circle cx="91.625" cy="258.074" r="3.5" fill="#B2FF53" stroke="white"/>
<circle opacity="0.25" cx="129.375" cy="167.58" r="8" fill="#B2FF53"/>
<circle cx="129.375" cy="167.58" r="3.5" fill="#B2FF53" stroke="white"/>
<circle opacity="0.25" cx="167.125" cy="220.049" r="8" fill="#B2FF53"/>
<circle cx="167.125" cy="220.049" r="3.5" fill="#B2FF53" stroke="white"/>
<circle opacity="0.25" cx="204.875" cy="78.5918" r="8" fill="#B2FF53"/>
<circle cx="204.875" cy="78.5918" r="3.5" fill="#B2FF53" stroke="white"/>
<circle opacity="0.25" cx="242.625" cy="123.902" r="8" fill="#B2FF53"/>
<circle cx="242.625" cy="123.902" r="3.5" fill="#B2FF53" stroke="white"/>
<circle opacity="0.25" cx="280.375" cy="180.61" r="8" fill="#B2FF53"/>
<circle cx="280.375" cy="180.61" r="3.5" fill="#B2FF53" stroke="white"/>
<circle opacity="0.25" cx="318.125" cy="96.5215" r="8" fill="#B2FF53"/>
<circle cx="318.125" cy="96.5215" r="3.5" fill="#B2FF53" stroke="white"/>
<circle opacity="0.25" cx="355.875" cy="207.018" r="8" fill="#B2FF53"/>
<circle cx="355.875" cy="207.018" r="3.5" fill="#B2FF53" stroke="white"/>
<circle opacity="0.25" cx="393.625" cy="142.742" r="8" fill="#B2FF53"/>
<circle cx="393.625" cy="142.742" r="3.5" fill="#B2FF53" stroke="white"/>
<circle opacity="0.25" cx="431.375" cy="24.7725" r="8" fill="#B2FF53"/>
<circle cx="431.375" cy="24.7725" r="3.5" fill="#B2FF53" stroke="white"/>
<circle opacity="0.25" cx="469.125" cy="248.686" r="8" fill="#B2FF53"/>
<circle cx="469.125" cy="248.686" r="3.5" fill="#B2FF53" stroke="white"/>
<defs>
<filter id="filter0_ddd_934_2649" x="35.3789" y="49.9062" width="452.238" height="258.559" filterUnits="userSpaceOnUse" color-interpolation-filters="sRGB">
<feFlood flood-opacity="0" result="BackgroundImageFix"/>
<feColorMatrix in="SourceAlpha" type="matrix" values="0 0 0 0 0 0 0 0 0 0 0 0 0 0 0 0 0 0 127 0" result="hardAlpha"/>
<feOffset dy="3"/>
<feGaussianBlur stdDeviation="1.5"/>
<feColorMatrix type="matrix" values="0 0 0 0 0.233436 0 0 0 0 0.766174 0 0 0 0 0.873954 0 0 0 0.4 0"/>
<feBlend mode="normal" in2="BackgroundImageFix" result="effect1_dropShadow_934_2649"/>
<feColorMatrix in="SourceAlpha" type="matrix" values="0 0 0 0 0 0 0 0 0 0 0 0 0 0 0 0 0 0 127 0" result="hardAlpha"/>
<feOffset dy="6"/>
<feGaussianBlur stdDeviation="4.5"/>
<feColorMatrix type="matrix" values="0 0 0 0 0.233436 0 0 0 0 0.766174 0 0 0 0 0.873954 0 0 0 0.4 0"/>
<feBlend mode="normal" in2="effect1_dropShadow_934_2649" result="effect2_dropShadow_934_2649"/>
<feColorMatrix in="SourceAlpha" type="matrix" values="0 0 0 0 0 0 0 0 0 0 0 0 0 0 0 0 0 0 127 0" result="hardAlpha"/>
<feOffset dy="9"/>
<feGaussianBlur stdDeviation="9"/>
<feColorMatrix type="matrix" values="0 0 0 0 0.233436 0 0 0 0 0.766174 0 0 0 0 0.873954 0 0 0 0.4 0"/>
<feBlend mode="normal" in2="effect2_dropShadow_934_2649" result="effect3_dropShadow_934_2649"/>
<feBlend mode="normal" in="SourceGraphic" in2="effect3_dropShadow_934_2649" result="shape"/>
</filter>
<filter id="filter1_ddd_934_2649" x="35.5352" y="34.4268" width="452.086" height="271.715" filterUnits="userSpaceOnUse" color-interpolation-filters="sRGB">
<feFlood flood-opacity="0" result="BackgroundImageFix"/>
<feColorMatrix in="SourceAlpha" type="matrix" values="0 0 0 0 0 0 0 0 0 0 0 0 0 0 0 0 0 0 127 0" result="hardAlpha"/>
<feOffset dy="3"/>
<feGaussianBlur stdDeviation="1.5"/>
<feColorMatrix type="matrix" values="0 0 0 0 1 0 0 0 0 0.572549 0 0 0 0 0.541176 0 0 0 0.4 0"/>
<feBlend mode="normal" in2="BackgroundImageFix" result="effect1_dropShadow_934_2649"/>
<feColorMatrix in="SourceAlpha" type="matrix" values="0 0 0 0 0 0 0 0 0 0 0 0 0 0 0 0 0 0 127 0" result="hardAlpha"/>
<feOffset dy="6"/>
<feGaussianBlur stdDeviation="4.5"/>
<feColorMatrix type="matrix" values="0 0 0 0 1 0 0 0 0 0.572549 0 0 0 0 0.541176 0 0 0 0.4 0"/>
<feBlend mode="normal" in2="effect1_dropShadow_934_2649" result="effect2_dropShadow_934_2649"/>
<feColorMatrix in="SourceAlpha" type="matrix" values="0 0 0 0 0 0 0 0 0 0 0 0 0 0 0 0 0 0 127 0" result="hardAlpha"/>
<feOffset dy="9"/>
<feGaussianBlur stdDeviation="9"/>
<feColorMatrix type="matrix" values="0 0 0 0 1 0 0 0 0 0.572549 0 0 0 0 0.541176 0 0 0 0.4 0"/>
<feBlend mode="normal" in2="effect2_dropShadow_934_2649" result="effect3_dropShadow_934_2649"/>
<feBlend mode="normal" in="SourceGraphic" in2="effect3_dropShadow_934_2649" result="shape"/>
</filter>
<filter id="filter2_ddd_934_2649" x="35.3789" y="15.2725" width="452.242" height="270.302" filterUnits="userSpaceOnUse" color-interpolation-filters="sRGB">
<feFlood flood-opacity="0" result="BackgroundImageFix"/>
<feColorMatrix in="SourceAlpha" type="matrix" values="0 0 0 0 0 0 0 0 0 0 0 0 0 0 0 0 0 0 127 0" result="hardAlpha"/>
<feOffset dy="3"/>
<feGaussianBlur stdDeviation="1.5"/>
<feColorMatrix type="matrix" values="0 0 0 0 0.537451 0 0 0 0 0.474902 0 0 0 0 1 0 0 0 0.4 0"/>
<feBlend mode="normal" in2="BackgroundImageFix" result="effect1_dropShadow_934_2649"/>
<feColorMatrix in="SourceAlpha" type="matrix" values="0 0 0 0 0 0 0 0 0 0 0 0 0 0 0 0 0 0 127 0" result="hardAlpha"/>
<feOffset dy="6"/>
<feGaussianBlur stdDeviation="4.5"/>
<feColorMatrix type="matrix" values="0 0 0 0 0.537451 0 0 0 0 0.474902 0 0 0 0 1 0 0 0 0.4 0"/>
<feBlend mode="normal" in2="effect1_dropShadow_934_2649" result="effect2_dropShadow_934_2649"/>
<feColorMatrix in="SourceAlpha" type="matrix" values="0 0 0 0 0 0 0 0 0 0 0 0 0 0 0 0 0 0 127 0" result="hardAlpha"/>
<feOffset dy="9"/>
<feGaussianBlur stdDeviation="9"/>
<feColorMatrix type="matrix" values="0 0 0 0 0.537451 0 0 0 0 0.474902 0 0 0 0 1 0 0 0 0.4 0"/>
<feBlend mode="normal" in2="effect2_dropShadow_934_2649" result="effect3_dropShadow_934_2649"/>
<feBlend mode="normal" in="SourceGraphic" in2="effect3_dropShadow_934_2649" result="shape"/>
</filter>
<linearGradient id="paint0_linear_934_2649" x1="261.5" y1="59.4062" x2="261.5" y2="321" gradientUnits="userSpaceOnUse">
<stop stop-color="#3CC3DF" stop-opacity="0.3"/>
<stop offset="1" stop-color="#3CC3DF" stop-opacity="0.05"/>
</linearGradient>
<linearGradient id="paint1_linear_934_2649" x1="261.5" y1="43.9268" x2="261.5" y2="321" gradientUnits="userSpaceOnUse">
<stop stop-color="#FF928A" stop-opacity="0.3"/>
<stop offset="1" stop-color="#FF928A" stop-opacity="0.05"/>
</linearGradient>
<linearGradient id="paint2_linear_934_2649" x1="261.5" y1="24.7725" x2="261.5" y2="321" gradientUnits="userSpaceOnUse">
<stop stop-color="#8979FF" stop-opacity="0.3"/>
<stop offset="1" stop-color="#8979FF" stop-opacity="0.05"/>
</linearGradient>
</defs>
</svg>
