<svg width="23" height="31" viewBox="0 0 23 31" fill="none" xmlns="http://www.w3.org/2000/svg">
<path fill-rule="evenodd" clip-rule="evenodd" d="M11.1406 0C7.36956 0 4.3125 3.05706 4.3125 6.82812V10.9621C1.68849 13.0003 0 16.1858 0 19.7656C0 25.9184 4.98782 30.9062 11.1406 30.9062C17.2934 30.9062 22.2812 25.9184 22.2812 19.7656C22.2812 16.1858 20.5928 13.0003 17.9688 10.9621V6.82812C17.9688 3.05706 14.9118 0 11.1406 0ZM15.8125 9.64896V6.82812C15.8125 4.24791 13.7208 2.15625 11.1406 2.15625C8.56046 2.15625 6.46875 4.24791 6.46875 6.82812V9.64896C7.88958 8.99172 9.47226 8.625 11.1406 8.625C12.809 8.625 14.3917 8.99172 15.8125 9.64896ZM11.1406 16.5312C11.736 16.5312 12.2188 17.014 12.2188 17.6094V21.9219C12.2188 22.5173 11.736 23 11.1406 23C10.5452 23 10.0625 22.5173 10.0625 21.9219V17.6094C10.0625 17.014 10.5452 16.5312 11.1406 16.5312Z" fill="black"/>
</svg>
