<svg width="19" height="27" viewBox="0 0 19 27" fill="none" xmlns="http://www.w3.org/2000/svg">
<path d="M0.117188 1.40625C0.117188 0.644531 0.703125 0 1.52344 0H6.21094H17.4609C18.2227 0 18.8672 0.644531 18.8672 1.40625C18.8672 2.22656 18.2227 2.8125 17.4609 2.8125H12.4805C13.5352 3.98438 14.2383 5.44922 14.5312 7.03125H17.4609C18.2227 7.03125 18.8672 7.67578 18.8672 8.4375C18.8672 9.25781 18.2227 9.84375 17.4609 9.84375H14.5312C13.8281 13.8867 10.3711 16.875 6.21094 16.875H5.85938L15.4688 23.7305C16.0547 24.1992 16.2305 25.0781 15.7617 25.6641C15.293 26.3086 14.4141 26.4844 13.8281 26.0156L0.703125 16.6406C0.175781 16.2891 0 15.6445 0.175781 15.0586C0.351562 14.4727 0.878906 14.0625 1.52344 14.0625H6.21094C8.78906 14.0625 11.0156 12.3047 11.6602 9.84375H1.52344C0.703125 9.84375 0.117188 9.25781 0.117188 8.4375C0.117188 7.67578 0.703125 7.03125 1.52344 7.03125H11.6602C11.0156 4.62891 8.78906 2.8125 6.21094 2.8125H1.52344C0.703125 2.8125 0.117188 2.22656 0.117188 1.40625Z" fill="white"/>
</svg>
