<svg width="13" height="18" viewBox="0 0 13 18" fill="none" xmlns="http://www.w3.org/2000/svg">
<path d="M0.078125 0.9375C0.078125 0.429688 0.46875 0 1.01562 0H4.14062H11.6406C12.1484 0 12.5781 0.429688 12.5781 0.9375C12.5781 1.48438 12.1484 1.875 11.6406 1.875H8.32031C9.02344 2.65625 9.49219 3.63281 9.6875 4.6875H11.6406C12.1484 4.6875 12.5781 5.11719 12.5781 5.625C12.5781 6.17188 12.1484 6.5625 11.6406 6.5625H9.6875C9.21875 9.25781 6.91406 11.25 4.14062 11.25H3.90625L10.3125 15.8203C10.7031 16.1328 10.8203 16.7188 10.5078 17.1094C10.1953 17.5391 9.60938 17.6562 9.21875 17.3438L0.46875 11.0938C0.117188 10.8594 0 10.4297 0.117188 10.0391C0.234375 9.64844 0.585938 9.375 1.01562 9.375H4.14062C5.85938 9.375 7.34375 8.20312 7.77344 6.5625H1.01562C0.46875 6.5625 0.078125 6.17188 0.078125 5.625C0.078125 5.11719 0.46875 4.6875 1.01562 4.6875H7.77344C7.34375 3.08594 5.85938 1.875 4.14062 1.875H1.01562C0.46875 1.875 0.078125 1.48438 0.078125 0.9375Z" fill="white"/>
</svg>
