<svg width="65" height="63" viewBox="0 0 65 63" fill="none" xmlns="http://www.w3.org/2000/svg">
<path d="M30.1288 14.6705C30.5638 11.9789 34.4362 11.9789 34.8712 14.6705C35.2001 16.7048 37.7697 17.4078 39.0883 15.8242L39.2373 15.6452C40.9593 13.577 44.2472 15.5326 43.2519 18.033C42.4931 19.9393 44.3556 21.8413 46.2774 21.1227L46.4937 21.0418C48.9888 20.1089 50.843 23.4175 48.7448 25.0587C47.1357 26.3173 47.8107 28.89 49.8304 29.1967C52.4703 29.5975 52.4703 33.4025 49.8304 33.8034C47.8107 34.11 47.1357 36.6827 48.7448 37.9413C50.843 39.5825 48.9888 42.8911 46.4937 41.9582L46.2774 41.8773C44.3556 41.1587 42.4931 43.0607 43.2519 44.967C44.2472 47.4674 40.9593 49.423 39.2373 47.3548L39.0883 47.1758C37.7697 45.5922 35.2001 46.2952 34.8712 48.3295C34.4362 51.0211 30.5638 51.0211 30.1288 48.3295C29.7999 46.2952 27.2303 45.5922 25.9117 47.1758L25.7627 47.3548C24.0407 49.423 20.7528 47.4674 21.7481 44.967C22.5069 43.0607 20.6444 41.1587 18.7226 41.8773L18.5063 41.9582C16.0112 42.8911 14.157 39.5825 16.2552 37.9413C17.8643 36.6827 17.1893 34.11 15.1696 33.8034C12.5297 33.4025 12.5297 29.5975 15.1696 29.1967C17.1893 28.89 17.8643 26.3173 16.2552 25.0587C14.157 23.4175 16.0112 20.1089 18.5063 21.0418L18.7226 21.1227C20.6444 21.8413 22.5069 19.9393 21.7481 18.033C20.7528 15.5326 24.0407 13.577 25.7627 15.6452L25.9117 15.8242C27.2303 17.4078 29.7999 16.7048 30.1288 14.6705Z" fill="#82E40C"/>
<path fill-rule="evenodd" clip-rule="evenodd" d="M22.5742 31.5C22.5742 26.2533 26.8275 22 32.0743 22C35.0508 22 37.7076 23.3689 39.4494 25.5115L33.024 32.6911L29.7363 28.9716C29.462 28.6613 28.988 28.632 28.6776 28.9064C28.3673 29.1807 28.3381 29.6547 28.6124 29.965L32.0234 33.824C32.5528 34.4229 33.4845 34.4258 34.0176 33.8301L40.3232 26.7845C41.1192 28.174 41.5743 29.7838 41.5743 31.5C41.5743 36.7467 37.321 41 32.0743 41C26.8275 41 22.5742 36.7467 22.5742 31.5ZM40.3232 26.7845L42.2332 24.6502C42.5095 24.3415 42.4832 23.8674 42.1745 23.5911C41.8659 23.3149 41.3917 23.3412 41.1155 23.6499L39.4494 25.5115C39.7737 25.9103 40.0662 26.3359 40.3232 26.7845Z" fill="black"/>
</svg>
