<svg width="24" height="24" viewBox="0 0 24 24" fill="none" xmlns="http://www.w3.org/2000/svg">
<path d="M15.1104 8.93599C15.3512 8.59893 15.273 8.13052 14.9359 7.88976C14.5989 7.649 14.1305 7.72707 13.8898 8.06413L8.88976 15.0642C8.649 15.4012 8.72707 15.8696 9.06413 16.1104C9.40119 16.3512 9.8696 16.2731 10.1103 15.936L15.1104 8.93599Z" fill="#C1FF77"/>
<path d="M14.25 15C14.25 14.5858 14.5858 14.25 15 14.25H15.01C15.4242 14.25 15.76 14.5858 15.76 15C15.76 15.4142 15.4242 15.75 15.01 15.75H15C14.5858 15.75 14.25 15.4142 14.25 15Z" fill="#C1FF77"/>
<path d="M9 8.25C8.58578 8.25 8.25 8.58579 8.25 9C8.25 9.41421 8.58578 9.75 9 9.75H9.01C9.42421 9.75 9.76 9.41421 9.76 9C9.76 8.58579 9.42421 8.25 9.01 8.25H9Z" fill="#C1FF77"/>
<path fill-rule="evenodd" clip-rule="evenodd" d="M13.8448 1.9953C12.8176 1.00157 11.1874 1.00157 10.1602 1.9953L9.49252 2.64118C9.23764 2.88774 8.88324 3.00289 8.53211 2.95323L7.61234 2.82313C6.19721 2.62297 4.87833 3.58119 4.63139 4.98892L4.4709 5.90387C4.40963 6.25316 4.1906 6.55463 3.87734 6.72084L3.05676 7.15622C1.79424 7.82608 1.29047 9.37651 1.91814 10.6605L2.32609 11.4951C2.48183 11.8137 2.48183 12.1863 2.32609 12.5049L1.91814 13.3395C1.29047 14.6235 1.79424 16.1739 3.05676 16.8438L3.87734 17.2792C4.1906 17.4454 4.40963 17.7468 4.4709 18.0961L4.63139 19.0111C4.87833 20.4188 6.19721 21.377 7.61234 21.1769L8.53211 21.0468C8.88324 20.9971 9.23764 21.1123 9.49252 21.3588L10.1602 22.0047C11.1874 22.9984 12.8176 22.9984 13.8448 22.0047L14.5125 21.3588C14.7673 21.1123 15.1217 20.9971 15.4729 21.0468L16.3926 21.1769C17.8078 21.377 19.1267 20.4188 19.3736 19.0111L19.5341 18.0961C19.5954 17.7468 19.8144 17.4454 20.1277 17.2792L20.9482 16.8438C22.2108 16.1739 22.7145 14.6235 22.0869 13.3395L21.6789 12.5049C21.5232 12.1863 21.5232 11.8137 21.6789 11.4951L22.0869 10.6605C22.7145 9.37651 22.2108 7.82608 20.9482 7.15622L20.1277 6.72084C19.8144 6.55463 19.5954 6.25316 19.5341 5.90387L19.3736 4.98892C19.1267 3.58119 17.8078 2.62297 16.3926 2.82313L15.4729 2.95323C15.1217 3.00289 14.7673 2.88774 14.5125 2.64118L13.8448 1.9953ZM11.2031 3.07338C11.6488 2.64221 12.3562 2.64221 12.8019 3.07338L13.4695 3.71926C14.0569 4.28752 14.8737 4.55291 15.683 4.43845L16.6027 4.30835C17.2167 4.2215 17.789 4.63727 17.8962 5.24808L18.0566 6.16304C18.1979 6.96804 18.7027 7.66283 19.4246 8.04589L20.2452 8.48126C20.793 8.77192 21.0116 9.44465 20.7392 10.0018L20.3313 10.8363C19.9724 11.5706 19.9724 12.4294 20.3313 13.1637L20.7392 13.9982C21.0116 14.5554 20.793 15.2281 20.2452 15.5187L19.4246 15.9541C18.7027 16.3372 18.1979 17.032 18.0566 17.837L17.8962 18.7519C17.789 19.3627 17.2167 19.7785 16.6027 19.6917L15.683 19.5616C14.8737 19.4471 14.0569 19.7125 13.4695 20.2807L12.8019 20.9266C12.3562 21.3578 11.6488 21.3578 11.2031 20.9266L10.5355 20.2807C9.94805 19.7125 9.13128 19.4471 8.32204 19.5616L7.40227 19.6917C6.78824 19.7785 6.21598 19.3627 6.10884 18.7519L5.94834 17.837C5.80713 17.032 5.30234 16.3372 4.58037 15.9541L3.75979 15.5187C3.21199 15.2281 2.9934 14.5554 3.26575 13.9982L3.6737 13.1637C4.03263 12.4294 4.03263 11.5706 3.6737 10.8363L3.26575 10.0018C2.9934 9.44465 3.21199 8.77192 3.75979 8.48126L4.58037 8.04589C5.30234 7.66283 5.80713 6.96804 5.94834 6.16304L6.10884 5.24808C6.21598 4.63727 6.78824 4.2215 7.40227 4.30835L8.32204 4.43845C9.13128 4.55291 9.94805 4.28752 10.5355 3.71926L11.2031 3.07338Z" fill="#C1FF77"/>
</svg>
