<svg width="125" height="125" viewBox="0 0 125 125" fill="none" xmlns="http://www.w3.org/2000/svg">
<g style="mix-blend-mode:hard-light">
<circle cx="62.5" cy="62.5" r="62.5" fill="url(#paint0_linear_934_2890)"/>
<circle cx="62.5" cy="62.5" r="62.5" fill="#82E60A" fill-opacity="0.4"/>
</g>
<path d="M125 62.5C125 45.924 118.415 30.0269 106.694 18.3058C94.9732 6.5848 79.076 1.25146e-06 62.5 0C45.924 -1.25146e-06 30.0269 6.5848 18.3058 18.3058C6.58481 30.0268 2.50291e-06 45.924 0 62.5H12.5C12.5 49.2392 17.7678 36.5215 27.1447 27.1447C36.5215 17.7678 49.2392 12.5 62.5 12.5C75.7608 12.5 88.4785 17.7678 97.8553 27.1447C107.232 36.5215 112.5 49.2392 112.5 62.5H125Z" fill="#060B01" fill-opacity="0.53"/>
<path d="M-5.46392e-06 62.5C-4.0148e-06 79.076 6.5848 94.9732 18.3058 106.694C30.0268 118.415 45.924 125 62.5 125C79.076 125 94.9731 118.415 106.694 106.694C118.415 94.9732 125 79.076 125 62.5L112.5 62.5C112.5 75.7608 107.232 88.4785 97.8553 97.8553C88.4785 107.232 75.7608 112.5 62.5 112.5C49.2392 112.5 36.5215 107.232 27.1447 97.8553C17.7678 88.4785 12.5 75.7608 12.5 62.5L-5.46392e-06 62.5Z" fill="#82E60A"/>
<path d="M12.5 62.4991C54 47.9991 32.5 26.4991 64.5 56.9991C104.5 106.999 108.333 61.1658 112.5 62.4991" stroke="white"/>
<defs>
<linearGradient id="paint0_linear_934_2890" x1="62.5" y1="0" x2="62.5" y2="125" gradientUnits="userSpaceOnUse">
<stop stop-color="#82E60A"/>
<stop offset="1" stop-color="#427900"/>
</linearGradient>
</defs>
</svg>
