<svg width="50" height="50" viewBox="0 0 50 50" fill="none" xmlns="http://www.w3.org/2000/svg">
<path fill-rule="evenodd" clip-rule="evenodd" d="M15.625 20.3125C15.625 15.1348 19.8223 10.9375 25 10.9375C30.1777 10.9375 34.375 15.1348 34.375 20.3125C34.375 25.4902 30.1777 29.6875 25 29.6875C19.8223 29.6875 15.625 25.4902 15.625 20.3125ZM25 14.0625C21.5481 14.0625 18.75 16.8607 18.75 20.3125C18.75 23.7644 21.5481 26.5625 25 26.5625C28.4519 26.5625 31.25 23.7644 31.25 20.3125C31.25 16.8607 28.4519 14.0625 25 14.0625Z" fill="#13193A"/>
<path fill-rule="evenodd" clip-rule="evenodd" d="M2.60425 25.0001C2.60425 12.6312 12.6312 2.60425 25.0001 2.60425C37.369 2.60425 47.3959 12.6312 47.3959 25.0001C47.3959 37.369 37.369 47.3959 25.0001 47.3959C12.6312 47.3959 2.60425 37.369 2.60425 25.0001ZM25.0001 5.72925C14.3571 5.72925 5.72925 14.3571 5.72925 25.0001C5.72925 30.102 7.71183 34.7407 10.9486 38.188L12.0754 36.2728C13.4791 33.887 16.0407 32.422 18.8089 32.422H31.1915C33.9597 32.422 36.5213 33.887 37.9251 36.2728L39.0518 38.188C42.2884 34.7405 44.2709 30.102 44.2709 25.0001C44.2709 14.3571 35.643 5.72925 25.0001 5.72925ZM36.684 40.3261L35.2315 37.8576C34.3895 36.4259 32.8524 35.547 31.1915 35.547H18.8089C17.148 35.547 15.611 36.4259 14.7688 37.8576L13.3163 40.3263C16.5576 42.8011 20.6072 44.2709 25.0001 44.2709C29.393 44.2709 33.4428 42.8009 36.684 40.3261Z" fill="#13193A"/>
</svg>